<svg width="535" height="515" viewBox="0 0 535 515" fill="none" xmlns="http://www.w3.org/2000/svg">
<path d="M474.08 71.7714L471.507 67.5344C449.834 31.8112 410.654 10.2889 369.332 12.8962C364.016 13.232 358.733 13.9595 353.524 15.0729C315.962 23.1162 283.277 51.5178 269.716 87.8928C261.743 109.287 259.52 133.929 244.399 150.912C224.716 173.028 191.309 173.703 161.942 172.795C132.574 171.887 99.0857 172.655 79.5538 194.841C67.2852 208.739 63.3858 228.504 64.4218 247.116C67.0408 296.388 101.379 340.446 145.04 362.352C188.702 384.259 240.116 386.214 287.91 376.588C354.851 363.086 418.511 326.024 456.783 268.79C495.055 211.556 504.705 133.545 474.08 71.7714Z" fill="#EBEBEB"/>
<path d="M41.8029 217.559C49.367 209.995 49.367 197.731 41.8029 190.167C34.2389 182.603 21.9751 182.603 14.4111 190.167C6.84702 197.731 6.84702 209.995 14.4111 217.559C21.9751 225.123 34.2389 225.123 41.8029 217.559Z" fill="#EBEBEB"/>
<path d="M512.091 28.0008C514.532 17.5858 508.068 7.16409 497.653 4.7232C487.238 2.2823 476.816 8.74656 474.375 19.1615C471.935 29.5765 478.399 39.9983 488.814 42.4392C499.229 44.8801 509.651 38.4158 512.091 28.0008Z" fill="#EBEBEB"/>
<path d="M71.2894 42.9043C60.986 47.137 52.7819 55.2834 48.4766 65.5567C44.1713 75.8301 44.1163 87.3916 48.3237 97.7054L74.409 161.376L86.049 156.592L59.9754 92.9097C57.0241 85.7013 57.0572 77.6157 60.0675 70.4317C63.0777 63.2477 68.8185 57.5538 76.0269 54.6025C83.2353 51.6512 91.3209 51.6843 98.5049 54.6946C105.689 57.7048 111.383 63.4456 114.334 70.654L126.032 65.8584C121.802 55.5673 113.665 47.3727 103.404 43.0701C93.1427 38.7676 81.5944 38.7079 71.2894 42.9043Z" fill="#807FDE"/>
<g opacity="0.3">
<path opacity="0.3" d="M71.2894 42.9043C60.986 47.137 52.7819 55.2834 48.4766 65.5567C44.1713 75.8301 44.1163 87.3916 48.3237 97.7054L74.409 161.376L86.049 156.592L59.9754 92.9097C57.0241 85.7013 57.0572 77.6157 60.0675 70.4317C63.0777 63.2477 68.8185 57.5538 76.0269 54.6025C83.2353 51.6512 91.3209 51.6843 98.5049 54.6946C105.689 57.7048 111.383 63.4456 114.334 70.654L126.032 65.8584C121.802 55.5673 113.665 47.3727 103.404 43.0701C93.1427 38.7676 81.5944 38.7079 71.2894 42.9043Z" fill="black"/>
</g>
<path d="M147.84 98.2288L55.5579 136.02C52.1015 137.435 50.447 141.385 51.8625 144.841L74.2715 199.562C75.687 203.018 79.6364 204.673 83.0928 203.257L175.374 165.466C178.831 164.051 180.485 160.101 179.07 156.645L156.661 101.924C155.245 98.4679 151.296 96.8134 147.84 98.2288Z" fill="#807FDE"/>
<g opacity="0.5">
<path opacity="0.5" d="M120.62 138.399C119.958 136.766 118.854 135.349 117.431 134.31C116.008 133.27 114.323 132.649 112.566 132.515C110.809 132.381 109.049 132.741 107.485 133.554C105.922 134.366 104.616 135.599 103.715 137.113C102.814 138.628 102.354 140.364 102.387 142.126C102.419 143.888 102.943 145.606 103.899 147.086C104.855 148.566 106.206 149.75 107.799 150.504C109.391 151.258 111.163 151.553 112.914 151.354L118.268 164.449L123.052 162.494L117.686 149.399C119.307 148.135 120.471 146.377 121.001 144.392C121.53 142.406 121.396 140.302 120.62 138.399Z" fill="black"/>
</g>
<path d="M79.7982 197.157C79.5538 197.262 74.7698 186.123 69.1127 172.294C63.4557 158.466 59.0441 147.175 59.2886 147.071C59.533 146.966 64.317 158.105 69.9741 171.945C75.6311 185.785 80.031 197.064 79.7982 197.157Z" fill="#FAFAFA"/>
<path d="M109.597 156.033C109.171 156.063 108.744 156.007 108.34 155.87C107.21 155.57 106.131 155.103 105.139 154.485C103.454 153.492 102.01 152.139 100.911 150.521C99.8113 148.904 99.0836 147.064 98.7798 145.132C98.476 143.2 98.6037 141.225 99.1537 139.349C99.7037 137.472 100.662 135.74 101.961 134.278C102.705 133.368 103.589 132.582 104.58 131.95C105.278 131.52 105.744 131.357 105.744 131.403C104.576 132.401 103.487 133.487 102.485 134.651C101.331 136.078 100.49 137.732 100.015 139.505C99.5397 141.277 99.4416 143.13 99.7267 144.943C100.012 146.756 100.674 148.489 101.67 150.03C102.667 151.572 103.975 152.887 105.511 153.892C106.817 154.707 108.183 155.423 109.597 156.033Z" fill="#FAFAFA"/>
<path d="M35.3102 167.511L35.8805 165.858L36.9631 167.231C37.8337 168.313 38.9975 169.121 40.3154 169.559L41.9683 170.13L40.5947 171.212C39.519 172.088 38.7122 173.25 38.2667 174.564L37.708 176.252L36.544 174.89C35.6658 173.811 34.4992 173.004 33.1801 172.562L31.5388 171.992L32.9007 170.909C34.0136 170.031 34.8501 168.851 35.3102 167.511Z" fill="#807FDE"/>
<path d="M90.5536 102.571L90.8796 101.616L91.5081 102.408C92.0106 103.059 92.6893 103.552 93.4636 103.828L94.4181 104.154L93.6266 104.794C92.9876 105.296 92.5067 105.97 92.2414 106.738L91.9155 107.693L91.252 106.854C90.7533 106.215 90.0771 105.738 89.3082 105.481L88.342 105.143L89.1452 104.515C89.7904 104.014 90.279 103.34 90.5536 102.571Z" fill="#807FDE"/>
<path d="M24.1241 110.661L25.0786 107.879L26.9061 110.207C28.3619 112.048 30.318 113.43 32.5398 114.188L35.3102 115.142L32.9822 116.969C31.1408 118.428 29.7554 120.383 28.9896 122.603L28.0352 125.374L26.2193 123.046C24.7642 121.201 22.8082 119.815 20.5856 119.053L17.8152 118.099L20.1432 116.283C21.978 114.826 23.359 112.875 24.1241 110.661Z" fill="#807FDE"/>
<path d="M345.074 514.604L173.256 514.499C163.332 514.493 153.816 510.546 146.801 503.526C139.786 496.507 135.845 486.989 135.845 477.065L135.926 46.303C135.928 41.3861 136.898 36.5176 138.781 31.9757C140.665 27.4338 143.425 23.3074 146.903 19.8323C150.381 16.3571 154.51 13.6012 159.054 11.7221C163.598 9.84294 168.467 8.87732 173.384 8.88038L345.202 8.9735C355.126 8.97967 364.642 12.9264 371.657 19.946C378.672 26.9656 382.613 36.4836 382.613 46.4077L382.531 477.181C382.53 482.098 381.56 486.966 379.676 491.508C377.793 496.05 375.033 500.176 371.555 503.652C368.076 507.127 363.947 509.883 359.404 511.762C354.86 513.641 349.991 514.607 345.074 514.604Z" fill="#263238"/>
<path d="M345.004 24.2102H311.714C310.627 24.2329 309.556 24.4696 308.561 24.9067C307.566 25.3439 306.668 25.9729 305.916 26.7579C305.165 27.5428 304.576 28.4682 304.182 29.4811C303.789 30.494 303.599 31.5745 303.624 32.6609V38.6438C303.671 40.8369 302.845 42.9589 301.328 44.5435C299.811 46.1281 297.727 47.0456 295.534 47.0945H230.606C229.515 47.0763 228.438 46.8427 227.437 46.4072C226.436 45.9716 225.531 45.3426 224.774 44.5563C224.017 43.77 223.422 42.8419 223.025 41.8252C222.628 40.8086 222.435 39.7235 222.458 38.6322V32.6027C222.483 31.5158 222.293 30.4346 221.9 29.4211C221.507 28.4075 220.918 27.4813 220.166 26.6955C219.415 25.9096 218.516 25.2795 217.522 24.8411C216.527 24.4027 215.455 24.1646 214.368 24.1404H173.547C166.604 24.1373 159.943 26.8877 155.024 31.7885C150.106 36.6894 147.332 43.3406 147.31 50.2838L147.229 470.744C147.229 477.694 149.989 484.36 154.902 489.275C159.816 494.191 166.48 496.954 173.43 496.957L344.911 497.062C348.355 497.065 351.765 496.389 354.948 495.073C358.13 493.757 361.022 491.826 363.457 489.392C365.893 486.957 367.825 484.066 369.142 480.884C370.46 477.703 371.137 474.292 371.136 470.849L371.217 50.4002C371.211 43.4521 368.447 36.7906 363.531 31.8797C358.616 26.9688 351.952 24.2102 345.004 24.2102Z" fill="white"/>
<path d="M243.305 464.959C243.312 465.61 243.126 466.249 242.77 466.795C242.413 467.34 241.903 467.768 241.304 468.024C240.705 468.279 240.043 468.352 239.403 468.231C238.763 468.111 238.172 467.803 237.707 467.348C237.241 466.892 236.921 466.308 236.788 465.671C236.654 465.033 236.712 464.37 236.955 463.766C237.198 463.161 237.614 462.642 238.152 462.274C238.69 461.907 239.325 461.707 239.976 461.7C240.849 461.694 241.689 462.033 242.313 462.643C242.936 463.254 243.293 464.086 243.305 464.959Z" fill="#263238"/>
<path d="M261.743 464.808C261.75 465.46 261.563 466.099 261.207 466.645C260.85 467.19 260.339 467.618 259.739 467.873C259.139 468.129 258.477 468.2 257.837 468.079C257.196 467.958 256.606 467.649 256.141 467.192C255.675 466.735 255.356 466.151 255.224 465.512C255.091 464.874 255.151 464.211 255.396 463.606C255.641 463.002 256.059 462.484 256.598 462.117C257.138 461.751 257.774 461.553 258.426 461.548C259.297 461.542 260.136 461.882 260.758 462.493C261.38 463.104 261.734 463.936 261.743 464.808Z" fill="#263238"/>
<path d="M280.192 464.668C280.199 465.32 280.013 465.959 279.656 466.505C279.299 467.051 278.789 467.478 278.189 467.734C277.589 467.989 276.927 468.061 276.286 467.939C275.645 467.818 275.055 467.51 274.59 467.053C274.125 466.596 273.806 466.011 273.673 465.373C273.541 464.734 273.601 464.071 273.845 463.467C274.09 462.862 274.508 462.344 275.048 461.978C275.587 461.611 276.223 461.413 276.875 461.409C277.747 461.403 278.585 461.742 279.207 462.353C279.829 462.964 280.183 463.796 280.192 464.668Z" fill="#263238"/>
<path d="M346.028 66.673C346.028 66.7661 341.687 66.8825 336.344 66.929C331.001 66.9756 326.671 66.929 326.671 66.8243C326.671 66.7195 331.036 66.5798 336.344 66.5798C341.652 66.5798 346.017 66.5798 346.028 66.673Z" fill="#263238"/>
<path d="M346.063 71.6199C346.063 71.7246 341.733 71.841 336.39 71.8876C331.048 71.9342 326.706 71.8876 326.706 71.7828C326.706 71.6781 331.036 71.5617 336.39 71.5151C341.745 71.4686 346.063 71.5151 346.063 71.6199Z" fill="#263238"/>
<path d="M346.168 76.567C346.168 76.6717 341.826 76.7881 336.484 76.8347C331.141 76.8812 326.811 76.8347 326.811 76.7299C326.811 76.6252 331.141 76.5204 336.484 76.4738C341.826 76.4273 346.098 76.4738 346.168 76.567Z" fill="#263238"/>
<path d="M169.997 82.2241H170.392H171.556L175.7 82.1309L175.595 82.2357C175.595 81.3278 175.595 80.3267 175.595 79.2442C175.567 78.6703 175.567 78.0954 175.595 77.5215C175.656 77.1931 175.822 76.8932 176.067 76.6666C176.313 76.4401 176.625 76.299 176.957 76.2644C177.621 76.2644 178.214 76.2644 178.936 76.2644C179.311 76.3206 179.654 76.5106 179.9 76.7995C180.146 77.0883 180.279 77.4564 180.275 77.8358C180.275 79.2326 180.275 80.6992 180.275 82.2124L180.1 82.0378H185.315L185.14 82.2124C185.14 80.1172 185.14 77.9405 185.14 75.7173C185.14 75.1702 185.14 74.5533 185.14 74.0644C185.131 73.8249 185.059 73.592 184.931 73.3893C184.768 73.1849 184.589 72.9942 184.395 72.8189C183.627 72.0623 182.87 71.3057 182.067 70.5724L179.867 68.4074C179.518 68.0465 179.157 67.6973 178.808 67.3481C178.459 66.9989 178.156 66.6265 177.714 66.545C177.515 66.4967 177.307 66.4926 177.106 66.5328C176.905 66.573 176.715 66.6566 176.55 66.7778C176.236 67.0455 175.898 67.418 175.584 67.7323L173.71 69.6179C172.546 70.7819 171.312 71.9459 170.416 73.0168C170.157 73.634 170.068 74.3093 170.16 74.9723C170.16 75.6242 170.16 76.2295 170.16 76.8115C170.16 77.9755 170.16 78.9299 170.16 79.768C170.16 80.6061 170.16 81.1648 170.16 81.6653C170.16 82.1659 170.16 82.3405 170.16 82.3405C170.16 82.3405 170.16 82.1309 170.16 81.7119C170.16 81.2929 170.16 80.5479 170.16 79.8495C170.16 79.1511 170.16 78.0104 170.101 76.8697C170.101 76.276 170.101 75.7057 170.101 74.9956C170.101 74.6581 170.101 74.3205 170.101 73.9713C170.1 73.591 170.2 73.2172 170.392 72.8888C171.358 71.7248 172.511 70.6655 173.698 69.3968L175.549 67.4995C175.886 67.1735 176.166 66.836 176.55 66.4984C176.762 66.3399 177.007 66.2314 177.267 66.181C177.527 66.1306 177.795 66.1397 178.051 66.2074C178.537 66.3817 178.964 66.688 179.285 67.0921L180.356 68.1397L182.568 70.3047L184.896 72.5512C185.11 72.7412 185.305 72.9517 185.478 73.1798C185.641 73.4385 185.733 73.7355 185.745 74.0411C185.745 74.5999 185.745 75.2051 185.745 75.7057C185.745 77.9289 185.745 80.1056 185.745 82.2008V82.3754H185.559H180.345H180.182V82.2008C180.182 80.6876 180.182 79.2326 180.182 77.8358C180.186 77.5282 180.081 77.2291 179.884 76.9922C179.688 76.7554 179.414 76.5964 179.111 76.5437C178.505 76.5437 177.795 76.5437 177.213 76.5437C176.935 76.5656 176.671 76.6772 176.461 76.8619C176.251 77.0466 176.106 77.2944 176.049 77.5681C176.049 78.1035 176.049 78.7321 176.049 79.2326C176.049 80.3151 176.049 81.3161 176.049 82.2357V82.3405H175.945H171.743H170.404C170.264 82.3169 170.128 82.2779 169.997 82.2241Z" fill="#263238"/>
<path d="M214.019 182.049C214.019 186.088 210.993 188.602 206.15 188.602H202.507V193.584H198.34V175.484H206.174C210.993 175.484 214.019 177.998 214.019 182.049ZM209.77 182.049C209.77 180.058 208.478 178.894 205.918 178.894H202.507V185.18H205.918C208.478 185.18 209.77 184.016 209.77 182.049Z" fill="#263238"/>
<path d="M228.883 185.645V193.584H225.112V191.85C224.645 192.524 224.005 193.06 223.26 193.402C222.514 193.744 221.691 193.879 220.875 193.793C217.616 193.793 215.672 191.989 215.672 189.58C215.672 187.17 217.406 185.413 221.643 185.413H224.856C224.856 183.678 223.82 182.677 221.643 182.677C220.204 182.665 218.8 183.118 217.639 183.969L216.184 181.152C217.974 180.005 220.065 179.417 222.19 179.465C226.427 179.488 228.883 181.432 228.883 185.645ZM224.856 189.196V187.776H222.086C220.2 187.776 219.606 188.462 219.606 189.393C219.606 190.325 220.456 191.128 221.876 191.128C222.515 191.17 223.15 191.005 223.687 190.657C224.224 190.308 224.634 189.796 224.856 189.196Z" fill="#263238"/>
<path d="M231.188 192.292L232.538 189.394C233.998 190.27 235.667 190.737 237.369 190.744C239.231 190.744 239.93 190.255 239.93 189.475C239.93 187.147 231.526 189.475 231.526 183.969C231.526 181.327 233.854 179.465 237.963 179.465C239.82 179.428 241.659 179.848 243.317 180.687L241.978 183.55C240.752 182.864 239.368 182.507 237.963 182.514C236.158 182.514 235.379 183.085 235.379 183.818C235.379 186.146 243.783 183.888 243.783 189.37C243.783 191.954 241.373 193.793 237.218 193.793C235.11 193.837 233.029 193.318 231.188 192.292Z" fill="#263238"/>
<path d="M244.9 192.292L246.239 189.394C247.703 190.269 249.375 190.735 251.081 190.744C252.943 190.744 253.642 190.255 253.642 189.475C253.642 187.147 245.238 189.475 245.238 183.969C245.238 181.327 247.566 179.465 251.675 179.465C253.532 179.429 255.37 179.849 257.029 180.687L255.679 183.55C254.457 182.861 253.077 182.504 251.675 182.514C249.859 182.514 249.09 183.085 249.09 183.818C249.09 186.146 257.495 183.888 257.495 189.37C257.495 191.954 255.085 193.794 250.93 193.794C248.822 193.838 246.741 193.32 244.9 192.292Z" fill="#263238"/>
<path d="M282.078 179.674L277.038 193.642H273.162L270.031 185.005L266.795 193.642H262.919L257.902 179.674H261.708L264.991 189.091L268.401 179.674H271.812L275.129 189.091L278.516 179.674H282.078Z" fill="#263238"/>
<path d="M282.555 186.635C282.555 182.444 285.78 179.465 290.203 179.465C294.626 179.465 297.839 182.444 297.839 186.635C297.839 190.825 294.626 193.793 290.203 193.793C285.78 193.793 282.555 190.825 282.555 186.635ZM293.753 186.635C293.697 185.945 293.44 185.287 293.016 184.74C292.591 184.194 292.016 183.783 291.362 183.558C290.708 183.333 290.002 183.303 289.331 183.472C288.66 183.642 288.053 184.003 287.584 184.512C287.115 185.021 286.804 185.656 286.69 186.338C286.576 187.021 286.663 187.722 286.941 188.356C287.219 188.99 287.675 189.529 288.255 189.907C288.834 190.286 289.511 190.488 290.203 190.488C290.701 190.504 291.197 190.413 291.658 190.221C292.118 190.029 292.532 189.741 292.871 189.376C293.211 189.011 293.469 188.578 293.627 188.105C293.785 187.632 293.84 187.131 293.788 186.635H293.753Z" fill="#263238"/>
<path d="M309.164 179.488V183.213C308.827 183.213 308.571 183.213 308.257 183.213C306.033 183.213 304.555 184.377 304.555 187.089V193.654H300.528V179.686H304.38V181.525C304.953 180.823 305.688 180.271 306.521 179.916C307.354 179.561 308.262 179.414 309.164 179.488Z" fill="#263238"/>
<path d="M325.612 174.401V193.584H321.724V191.989C321.185 192.6 320.513 193.079 319.761 193.392C319.009 193.705 318.195 193.842 317.382 193.793C315.532 193.719 313.783 192.931 312.5 191.596C311.217 190.26 310.501 188.481 310.501 186.629C310.501 184.777 311.217 182.997 312.5 181.662C313.783 180.327 315.532 179.539 317.382 179.465C318.156 179.426 318.929 179.558 319.647 179.849C320.364 180.141 321.01 180.585 321.538 181.152V174.401H325.612ZM321.654 186.635C321.597 185.943 321.339 185.282 320.912 184.735C320.485 184.187 319.907 183.777 319.249 183.553C318.591 183.33 317.883 183.304 317.21 183.478C316.538 183.653 315.931 184.02 315.465 184.534C314.999 185.049 314.693 185.689 314.585 186.375C314.478 187.061 314.573 187.763 314.86 188.396C315.146 189.029 315.612 189.564 316.198 189.935C316.785 190.307 317.468 190.499 318.162 190.488C318.653 190.49 319.138 190.389 319.587 190.192C320.036 189.994 320.439 189.704 320.768 189.341C321.098 188.977 321.347 188.548 321.499 188.082C321.652 187.616 321.705 187.123 321.654 186.635Z" fill="#263238"/>
<path d="M356.644 208.588C356.644 208.751 313.576 208.89 260.393 208.89C207.21 208.89 164.118 208.751 164.118 208.588C164.118 208.425 207.186 208.285 260.393 208.285C313.599 208.285 356.644 208.39 356.644 208.588Z" fill="#E0E0E0"/>
<path d="M352.163 385.784C352.163 385.958 309.095 386.086 255.9 386.086C202.705 386.086 159.637 385.958 159.637 385.784C159.637 385.609 202.705 385.481 255.9 385.481C309.095 385.481 352.163 385.621 352.163 385.784Z" fill="#E0E0E0"/>
<path d="M308.617 399.1C308.617 399.263 284.674 399.403 255.143 399.403C225.613 399.403 201.669 399.263 201.669 399.1C201.669 398.937 225.601 398.797 255.143 398.797C284.686 398.797 308.617 398.925 308.617 399.1Z" fill="#E0E0E0"/>
<path d="M181.462 260.153L185.105 262.12L183.464 264.867L179.786 262.69L179.856 266.741H176.713V262.656L173.023 264.867L171.452 262.132L175.06 260.153L171.405 258.139L173.011 255.404L176.701 257.604V253.53H179.844L179.774 257.604L183.452 255.404L185.094 258.139L181.462 260.153Z" fill="#807FDE"/>
<path d="M223.273 260.153L226.916 262.12L225.275 264.867L221.62 262.69V266.788H218.466V262.702L214.787 264.914L213.262 262.132L216.964 260.153L213.321 258.139L214.927 255.404L218.605 257.604V253.53H221.62L221.55 257.604L225.228 255.404L226.87 258.139L223.273 260.153Z" fill="#807FDE"/>
<path d="M263.966 260.153L267.61 262.12L265.968 264.867L262.29 262.691L262.36 266.788H259.217V262.702L255.527 264.914L253.956 262.132L257.611 260.165L253.956 258.151L255.562 255.416L259.252 257.616V253.542H262.36L262.29 257.616L265.968 255.416L267.61 258.151L263.966 260.153Z" fill="#807FDE"/>
<path d="M303.391 260.153L307.034 262.12L305.428 264.867L301.75 262.691L301.82 266.741H298.677V262.656L294.999 264.867L293.381 262.132L297.036 260.165L293.381 258.151L294.987 255.416L298.665 257.616V253.542H301.808L301.738 257.616L305.416 255.416L307.058 258.151L303.391 260.153Z" fill="#807FDE"/>
<path d="M342.501 260.153L346.168 262.132L344.527 264.879L340.849 262.702L340.907 266.753H337.764V262.667L334.086 264.879L332.503 262.132L336.146 260.165L332.503 258.151L334.109 255.416L337.787 257.616V253.542H340.93L340.872 257.616L344.55 255.416L346.191 258.151L342.501 260.153Z" fill="#807FDE"/>
<path d="M187.946 285.505H170.311C168.129 285.502 166.038 284.634 164.495 283.091C162.953 281.549 162.085 279.457 162.081 277.276V245.964C162.085 243.783 162.953 241.693 164.496 240.152C166.039 238.612 168.13 237.746 170.311 237.746H187.946C190.126 237.746 192.218 238.612 193.761 240.152C195.304 241.693 196.172 243.783 196.175 245.964V277.264C196.175 279.448 195.308 281.542 193.765 283.087C192.222 284.632 190.129 285.502 187.946 285.505ZM170.311 238.328C168.285 238.328 166.341 239.132 164.907 240.564C163.474 241.996 162.667 243.938 162.663 245.964V277.264C162.666 279.291 163.473 281.235 164.907 282.668C166.34 284.102 168.284 284.908 170.311 284.911H187.946C189.974 284.911 191.919 284.106 193.353 282.671C194.787 281.237 195.593 279.292 195.593 277.264V245.952C195.59 243.926 194.783 241.984 193.349 240.552C191.915 239.121 189.972 238.316 187.946 238.316L170.311 238.328Z" fill="#263238"/>
<path d="M228.907 285.505H211.272C210.187 285.509 209.111 285.3 208.108 284.888C207.104 284.476 206.191 283.869 205.422 283.104C204.653 282.338 204.043 281.428 203.627 280.426C203.21 279.423 202.996 278.349 202.996 277.264V245.952C202.999 243.772 203.867 241.681 205.41 240.141C206.953 238.6 209.045 237.734 211.225 237.734H228.86C231.041 237.734 233.132 238.6 234.675 240.141C236.218 241.681 237.086 243.772 237.09 245.952V277.264C237.09 279.439 236.229 281.527 234.696 283.071C233.163 284.614 231.082 285.49 228.907 285.505ZM211.272 238.328C209.246 238.328 207.302 239.132 205.869 240.564C204.435 241.995 203.628 243.938 203.625 245.964V277.264C203.628 279.291 204.434 281.234 205.868 282.668C207.301 284.101 209.245 284.908 211.272 284.911H228.907C230.935 284.911 232.88 284.106 234.314 282.671C235.748 281.237 236.554 279.292 236.554 277.264V245.952C236.551 243.926 235.744 241.984 234.31 240.552C232.876 239.12 230.933 238.316 228.907 238.316L211.272 238.328Z" fill="#263238"/>
<path d="M268.75 285.505H251.104C248.922 285.502 246.831 284.634 245.288 283.091C243.746 281.549 242.878 279.457 242.875 277.276V245.964C242.878 243.783 243.746 241.693 245.289 240.152C246.832 238.612 248.924 237.746 251.104 237.746H268.75C270.929 237.749 273.017 238.616 274.558 240.156C276.098 241.697 276.965 243.785 276.968 245.964V277.264C276.97 278.345 276.758 279.415 276.346 280.414C275.934 281.413 275.329 282.321 274.566 283.086C273.803 283.852 272.897 284.459 271.899 284.874C270.901 285.289 269.831 285.503 268.75 285.505ZM251.104 238.328C249.078 238.328 247.134 239.132 245.701 240.564C244.267 241.996 243.46 243.938 243.457 245.964V277.264C243.46 279.291 244.266 281.235 245.7 282.668C247.133 284.102 249.077 284.908 251.104 284.911H268.75C270.777 284.908 272.719 284.101 274.15 282.667C275.582 281.234 276.386 279.29 276.386 277.264V245.952C276.386 243.927 275.582 241.985 274.15 240.553C272.718 239.121 270.776 238.316 268.75 238.316L251.104 238.328Z" fill="#263238"/>
<path d="M309.036 285.505H291.39C289.208 285.502 287.117 284.634 285.574 283.091C284.032 281.549 283.164 279.457 283.161 277.276V245.964C283.164 243.783 284.032 241.693 285.575 240.152C287.118 238.612 289.21 237.746 291.39 237.746H309.036C311.215 237.749 313.303 238.616 314.844 240.156C316.384 241.697 317.251 243.785 317.254 245.964V277.264C317.256 278.345 317.044 279.415 316.632 280.414C316.22 281.413 315.615 282.321 314.852 283.086C314.089 283.852 313.183 284.459 312.185 284.874C311.187 285.289 310.117 285.503 309.036 285.505ZM291.39 238.328C289.364 238.328 287.421 239.132 285.987 240.564C284.553 241.996 283.746 243.938 283.743 245.964V277.264C283.746 279.291 284.552 281.235 285.986 282.668C287.419 284.102 289.363 284.908 291.39 284.911H309.036C311.063 284.908 313.005 284.101 314.436 282.667C315.868 281.234 316.672 279.29 316.672 277.264V245.952C316.672 243.927 315.868 241.985 314.436 240.553C313.004 239.121 311.062 238.316 309.036 238.316L291.39 238.328Z" fill="#263238"/>
<path d="M348.147 285.505H330.512C328.331 285.502 326.239 284.634 324.696 283.091C323.154 281.549 322.286 279.457 322.283 277.276V245.964C322.286 243.783 323.154 241.693 324.697 240.152C326.24 238.612 328.332 237.746 330.512 237.746H348.147C350.327 237.746 352.419 238.612 353.962 240.152C355.505 241.693 356.373 243.783 356.376 245.964V277.264C356.376 279.448 355.51 281.542 353.967 283.087C352.424 284.632 350.33 285.502 348.147 285.505ZM330.512 238.328C328.486 238.328 326.543 239.132 325.109 240.564C323.675 241.996 322.868 243.938 322.865 245.964V277.264C322.865 279.292 323.67 281.237 325.105 282.671C326.539 284.106 328.484 284.911 330.512 284.911H348.147C350.174 284.908 352.117 284.102 353.551 282.668C354.985 281.235 355.791 279.291 355.794 277.264V245.952C355.791 243.926 354.984 241.984 353.55 240.552C352.116 239.121 350.173 238.316 348.147 238.316L330.512 238.328Z" fill="#263238"/>
<path d="M346.855 323.312H175.502C168.244 323.312 162.361 329.195 162.361 336.453V344.787C162.361 352.045 168.244 357.929 175.502 357.929H346.855C354.113 357.929 359.996 352.045 359.996 344.787V336.453C359.996 329.195 354.113 323.312 346.855 323.312Z" fill="#807FDE"/>
<path d="M236.228 333.66H241.548C245.377 333.66 248.008 335.988 248.008 339.48C248.008 342.972 245.377 345.3 241.548 345.3H236.228V333.66ZM241.408 343.146C242.371 343.146 243.295 342.764 243.976 342.083C244.657 341.401 245.04 340.478 245.04 339.515C245.04 338.551 244.657 337.628 243.976 336.947C243.295 336.266 242.371 335.883 241.408 335.883H238.929V343.146H241.408Z" fill="white"/>
<path d="M249.195 340.877C249.135 339.885 249.373 338.898 249.88 338.044C250.386 337.19 251.138 336.508 252.037 336.085C252.936 335.663 253.941 335.521 254.922 335.677C255.903 335.832 256.815 336.279 257.539 336.959C258.263 337.639 258.766 338.521 258.983 339.49C259.2 340.459 259.121 341.471 258.757 342.395C258.392 343.319 257.758 344.112 256.937 344.671C256.117 345.231 255.147 345.531 254.154 345.533C253.517 345.574 252.879 345.484 252.279 345.269C251.679 345.054 251.129 344.717 250.664 344.281C250.199 343.844 249.829 343.317 249.576 342.731C249.323 342.146 249.194 341.514 249.195 340.877ZM256.447 340.877C256.447 340.259 256.202 339.667 255.765 339.23C255.328 338.794 254.736 338.549 254.119 338.549C253.501 338.549 252.909 338.794 252.473 339.23C252.036 339.667 251.791 340.259 251.791 340.877C251.791 341.494 252.036 342.086 252.473 342.523C252.909 342.959 253.501 343.205 254.119 343.205C254.736 343.205 255.328 342.959 255.765 342.523C256.202 342.086 256.447 341.494 256.447 340.877Z" fill="white"/>
<path d="M270.031 340.225V345.37H267.423V340.621C267.423 339.166 266.748 338.502 265.596 338.502C264.444 338.502 263.443 339.27 263.443 340.923V345.37H260.835V336.372H263.326V337.431C263.714 337.04 264.18 336.734 264.693 336.534C265.206 336.333 265.756 336.242 266.306 336.267C268.424 336.244 270.031 337.478 270.031 340.225Z" fill="white"/>
<path d="M281.263 341.61H274.454C274.596 342.169 274.934 342.658 275.406 342.989C275.878 343.32 276.453 343.471 277.026 343.414C277.443 343.433 277.858 343.365 278.247 343.214C278.636 343.064 278.989 342.835 279.285 342.541L280.681 344.054C280.206 344.554 279.628 344.942 278.986 345.194C278.345 345.445 277.656 345.553 276.968 345.509C273.849 345.509 271.823 343.554 271.823 340.853C271.811 340.226 271.929 339.602 272.168 339.022C272.407 338.442 272.764 337.917 273.214 337.48C273.665 337.043 274.201 336.704 274.789 336.483C275.377 336.263 276.004 336.165 276.631 336.197C277.25 336.167 277.869 336.267 278.447 336.491C279.026 336.714 279.551 337.056 279.989 337.495C280.428 337.933 280.77 338.458 280.993 339.037C281.217 339.615 281.317 340.234 281.287 340.853C281.31 341.109 281.275 341.389 281.263 341.61ZM274.419 340.12H278.854C278.768 339.594 278.498 339.115 278.092 338.769C277.686 338.424 277.17 338.234 276.636 338.234C276.103 338.234 275.587 338.424 275.181 338.769C274.775 339.115 274.505 339.594 274.419 340.12Z" fill="white"/>
<path d="M259.229 158.035C278.547 158.035 294.207 142.375 294.207 123.057C294.207 103.739 278.547 88.0789 259.229 88.0789C239.911 88.0789 224.251 103.739 224.251 123.057C224.251 142.375 239.911 158.035 259.229 158.035Z" fill="#807FDE"/>
<path d="M253.048 116.69H252.466V113.431C252.466 111.622 253.185 109.887 254.464 108.608C255.743 107.329 257.478 106.61 259.287 106.61C261.096 106.61 262.831 107.329 264.11 108.608C265.389 109.887 266.108 111.622 266.108 113.431V116.085H265.526V113.431C265.526 111.776 264.869 110.189 263.699 109.019C262.529 107.849 260.942 107.192 259.287 107.192C257.632 107.192 256.045 107.849 254.875 109.019C253.705 110.189 253.048 111.776 253.048 113.431V116.69Z" fill="white"/>
<path d="M267.901 139.505H250.557C249.795 139.501 249.066 139.198 248.527 138.659C247.989 138.121 247.685 137.391 247.682 136.629V119.274C247.685 118.513 247.989 117.783 248.527 117.245C249.066 116.706 249.795 116.402 250.557 116.399H267.901C268.662 116.402 269.392 116.706 269.93 117.245C270.469 117.783 270.773 118.513 270.776 119.274V136.629C270.773 137.391 270.469 138.121 269.93 138.659C269.392 139.198 268.662 139.501 267.901 139.505ZM250.557 116.981C249.94 116.981 249.347 117.226 248.911 117.663C248.474 118.1 248.229 118.692 248.229 119.309V136.664C248.229 137.282 248.474 137.874 248.911 138.311C249.347 138.747 249.94 138.992 250.557 138.992H267.901C268.518 138.992 269.11 138.747 269.547 138.311C269.983 137.874 270.229 137.282 270.229 136.664V119.274C270.229 118.657 269.983 118.065 269.547 117.628C269.11 117.192 268.518 116.946 267.901 116.946L250.557 116.981Z" fill="white"/>
<path d="M259.31 128.516C258.772 128.516 258.245 128.357 257.797 128.057C257.349 127.758 257 127.333 256.794 126.835C256.588 126.337 256.534 125.79 256.639 125.261C256.744 124.733 257.003 124.248 257.384 123.867C257.765 123.486 258.251 123.226 258.779 123.121C259.307 123.016 259.855 123.07 260.353 123.276C260.85 123.482 261.276 123.831 261.575 124.279C261.874 124.727 262.034 125.254 262.034 125.793C262.034 126.515 261.747 127.208 261.236 127.719C260.726 128.229 260.033 128.516 259.31 128.516ZM259.31 123.662C258.886 123.662 258.472 123.788 258.119 124.024C257.767 124.26 257.492 124.595 257.33 124.987C257.169 125.379 257.127 125.811 257.211 126.226C257.294 126.642 257.499 127.024 257.8 127.323C258.101 127.622 258.483 127.825 258.9 127.906C259.316 127.988 259.747 127.944 260.138 127.78C260.529 127.616 260.863 127.339 261.097 126.986C261.331 126.632 261.454 126.217 261.452 125.793C261.457 125.508 261.405 125.226 261.299 124.962C261.194 124.698 261.037 124.458 260.837 124.256C260.638 124.053 260.4 123.892 260.138 123.782C259.876 123.672 259.595 123.616 259.31 123.616V123.662Z" fill="white"/>
<path d="M259.52 128.109H258.938V133.021H259.52V128.109Z" fill="white"/>
<path d="M502.505 490.008L480.54 439.339L455.34 455.519L482.065 501.835L495.463 495.828L502.505 490.008Z" fill="#FFBE9D"/>
<path d="M502.016 487.18L502.738 488.623C502.738 488.623 532.012 486.12 534.608 490.614L486.139 514.72L478.771 498.261C487.641 498.028 495.37 494.653 502.016 487.18Z" fill="#807FDE"/>
<g opacity="0.6">
<path opacity="0.6" d="M486.244 500.996C485.848 501.369 485.604 501.874 485.559 502.416C485.514 502.958 485.671 503.497 485.999 503.93C486.357 504.339 486.859 504.596 487.401 504.646C487.943 504.695 488.483 504.535 488.909 504.197C489.327 503.801 489.584 503.264 489.629 502.69C489.674 502.116 489.505 501.546 489.154 501.089C488.742 500.695 488.194 500.474 487.623 500.474C487.053 500.474 486.504 500.695 486.093 501.089" fill="white"/>
</g>
<g opacity="0.6">
<path opacity="0.6" d="M486.139 514.72L484.37 510.763L531.465 489.112C531.465 489.112 534.096 488.984 534.608 490.625L486.139 514.72Z" fill="white"/>
</g>
<path d="M502.982 488.67C503.087 488.914 501.958 489.601 501.178 490.998C500.398 492.395 500.258 493.64 500.014 493.652C499.769 493.663 499.42 492.127 500.398 490.521C501.376 488.914 502.924 488.425 502.982 488.67Z" fill="#263238"/>
<path d="M509.128 488.239C509.303 488.448 508.476 489.403 508.173 490.753C507.871 492.103 508.173 493.337 507.917 493.442C507.661 493.547 506.858 492.278 507.277 490.544C507.696 488.809 508.988 488.018 509.128 488.239Z" fill="#263238"/>
<path d="M515.029 492.883C514.832 493.046 513.865 492.022 513.865 490.427C513.865 488.833 514.68 487.762 514.878 487.913C515.076 488.064 514.738 489.077 514.785 490.404C514.832 491.731 515.251 492.744 515.029 492.883Z" fill="#263238"/>
<path d="M461.195 498.808L462.033 443.576L432.409 447.953L437.693 501.171L452.383 501.206L461.195 498.808Z" fill="#FFBE9D"/>
<path d="M461.905 496.026L461.986 497.633C461.986 497.633 489.689 507.41 490.201 512.567L436.099 514.592L436.157 496.562C444.34 499.984 452.779 500.089 461.905 496.026Z" fill="#807FDE"/>
<g opacity="0.6">
<path opacity="0.6" d="M441.849 502.114C441.335 502.294 440.906 502.657 440.642 503.134C440.378 503.61 440.298 504.167 440.417 504.698C440.577 505.219 440.93 505.659 441.404 505.927C441.878 506.196 442.437 506.272 442.966 506.141C443.513 505.952 443.97 505.566 444.248 505.058C444.525 504.55 444.604 503.957 444.468 503.394C444.239 502.874 443.819 502.462 443.294 502.245C442.769 502.028 442.18 502.023 441.651 502.23" fill="white"/>
</g>
<g opacity="0.6">
<path opacity="0.6" d="M436.099 514.592V510.262L487.943 509.901C487.943 509.901 490.399 510.855 490.19 512.566L436.099 514.592Z" fill="white"/>
</g>
<path d="M462.172 497.772C462.172 498.04 460.857 498.214 459.588 499.111C458.319 500.007 457.679 501.136 457.423 501.043C457.167 500.95 457.516 499.413 459.064 498.354C460.612 497.295 462.219 497.528 462.172 497.772Z" fill="#263238"/>
<path d="M467.934 499.914C468.004 500.158 466.887 500.659 466.025 501.811C465.164 502.963 464.954 504.139 464.687 504.139C464.419 504.139 464.209 502.649 465.292 501.229C466.374 499.809 467.922 499.658 467.934 499.914Z" fill="#263238"/>
<path d="M471.414 506.572C471.182 506.63 470.763 505.327 471.414 503.86C472.066 502.393 473.254 501.765 473.382 501.974C473.51 502.184 472.765 502.999 472.218 504.209C471.671 505.42 471.682 506.572 471.414 506.572Z" fill="#263238"/>
<path d="M439.882 273.644L438.776 230.157L396.453 232.38L395.056 237.525C392.781 245.491 390.931 253.573 389.515 261.736C386.675 279.953 387.013 296.528 394.171 316.002C401.33 335.476 412.516 372.503 412.516 372.503L454.502 488.472L503.39 472.397L439.882 273.644Z" fill="#263238"/>
<path d="M465.478 228.749L469.168 240.796C474.592 244.288 483.357 261.399 484.16 268.406C484.963 275.413 486.488 299.403 484.894 327.526C483.532 350.654 472.09 486.027 472.09 486.027L425.832 488.472L430.651 269.57L432.688 230.483L465.478 228.749Z" fill="#263238"/>
<path d="M386.21 265.74C386.725 265.959 387.264 266.12 387.816 266.218C389.297 266.548 390.804 266.75 392.321 266.823C397.371 267.095 402.406 266.06 406.939 263.817C411.472 261.574 415.349 258.199 418.196 254.019C419.062 252.77 419.814 251.445 420.443 250.061C420.702 249.567 420.902 249.043 421.036 248.502C420.92 248.443 420.047 250.678 417.824 253.763C414.931 257.789 411.097 261.045 406.655 263.247C402.213 265.449 397.3 266.529 392.344 266.392C390.289 266.279 388.242 266.061 386.21 265.74Z" fill="#455A64"/>
<path d="M463.732 242.484C463.765 242.834 463.855 243.176 464 243.496C464.301 244.387 464.658 245.258 465.071 246.104C467.771 251.764 471.995 256.561 477.269 259.955C478.059 260.467 478.879 260.93 479.725 261.34C480.026 261.52 480.351 261.653 480.692 261.736C480.75 261.631 479.458 260.933 477.525 259.571C472.474 256.045 468.343 251.359 465.478 245.906C464.349 243.822 463.814 242.449 463.732 242.484Z" fill="#455A64"/>
<path d="M441.93 279.452C441.93 279.452 442.047 279.743 442.245 280.349L443.094 283.014C443.839 285.342 444.922 288.834 446.307 293.269C449.077 302.209 453.081 315.106 458.028 331.041C468.062 362.888 480.808 407.248 497.895 455.263C499.851 461.013 501.791 466.69 503.715 472.292L503.809 472.595L503.518 472.688L454.63 488.74L454.362 488.833L454.269 488.565L426.158 410.577L418.161 388.24C417.242 385.656 416.543 383.654 416.055 382.292C415.822 381.624 415.647 381.112 415.531 380.755L415.356 380.231C415.356 380.231 415.438 380.394 415.566 380.744C415.694 381.093 415.892 381.605 416.148 382.257L418.336 388.17C420.233 393.373 422.992 400.974 426.484 410.461L454.793 488.332L454.443 488.158L503.331 472.071L503.133 472.455C501.224 466.853 499.285 461.176 497.313 455.426C480.226 407.399 467.55 363.028 457.621 331.146C452.756 315.176 448.821 302.255 446.086 293.316C444.747 288.846 443.7 285.389 442.99 283.014C442.64 281.85 442.373 280.954 442.198 280.337C442.023 279.72 441.93 279.452 441.93 279.452Z" fill="#455A64"/>
<path d="M483.52 153.24C483.52 153.24 481.308 140.866 474.965 134.942C468.621 129.017 442.186 122.312 442.186 122.312C442.186 122.312 442.501 131.496 436.588 133.952C430.325 136.571 424.063 135.687 419.128 130.46C416.154 127.212 414.08 123.244 413.11 118.948C413.11 118.948 381.775 123.523 377.317 132.02C372.859 140.517 368.191 172.76 368.191 172.76L396.581 177.241L395.661 232.392L470.274 228.469L466.06 177.009L486.523 178.836L483.52 153.24Z" fill="#455A64"/>
<path d="M402.238 178.789C402.283 178.379 402.283 177.966 402.238 177.556C402.238 176.752 402.168 175.6 402.087 174.168C401.935 171.328 401.691 167.394 401.365 163.052C401.039 158.711 400.725 154.776 400.457 151.936C400.317 150.516 400.201 149.364 400.108 148.572C400.089 148.157 400.015 147.746 399.887 147.35C399.827 147.759 399.827 148.175 399.887 148.584C399.887 149.387 399.956 150.539 400.038 151.959C400.189 154.811 400.434 158.745 400.76 163.087C401.086 167.429 401.4 171.363 401.668 174.203C401.796 175.623 401.924 176.776 402.017 177.567C402.028 177.984 402.102 178.396 402.238 178.789Z" fill="#263238"/>
<path d="M471.717 152.448C471.542 152.448 470.087 158.07 468.458 165.101C467.368 169.322 466.49 173.596 465.827 177.905C467.126 173.745 468.214 169.522 469.086 165.252C470.176 161.031 471.054 156.757 471.717 152.448Z" fill="#263238"/>
<path d="M380.32 129.925C380.32 130.041 381.67 130.216 383.812 130.891C386.529 131.774 389.073 133.121 391.331 134.872C393.575 136.643 395.5 138.785 397.023 141.204C398.187 143.078 398.676 144.359 398.792 144.312C398.752 143.99 398.661 143.675 398.525 143.381C398.222 142.549 397.853 141.743 397.419 140.971C394.489 135.833 389.642 132.066 383.94 130.495C383.091 130.253 382.222 130.085 381.344 129.995C381.01 129.908 380.663 129.884 380.32 129.925Z" fill="#263238"/>
<path d="M475.558 137.433C474.964 138.678 474.571 140.01 474.394 141.379C474.022 142.699 473.861 144.07 473.917 145.441C474.486 144.194 474.859 142.867 475.023 141.507C475.415 140.185 475.595 138.81 475.558 137.433Z" fill="#263238"/>
<path d="M373.219 173.586C373.219 173.586 383.882 215.851 385.034 219.46C386.186 223.068 388.258 232.822 398.548 234.312C412.446 236.338 466.339 231.577 466.339 231.577L455.479 219.215L407.534 208.46L399.386 177.73L373.219 173.586Z" fill="#FFBE9D"/>
<path d="M455.991 211.964C455.809 212.275 455.69 212.619 455.642 212.976C455.407 213.918 455.275 214.882 455.246 215.851C455.129 219.088 455.971 222.288 457.668 225.047C458.574 226.57 459.691 227.957 460.985 229.168C462.059 230.156 463.328 230.91 464.71 231.379C465.64 231.678 466.608 231.843 467.585 231.868C467.941 231.908 468.301 231.876 468.644 231.775C467.364 231.616 466.102 231.339 464.873 230.949C463.572 230.447 462.385 229.691 461.381 228.725C460.16 227.526 459.096 226.177 458.215 224.709C456.592 222.038 455.723 218.977 455.7 215.851C455.689 213.454 456.108 211.987 455.991 211.964Z" fill="#EB996E"/>
<path d="M401.9 168.512C401.47 168.514 401.041 168.471 400.62 168.383L397.128 167.883C394.218 167.464 390.144 166.987 385.732 166.405C381.919 165.941 378.131 165.284 374.383 164.438C372.952 164.088 371.799 163.774 371.019 163.518C370.616 163.416 370.225 163.267 369.855 163.076C369.855 162.971 371.648 163.436 374.511 164.007C377.375 164.577 381.402 165.171 385.849 165.788C390.295 166.405 394.334 166.952 397.233 167.441C398.688 167.708 399.852 167.953 400.655 168.151C401.085 168.21 401.505 168.332 401.9 168.512Z" fill="#807FDE"/>
<path d="M399.712 154.439C399.351 154.504 398.984 154.524 398.618 154.497C397.908 154.497 396.884 154.497 395.615 154.404C393.089 154.276 389.597 153.996 385.756 153.519C381.914 153.042 378.457 152.448 375.978 151.948C374.733 151.692 373.732 151.47 373.045 151.296C372.68 151.248 372.325 151.137 371.997 150.97C373.363 151.056 374.72 151.239 376.06 151.517C378.55 151.901 382.008 152.425 385.826 152.902C389.643 153.379 393.124 153.729 395.65 153.961C397.014 154.022 398.371 154.181 399.712 154.439Z" fill="#807FDE"/>
<path d="M397.279 143.73C396.177 143.857 395.064 143.857 393.962 143.73C388.631 143.365 383.361 142.377 378.26 140.785C377.185 140.51 376.143 140.12 375.152 139.621C376.246 139.783 377.324 140.036 378.376 140.378C380.343 140.89 383.09 141.542 386.14 142.124C389.189 142.706 391.96 143.067 394.008 143.288C395.109 143.349 396.202 143.496 397.279 143.73Z" fill="#807FDE"/>
<path d="M417.172 128.47C415.958 128.963 414.704 129.353 413.424 129.634C411.096 130.239 407.848 130.984 404.252 131.706C400.655 132.427 397.361 132.974 394.94 133.324C393.658 133.573 392.357 133.71 391.052 133.731C392.299 133.361 393.571 133.081 394.858 132.893L404.077 131.1L413.284 129.203C414.559 128.857 415.859 128.612 417.172 128.47Z" fill="#807FDE"/>
<path d="M475.011 141.076C474.553 140.969 474.108 140.813 473.684 140.61L470.122 139.144C467.131 137.91 462.987 136.199 458.378 134.395C453.768 132.59 449.566 131.042 446.516 129.925L442.92 128.598C442.464 128.461 442.026 128.27 441.616 128.028C442.085 128.09 442.545 128.203 442.989 128.365C443.874 128.61 445.12 129.005 446.668 129.529C449.752 130.542 453.989 132.032 458.61 133.836C463.231 135.64 467.352 137.409 470.25 138.76C471.729 139.435 472.916 139.993 473.742 140.401C474.19 140.576 474.616 140.803 475.011 141.076Z" fill="#807FDE"/>
<path d="M471.717 151.924C471.474 151.924 471.232 151.896 470.995 151.843L468.923 151.517L461.357 150.19C454.967 149.026 446.132 147.525 436.308 146.337C431.396 145.767 426.705 145.36 422.422 145.103C418.138 144.847 414.274 144.789 411.049 144.847C409.431 144.847 407.965 144.917 406.673 144.952C405.381 144.987 404.287 145.034 403.379 145.103L401.295 145.208C401.051 145.236 400.805 145.236 400.562 145.208C400.797 145.143 401.039 145.104 401.283 145.092L403.355 144.871C404.263 144.766 405.369 144.673 406.661 144.615C407.953 144.556 409.42 144.428 411.038 144.417C414.285 144.312 418.161 144.359 422.457 144.545C426.752 144.731 431.454 145.162 436.425 145.709C446.26 146.873 455.049 148.514 461.474 149.748C464.652 150.365 467.294 150.912 469.005 151.261L471.054 151.715C471.283 151.757 471.506 151.827 471.717 151.924Z" fill="#807FDE"/>
<path d="M441.616 170.944C441.086 170.993 440.552 170.993 440.021 170.944C438.985 170.886 437.507 170.758 435.668 170.572C432.013 170.188 426.961 169.524 421.432 168.512C415.903 167.499 410.956 166.347 407.383 165.415C405.602 164.938 404.17 164.542 403.192 164.251C402.673 164.123 402.167 163.948 401.679 163.728C402.212 163.764 402.74 163.862 403.251 164.019L407.488 165.008C411.073 165.834 416.031 166.917 421.549 167.93C427.066 168.942 432.083 169.664 435.726 170.153L440.045 170.735C440.574 170.749 441.101 170.819 441.616 170.944Z" fill="#807FDE"/>
<path d="M466.933 171.34C462.997 171.682 459.046 171.822 455.095 171.759C451.152 171.892 447.205 171.826 443.269 171.561C447.201 171.211 451.148 171.072 455.095 171.142C459.042 170.995 462.993 171.061 466.933 171.34Z" fill="#807FDE"/>
<path d="M433.678 188.055C433.246 188.095 432.812 188.075 432.386 187.997C431.571 187.927 430.372 187.776 428.894 187.566C425.96 187.147 421.91 186.402 417.521 185.413C413.133 184.423 409.187 183.224 406.382 182.305C404.973 181.839 403.844 181.443 403.064 181.141C402.658 181.015 402.267 180.843 401.9 180.629C402.33 180.664 402.753 180.758 403.157 180.908L406.521 181.886C409.35 182.701 413.284 183.771 417.673 184.807C422.061 185.843 426.065 186.612 428.975 187.135L432.467 187.764C432.881 187.811 433.288 187.909 433.678 188.055Z" fill="#807FDE"/>
<path d="M461.09 189.266C459.843 189.39 458.588 189.39 457.342 189.266C455.014 189.184 451.836 188.951 448.332 188.497C444.829 188.043 441.674 187.45 439.416 186.949C438.183 186.736 436.974 186.401 435.808 185.948C437.054 186.043 438.292 186.234 439.509 186.519C441.779 186.914 444.922 187.427 448.414 187.88C451.906 188.334 455.072 188.637 457.365 188.835C458.615 188.89 459.86 189.034 461.09 189.266Z" fill="#807FDE"/>
<path d="M455.375 204.468C455.228 204.56 455.066 204.626 454.897 204.665C454.583 204.759 454.117 204.922 453.5 205.084C451.777 205.549 450.028 205.91 448.262 206.167C442.423 206.98 436.503 207.031 430.651 206.318C424.81 205.612 419.02 204.528 413.319 203.071C411.131 202.535 409.373 202.07 408.151 201.732C407.509 201.598 406.882 201.403 406.277 201.15C406.928 201.222 407.574 201.339 408.209 201.499L413.424 202.663C419.128 203.984 424.898 205.006 430.709 205.725C436.509 206.408 442.369 206.408 448.169 205.725C450.393 205.445 452.185 205.108 453.419 204.84C454.061 204.668 454.714 204.544 455.375 204.468Z" fill="#807FDE"/>
<path d="M482.275 160.783C480.323 161.099 478.35 161.259 476.373 161.26C474.396 161.47 472.401 161.423 470.437 161.12C472.388 160.804 474.361 160.644 476.338 160.643C478.315 160.433 480.31 160.48 482.275 160.783Z" fill="#807FDE"/>
<path d="M480.703 146.605C478.551 146.885 476.364 146.743 474.266 146.186C476.419 145.921 478.603 146.063 480.703 146.605Z" fill="#807FDE"/>
<path d="M431.419 189.068C431.361 188.963 432.642 188.323 434.388 186.879C435.396 186.028 436.324 185.085 437.158 184.063C439.192 181.536 440.622 178.578 441.337 175.414C441.619 174.121 441.779 172.803 441.814 171.48C441.872 169.222 441.569 167.825 441.686 167.802C441.831 168.106 441.925 168.433 441.965 168.768C442.056 169.15 442.118 169.54 442.151 169.932C442.213 170.445 442.248 170.962 442.256 171.48C442.283 172.839 442.162 174.197 441.895 175.53C441.224 178.805 439.747 181.861 437.6 184.423C436.725 185.464 435.737 186.405 434.655 187.229C434.247 187.549 433.819 187.845 433.375 188.113C433.048 188.328 432.705 188.519 432.351 188.684C432.064 188.863 431.749 188.993 431.419 189.068Z" fill="#263238"/>
<g opacity="0.3">
<path opacity="0.3" d="M441.395 177.73L436.867 184.458C433.805 188.287 429.525 190.953 424.738 192.013C426.836 192.748 429.09 192.919 431.274 192.509C433.459 192.098 435.497 191.121 437.184 189.674C438.872 188.227 440.149 186.362 440.888 184.265C441.627 182.169 441.802 179.915 441.395 177.73Z" fill="black"/>
</g>
<path d="M454.816 107.599C459.137 107.977 463.474 107.096 467.305 105.062C461.672 101.57 458.122 95.4472 456.399 89.0568C454.676 82.6665 452.464 71.7714 452.406 65.1599L442.093 110.987C447.529 112.214 453.209 111.772 458.389 109.718C457.667 109.678 456.965 109.465 456.343 109.096C455.721 108.728 455.197 108.214 454.816 107.599Z" fill="#263238"/>
<path d="M425.39 113.14C423.147 107.991 422.289 102.346 422.899 96.7626L402.11 88.8823C401.153 94.5372 398.88 99.8881 395.475 104.503C394.206 106.226 392.693 108.228 393.287 110.323C393.546 111.019 393.978 111.637 394.542 112.119C395.106 112.602 395.784 112.933 396.511 113.082C397.975 113.332 399.47 113.332 400.934 113.082L398.28 115.98C407.219 114.262 416.289 113.311 425.39 113.14Z" fill="#263238"/>
<path d="M427.148 44.6502C420.594 43.9751 415.054 46.8502 409.827 50.8543C404.619 54.9742 400.793 60.5868 398.862 66.9408C396.69 73.5967 396.739 80.7783 399.002 87.4039C400.159 90.6881 401.969 93.7037 404.324 96.2685C406.678 98.8333 409.529 100.894 412.702 102.326C421.409 106.051 432.106 103.851 439.276 97.6704C446.447 91.4896 450.137 81.7585 449.88 72.2719C449.799 65.6918 447.644 59.305 443.723 54.0204C441.746 51.4152 439.254 49.2443 436.403 47.6424C433.551 46.0405 430.401 45.0418 427.148 44.7084" fill="#263238"/>
<path d="M410.188 67.907C410.968 65.3695 410.421 62.6224 410.619 59.9685C411.073 54.1485 415.438 49.1782 420.676 46.5708C425.564 44.1381 431.722 44.2429 437.891 45.7561C442.174 46.7501 446.083 48.947 449.159 52.0882C451.128 54.2254 452.556 56.8035 453.324 59.6065C454.092 62.4095 454.176 65.3556 453.57 68.198L423.667 65.87C421.179 68.4911 418.277 70.6854 415.077 72.3651C414.138 72.8586 413.087 73.0993 412.027 73.0635C411.482 73.0347 410.957 72.846 410.518 72.5211C410.079 72.1961 409.746 71.7492 409.559 71.236C409.21 70.1651 409.804 69.0128 410.188 67.907Z" fill="#263238"/>
<path d="M439.032 53.8925L413.529 61.0627C412.328 61.2217 411.23 61.8251 410.452 62.7538C409.674 63.6826 409.272 64.8692 409.327 66.0795L413.307 122.033C413.581 125.853 415.102 129.476 417.638 132.346L420.315 135.361C426.414 142.252 437.775 140.773 441.523 132.381C441.75 131.904 441.914 131.399 442.012 130.879C442.095 130.457 442.15 130.029 442.175 129.599C442.438 126.767 442.403 123.915 442.07 121.09C442 116.097 441.942 114.048 441.942 114.106C441.942 114.164 452.418 112.069 454.257 98.2641C455.165 91.3849 454.525 80.1872 453.698 71.0265C452.965 62.7854 447.226 52.7983 439.032 53.8925Z" fill="#FFBE9D"/>
<path d="M448.798 79.8263C448.811 80.2871 448.645 80.735 448.334 81.0758C448.024 81.4166 447.593 81.6238 447.133 81.6537C446.91 81.6778 446.685 81.6568 446.47 81.5921C446.255 81.5274 446.056 81.4202 445.883 81.2769C445.71 81.1336 445.568 80.9571 445.465 80.758C445.362 80.5588 445.3 80.3409 445.283 80.1173C445.263 79.6587 445.424 79.2107 445.731 78.8692C446.038 78.5277 446.466 78.3198 446.924 78.2898C447.148 78.2641 447.376 78.2837 447.593 78.3475C447.809 78.4114 448.011 78.5181 448.186 78.6614C448.361 78.8047 448.505 78.9817 448.61 79.1818C448.715 79.3818 448.779 79.601 448.798 79.8263Z" fill="#263238"/>
<path d="M451.429 76.9162C451.207 77.149 449.846 76.1945 447.937 76.2527C446.028 76.3109 444.677 77.3003 444.445 77.0675C444.212 76.8347 444.549 76.5437 445.143 76.0898C445.948 75.5001 446.916 75.1747 447.913 75.1586C448.904 75.1272 449.878 75.4127 450.695 75.9734C451.324 76.4041 451.533 76.8115 451.429 76.9162Z" fill="#263238"/>
<path d="M430.826 80.7691C430.842 81.2288 430.678 81.6767 430.37 82.0178C430.061 82.359 429.632 82.5666 429.173 82.5965C428.949 82.6206 428.723 82.5997 428.508 82.5351C428.292 82.4705 428.092 82.3635 427.918 82.2204C427.745 82.0772 427.602 81.9008 427.497 81.7016C427.393 81.5023 427.329 81.2842 427.31 81.0601C427.294 80.6004 427.458 80.1524 427.766 79.8113C428.075 79.4701 428.504 79.2626 428.963 79.2326C429.187 79.2085 429.413 79.2294 429.629 79.294C429.844 79.3586 430.044 79.4656 430.218 79.6088C430.391 79.7519 430.535 79.9283 430.639 80.1276C430.743 80.3268 430.807 80.5449 430.826 80.7691Z" fill="#263238"/>
<path d="M432.77 77.766C432.56 77.9988 431.198 77.0559 429.278 77.1025C427.357 77.1491 426.018 78.1501 425.786 77.9173C425.553 77.6845 425.89 77.4051 426.496 76.9395C427.3 76.3498 428.268 76.0245 429.266 76.0083C430.252 75.9795 431.223 76.2648 432.036 76.8231C432.665 77.2538 432.874 77.6612 432.77 77.766Z" fill="#263238"/>
<path d="M440.033 91.6641C441.026 91.322 442.059 91.1069 443.106 91.0239C443.595 91.0239 444.049 90.8493 444.119 90.5234C444.144 90.0208 444.019 89.522 443.758 89.0917L442.221 85.4367C440.091 80.2336 438.543 75.9501 438.729 75.8686C438.916 75.7871 440.836 79.931 442.966 85.1806L444.433 88.8589C444.756 89.4353 444.863 90.1079 444.736 90.7562C444.674 90.9319 444.571 91.0902 444.435 91.2178C444.299 91.3454 444.135 91.4386 443.956 91.4895C443.691 91.5674 443.417 91.6104 443.141 91.6175C442.111 91.7644 441.067 91.78 440.033 91.6641Z" fill="#263238"/>
<path d="M441.942 114.095C435.471 114.362 429.053 112.831 423.399 109.671C423.399 109.671 428.277 119.065 442.023 117.412L441.942 114.095Z" fill="#EB996E"/>
<path d="M439.358 96.2619C438.983 95.8212 438.502 95.4831 437.96 95.2794C437.419 95.0758 436.834 95.0133 436.262 95.0979C435.846 95.1371 435.443 95.2605 435.077 95.4607C434.711 95.6608 434.389 95.9334 434.132 96.2619C433.875 96.5917 433.728 96.9935 433.711 97.411C433.695 97.8285 433.809 98.2407 434.038 98.5899C434.355 98.9178 434.761 99.1456 435.206 99.2449C435.651 99.3442 436.115 99.3108 436.541 99.1487C437.433 98.8095 438.249 98.2949 438.939 97.6354C439.143 97.4747 439.32 97.2821 439.463 97.0651C439.531 96.9594 439.568 96.8361 439.568 96.7101C439.568 96.584 439.531 96.4607 439.463 96.355" fill="#EB996E"/>
<path d="M434.492 93.1191C434.795 93.1191 434.853 95.1561 436.657 96.6111C438.462 98.0661 440.65 97.7751 440.673 98.0312C440.696 98.2873 440.196 98.4386 439.265 98.4852C438.058 98.5367 436.871 98.1617 435.912 97.4259C434.997 96.7151 434.396 95.6752 434.236 94.5276C434.131 93.6313 434.341 93.1191 434.492 93.1191Z" fill="#263238"/>
<path d="M432.944 72.0158C432.77 72.5396 430.861 72.3418 428.649 72.6793C426.437 73.0169 424.645 73.6571 424.331 73.2031C424.191 72.982 424.494 72.4931 425.204 71.9693C426.158 71.3404 427.246 70.9419 428.381 70.8053C429.519 70.64 430.68 70.7477 431.769 71.1196C432.595 71.3756 433.014 71.7714 432.944 72.0158Z" fill="#263238"/>
<path d="M450.649 68.6286C450.334 69.0709 449.007 68.6286 447.436 68.6286C445.865 68.6286 444.538 69.0011 444.223 68.5588C444.084 68.3376 444.282 67.9069 444.852 67.4762C445.618 66.9633 446.52 66.6895 447.442 66.6895C448.364 66.6895 449.265 66.9633 450.032 67.4762C450.602 67.9768 450.8 68.4191 450.649 68.6286Z" fill="#263238"/>
<path d="M405.148 64.252C407.313 56.1971 418.313 44.7085 426.647 44.9063L440.277 52.2628C439.948 54.5453 439.009 56.6965 437.558 58.4892C436.108 60.2819 434.2 61.6496 432.036 62.4478C429.708 63.2743 426.915 63.6118 425.611 65.6721C424.307 67.7324 425.25 70.7588 424.016 72.9471C422.317 75.9735 417.288 76.0666 416.055 79.3142C415.508 80.7226 415.903 82.3755 415.333 83.7839C414.588 85.658 410.037 88.2071 408.081 87.6833C406.126 87.1595 405.974 83.8771 405.264 82.1893C404.382 80.2851 404.185 78.1345 404.706 76.1015C405.369 72.1672 404.112 68.0699 405.148 64.252Z" fill="#263238"/>
<path d="M413.843 89.0219C413.843 87.9976 412.563 85.6114 411.515 85.5299C408.803 85.1807 403.949 85.5299 404.077 92.3859C404.275 101.768 413.645 99.6492 413.657 99.3699C413.668 99.0905 413.936 92.5605 413.843 89.0219Z" fill="#FFBE9D"/>
<path d="M410.747 95.8314C410.747 95.8314 410.584 95.9478 410.316 96.0875C409.924 96.2448 409.486 96.2448 409.094 96.0875C408.093 95.7499 407.231 94.1901 407.15 92.5023C407.108 91.7055 407.247 90.9095 407.557 90.1743C407.633 89.8826 407.779 89.6138 407.982 89.3907C408.184 89.1677 408.438 88.9972 408.721 88.8939C408.909 88.8384 409.11 88.8512 409.289 88.93C409.468 89.0089 409.614 89.1487 409.699 89.3246C409.827 89.5807 409.781 89.7669 409.827 89.7902C409.874 89.8135 410.025 89.6272 409.944 89.2431C409.883 89.0121 409.748 88.8074 409.559 88.6611C409.432 88.5635 409.285 88.4935 409.129 88.4554C408.972 88.4174 408.81 88.4121 408.652 88.44C408.269 88.5271 407.915 88.7093 407.622 88.9698C407.329 89.2303 407.107 89.5605 406.975 89.9299C406.591 90.7472 406.415 91.647 406.463 92.5489C406.556 94.4462 407.557 96.1922 408.919 96.5531C409.172 96.6232 409.438 96.6345 409.697 96.5861C409.955 96.5376 410.199 96.4308 410.409 96.2737C410.735 96.0642 410.782 95.8547 410.747 95.8314Z" fill="#EB996E"/>
<path d="M402.983 61.9239C402.82 58.9907 399.049 57.2679 396.15 56.8373C393.205 56.5258 390.247 57.2953 387.828 59.0023C386.384 59.9219 384.941 61.1906 384.72 62.8901C384.499 64.5895 386.245 66.4868 387.804 65.7768C387.047 66.0891 386.367 66.5649 385.815 67.1703C385.262 67.7757 384.85 68.4956 384.608 69.2787C384.367 70.0618 384.301 70.8886 384.415 71.7001C384.53 72.5116 384.823 73.2877 385.272 73.9729C385.722 74.6582 386.317 75.2357 387.016 75.6641C387.715 76.0925 388.499 76.3613 389.314 76.4512C390.129 76.5411 390.953 76.45 391.728 76.1843C392.504 75.9186 393.211 75.4849 393.799 74.9142C393.161 77.6802 391.596 80.1448 389.364 81.8982C391.806 82.0781 394.253 81.6128 396.459 80.5489C398.664 79.485 400.551 77.8599 401.931 75.8366C403.31 73.8133 404.134 71.4629 404.318 69.021C404.503 66.5792 404.042 64.1317 402.983 61.9239Z" fill="#263238"/>
<path d="M386.652 102.105C386.652 101.663 387.874 101.453 389.539 100.941C391.664 100.351 393.659 99.3638 395.417 98.0312C397.139 96.6489 398.581 94.95 399.666 93.026C400.562 91.5244 401.039 90.4419 401.481 90.5117C401.924 90.5816 402.18 91.8271 401.714 93.8291C401.021 96.4656 399.484 98.8028 397.338 100.484C395.192 102.166 392.555 103.099 389.83 103.141C387.769 103.106 386.605 102.513 386.652 102.105Z" fill="#263238"/>
<path d="M397.466 77.2306C397.129 76.3406 396.948 75.3997 396.93 74.4486C396.602 69.8273 397.831 65.2294 400.422 61.3885C400.911 60.5701 401.537 59.8418 402.273 59.2351C400.478 61.8458 399.093 64.7151 398.164 67.7439C397.451 70.8524 397.216 74.0512 397.466 77.2306Z" fill="#807FDE"/>
<path d="M437.379 49.5855C438.485 53.3336 444.596 57.8383 447.331 60.6435C452.546 65.9746 453.628 67.7905 454.408 80.4315C456.41 75.9152 457.9 71.5153 457.377 66.6032C456.941 61.6299 454.706 56.9864 451.091 53.5431C449.27 51.8625 447.084 50.6288 444.704 49.9399C442.324 49.2509 439.816 49.1256 437.379 49.5739" fill="#263238"/>
<path d="M498.536 159.036C498.536 159.036 492.273 185.063 489.701 196.284C487.012 208.239 481.029 235.36 465.152 231.402C453.07 228.422 455.759 212.778 455.759 212.778L466.06 177.009L475.605 178.091L484.37 156.511L493.821 146.558L498.536 159.036Z" fill="#FFBE9D"/>
<path d="M459.972 213.709C459.441 211.816 459.334 209.829 459.658 207.889C460.057 205.812 460.814 203.819 461.893 202C463.282 199.781 464.838 197.672 466.549 195.691C468.268 193.679 469.825 191.534 471.205 189.277C472.303 187.418 473.246 185.472 474.022 183.457C474.54 182.1 474.975 180.712 475.325 179.302C475.482 178.791 475.58 178.263 475.616 177.73C475.398 178.216 475.219 178.718 475.081 179.232C474.767 180.198 474.301 181.56 473.591 183.282C472.767 185.249 471.798 187.151 470.693 188.974C469.293 191.185 467.737 193.294 466.037 195.283C464.308 197.291 462.751 199.441 461.381 201.709C460.287 203.595 459.549 205.667 459.204 207.82C458.98 209.277 459.044 210.763 459.39 212.196C459.487 212.594 459.616 212.983 459.774 213.36C459.879 213.593 459.949 213.721 459.972 213.709Z" fill="#EB996E"/>
<path d="M483.636 158.536C483.636 158.07 483.869 150.493 484.021 148.514C484.142 147.262 484.493 146.042 485.057 144.917C485.273 144.505 485.581 144.148 485.957 143.874C486.333 143.599 486.767 143.415 487.226 143.334C487.684 143.253 488.155 143.278 488.602 143.407C489.049 143.536 489.461 143.766 489.806 144.079L489.98 144.23C490.878 142.472 492.154 140.933 493.717 139.726C495.94 138.271 497.767 137.281 499.676 138.422C500.198 138.68 500.643 139.071 500.965 139.555C501.288 140.039 501.478 140.6 501.516 141.181C501.516 141.181 504.344 140.797 505.566 141.937C506.788 143.078 505.566 146.524 505.566 146.524C505.566 146.524 508.081 145.755 508.697 147.594C509.005 148.866 508.814 150.208 508.162 151.342C508.162 151.342 510.141 151.948 510.374 153.403C510.606 154.858 508.395 156.452 508.395 156.452L501.492 161.947C500.572 164.815 498.694 167.281 496.173 168.931C491.377 170.77 483.636 158.536 483.636 158.536Z" fill="#FFBE9D"/>
<path d="M488.898 150.283C488.968 150.283 488.956 150.574 488.746 150.923C488.487 151.388 488.076 151.749 487.582 151.948C487.069 152.12 486.513 152.12 485.999 151.948C485.615 151.82 485.429 151.633 485.464 151.552C485.499 151.47 486.407 151.68 487.361 151.307C488.316 150.935 488.735 150.202 488.898 150.283Z" fill="#EB996E"/>
<path d="M494.369 143.509C494.264 143.648 493.6 143.183 493.484 142.275C493.367 141.367 493.868 140.75 494.008 140.855C494.147 140.96 494.008 141.518 494.101 142.193C494.194 142.869 494.497 143.404 494.369 143.509Z" fill="#EB996E"/>
<path d="M505.904 146.454C505.904 146.454 505.415 147.164 504.379 148.06C503.011 149.191 501.576 150.241 500.084 151.203C499.28 151.837 498.339 152.275 497.337 152.483C496.906 152.555 496.464 152.513 496.055 152.36C495.647 152.206 495.286 151.948 495.009 151.61C494.833 151.368 494.723 151.083 494.69 150.785C494.657 150.487 494.703 150.186 494.823 149.911C495.009 149.538 495.242 149.445 495.265 149.48C495.288 149.515 495.137 149.666 495.044 150.004C494.99 150.238 494.991 150.481 495.045 150.715C495.1 150.949 495.207 151.168 495.358 151.354C495.608 151.604 495.918 151.786 496.258 151.884C496.598 151.981 496.957 151.991 497.302 151.913C498.206 151.686 499.051 151.27 499.781 150.691C501.515 149.527 503.064 148.514 504.146 147.711C504.69 147.236 505.279 146.815 505.904 146.454Z" fill="#EB996E"/>
<path d="M508.115 151.308C506.021 152.608 503.821 153.729 501.539 154.66C500.663 155.149 499.688 155.435 498.687 155.498C498.243 155.52 497.803 155.41 497.422 155.183C497.041 154.955 496.736 154.619 496.545 154.218C496.476 154.056 496.44 153.882 496.44 153.705C496.44 153.529 496.476 153.355 496.545 153.193C496.647 152.955 496.823 152.755 497.046 152.623C497.43 152.413 497.674 152.53 497.663 152.553C497.651 152.576 497.441 152.553 497.185 152.821C497.028 152.965 496.921 153.156 496.881 153.366C496.841 153.576 496.87 153.793 496.964 153.985C497.139 154.282 497.395 154.522 497.703 154.676C498.01 154.831 498.356 154.894 498.699 154.858C499.611 154.763 500.495 154.482 501.294 154.031C503.49 152.94 505.771 152.029 508.115 151.308Z" fill="#EB996E"/>
<path d="M504.763 157.512C504.763 157.582 504.39 157.873 503.599 158.059C503.149 158.164 502.687 158.211 502.225 158.198C501.633 158.21 501.045 158.078 500.514 157.814C500.347 157.713 500.211 157.566 500.123 157.391C500.034 157.216 499.996 157.02 500.014 156.825C500.054 156.512 500.183 156.217 500.386 155.975C500.677 155.615 501.009 155.291 501.376 155.009C502.004 154.543 502.47 154.392 502.54 154.462C502.61 154.532 502.214 154.823 501.702 155.347C501.402 155.644 501.13 155.968 500.887 156.313C500.619 156.697 500.526 157.093 500.887 157.291C501.33 157.494 501.808 157.609 502.295 157.628C502.717 157.669 503.142 157.669 503.564 157.628C504.286 157.558 504.728 157.43 504.763 157.512Z" fill="#EB996E"/>
<path d="M498.21 158.664C498.247 157.607 497.986 156.561 497.457 155.646C496.928 154.73 496.152 153.982 495.218 153.487C494.284 152.992 493.229 152.769 492.174 152.845C491.119 152.921 490.108 153.293 489.254 153.917C488.4 154.541 487.74 155.393 487.348 156.375C486.955 157.357 486.847 158.429 487.036 159.47C487.225 160.51 487.702 161.477 488.415 162.258C489.127 163.04 490.044 163.606 491.063 163.89L491.005 165.462L492.541 166.626L490.923 167.534L490.853 169.501L492.39 170.665L490.772 171.573L490.714 173.261L491.645 173.959L490.667 174.506V175.495L491.831 176.822L494.159 175.437L494.601 163.797C495.643 163.395 496.542 162.692 497.184 161.778C497.827 160.864 498.184 159.781 498.21 158.664ZM492.727 154.334C493.047 154.346 493.356 154.452 493.615 154.639C493.875 154.826 494.073 155.086 494.184 155.386C494.296 155.686 494.316 156.012 494.242 156.324C494.169 156.635 494.004 156.917 493.77 157.135C493.536 157.353 493.243 157.497 492.927 157.548C492.611 157.599 492.287 157.555 491.996 157.423C491.705 157.29 491.46 157.074 491.292 156.801C491.124 156.529 491.04 156.213 491.051 155.894C491.059 155.681 491.108 155.472 491.196 155.279C491.285 155.085 491.41 154.911 491.566 154.766C491.722 154.621 491.904 154.509 492.104 154.434C492.303 154.36 492.515 154.326 492.727 154.334Z" fill="#263238"/>
<path d="M492.727 154.334C492.727 154.334 492.588 154.334 492.343 154.404C491.995 154.487 491.683 154.683 491.459 154.962C491.285 155.19 491.177 155.461 491.147 155.746C491.117 156.031 491.166 156.319 491.289 156.578C491.412 156.837 491.604 157.057 491.844 157.214C492.083 157.371 492.362 157.459 492.648 157.468C492.935 157.477 493.218 157.407 493.467 157.266C493.717 157.125 493.922 156.917 494.061 156.667C494.201 156.417 494.268 156.133 494.257 155.846C494.245 155.56 494.155 155.282 493.996 155.044C493.793 154.748 493.499 154.528 493.158 154.415C492.925 154.346 492.774 154.346 492.774 154.322H492.832C492.933 154.309 493.034 154.309 493.135 154.322C493.496 154.417 493.813 154.636 494.031 154.939C494.196 155.167 494.301 155.432 494.335 155.711C494.37 155.99 494.333 156.273 494.229 156.534C494.106 156.844 493.891 157.108 493.612 157.29C493.318 157.492 492.967 157.594 492.611 157.581C492.251 157.568 491.905 157.442 491.621 157.221C491.361 157.008 491.167 156.726 491.063 156.406C490.983 156.138 490.97 155.855 491.025 155.581C491.079 155.307 491.2 155.051 491.377 154.834C491.624 154.549 491.961 154.356 492.332 154.287C492.428 154.278 492.526 154.278 492.623 154.287L492.727 154.334Z" fill="#263238"/>
<path d="M498.21 158.664V158.78V159.118C498.164 159.546 498.07 159.968 497.93 160.375C497.697 161.033 497.342 161.642 496.883 162.168C496.257 162.894 495.456 163.447 494.555 163.774C494.438 166.789 494.299 170.758 494.136 175.414L491.808 176.811L490.644 175.484C490.644 175.169 490.644 174.832 490.644 174.494L491.621 173.947V174.064L490.679 173.354C490.679 172.83 490.679 172.19 490.737 171.666L492.355 170.77V170.886L490.818 169.722V169.012C490.818 168.523 490.818 168.046 490.876 167.569L492.494 166.661V166.777L490.958 165.613C490.958 165.078 490.958 164.554 491.016 164.042V164.111C490.15 163.863 489.353 163.417 488.688 162.808C488.365 162.515 488.079 162.182 487.838 161.818C487.258 160.971 486.92 159.981 486.86 158.955C486.801 157.93 487.022 156.907 487.501 155.998C487.928 155.169 488.555 154.458 489.323 153.929C490.092 153.4 490.98 153.069 491.908 152.967C492.836 152.864 493.774 152.993 494.64 153.341C495.506 153.689 496.273 154.246 496.871 154.962C497.367 155.543 497.736 156.221 497.954 156.953L498.023 157.162V157.372C498.023 157.512 498.082 157.628 498.093 157.756C498.105 157.884 498.151 158.187 498.151 158.35V158.536C498.157 158.575 498.157 158.614 498.151 158.652V158.163C498.151 158 498.151 157.803 498.082 157.57C498.064 157.444 498.037 157.319 498 157.197V156.988L497.93 156.778C497.711 156.058 497.342 155.391 496.848 154.823C496.192 154.056 495.344 153.478 494.392 153.147C493.385 152.809 492.303 152.765 491.273 153.02C490.242 153.276 489.305 153.819 488.573 154.587C487.84 155.356 487.341 156.317 487.135 157.358C486.928 158.4 487.023 159.479 487.408 160.468C487.553 160.879 487.749 161.27 487.99 161.632C488.227 161.988 488.509 162.313 488.828 162.598C489.473 163.195 490.251 163.63 491.098 163.867H491.156C491.156 164.391 491.156 164.915 491.098 165.438L492.646 166.602H492.727L492.634 166.661L491.016 167.557V167.499C491.016 167.976 491.016 168.465 491.016 168.942V169.466L492.553 170.63L492.634 170.7H492.541L490.923 171.608C490.923 172.19 490.923 172.772 490.865 173.295L491.808 173.994L491.889 174.064H491.796L490.818 174.622C490.818 174.96 490.818 175.298 490.818 175.6L491.982 176.927H491.901L494.229 175.542V175.6C494.415 170.944 494.566 166.94 494.683 163.96C495.553 163.635 496.329 163.099 496.941 162.4C497.392 161.877 497.747 161.278 497.988 160.631C498.134 160.224 498.235 159.803 498.291 159.374V159.048C498.297 158.915 498.269 158.783 498.21 158.664Z" fill="#263238"/>
<path d="M497.628 158.35C497.668 157.29 497.409 156.24 496.88 155.32C496.351 154.401 495.573 153.649 494.637 153.151C493.7 152.653 492.642 152.428 491.584 152.504C490.526 152.58 489.51 152.952 488.654 153.578C487.798 154.204 487.135 155.059 486.742 156.045C486.349 157.03 486.242 158.106 486.433 159.15C486.624 160.193 487.104 161.162 487.82 161.945C488.536 162.728 489.458 163.293 490.481 163.576L490.423 165.136L491.959 166.3L490.341 167.196L490.271 169.163L491.808 170.327L490.19 171.224L490.12 172.911L491.063 173.621L490.073 174.168V175.146L491.237 176.473L493.565 175.088L494.008 163.448C495.047 163.051 495.946 162.355 496.59 161.447C497.234 160.54 497.595 159.462 497.628 158.35ZM492.145 154.02C492.358 154.027 492.567 154.076 492.76 154.165C492.954 154.253 493.128 154.379 493.273 154.534C493.417 154.69 493.53 154.873 493.604 155.072C493.679 155.271 493.713 155.483 493.705 155.696C493.697 155.908 493.646 156.117 493.557 156.31C493.468 156.503 493.342 156.677 493.186 156.821C493.03 156.965 492.847 157.078 492.647 157.151C492.448 157.225 492.235 157.258 492.023 157.25C491.811 157.241 491.602 157.191 491.409 157.102C491.216 157.013 491.042 156.887 490.898 156.731C490.753 156.574 490.641 156.391 490.568 156.192C490.494 155.992 490.461 155.78 490.469 155.568C490.487 155.141 490.674 154.738 490.988 154.448C491.302 154.158 491.718 154.004 492.145 154.02Z" fill="#807FDE"/>
<path d="M492.145 154.02C492.013 154.013 491.881 154.013 491.75 154.02C491.404 154.104 491.097 154.3 490.877 154.578C490.712 154.781 490.601 155.021 490.555 155.277C490.508 155.534 490.526 155.798 490.609 156.045C490.708 156.348 490.897 156.614 491.15 156.808C491.404 157.001 491.71 157.113 492.029 157.128C492.345 157.132 492.655 157.043 492.921 156.871C493.186 156.699 493.394 156.452 493.519 156.161C493.603 155.959 493.644 155.741 493.639 155.522C493.635 155.303 493.584 155.087 493.491 154.889C493.398 154.691 493.264 154.514 493.098 154.37C492.933 154.226 492.739 154.119 492.529 154.055C492.403 154.017 492.275 153.986 492.145 153.962H492.25C492.347 153.949 492.444 153.949 492.541 153.962C492.908 154.052 493.23 154.271 493.449 154.578C493.701 154.943 493.799 155.393 493.72 155.829C493.642 156.265 493.393 156.653 493.03 156.906C492.732 157.11 492.377 157.212 492.017 157.197C491.66 157.178 491.319 157.048 491.04 156.825C490.81 156.67 490.626 156.457 490.504 156.208C490.434 155.986 490.412 155.751 490.438 155.519C490.465 155.288 490.54 155.064 490.659 154.863C490.777 154.662 490.937 154.489 491.126 154.353C491.316 154.218 491.533 154.124 491.761 154.078C491.861 154.061 491.964 154.061 492.064 154.078L492.145 154.02Z" fill="#263238"/>
<path d="M497.628 158.35V158.466V158.792C497.581 159.224 497.488 159.649 497.348 160.061C497.106 160.714 496.751 161.321 496.301 161.853C495.669 162.572 494.869 163.124 493.973 163.46C493.868 166.474 493.728 170.444 493.565 175.1L491.237 176.485L490.073 175.158C490.073 174.855 490.073 174.518 490.073 174.18L491.051 173.621V173.738L490.12 173.039C490.12 172.504 490.12 171.934 490.178 171.352L491.796 170.444V170.56L490.26 169.396V168.872C490.26 168.395 490.26 167.906 490.318 167.429L491.936 166.533V166.649L490.399 165.485C490.399 164.961 490.399 164.437 490.457 163.914V163.983C489.587 163.745 488.788 163.297 488.129 162.68C487.803 162.386 487.514 162.054 487.268 161.69C487.025 161.327 486.826 160.937 486.674 160.526C486.397 159.809 486.267 159.042 486.294 158.273C486.32 157.503 486.502 156.748 486.828 156.05C487.154 155.353 487.618 154.729 488.192 154.216C488.766 153.703 489.437 153.312 490.166 153.065C491.36 152.668 492.651 152.668 493.845 153.065C494.775 153.316 495.628 153.796 496.324 154.462C496.815 155.046 497.184 155.723 497.407 156.452L497.476 156.674V156.883C497.476 157.011 497.535 157.139 497.546 157.256C497.558 157.372 497.604 157.698 497.604 157.849V158.35C497.607 158.307 497.607 158.264 497.604 158.222V157.861C497.604 157.698 497.604 157.5 497.546 157.256C497.488 157.011 497.488 157.023 497.465 156.883V156.685L497.395 156.464C497.166 155.745 496.794 155.08 496.301 154.508C495.65 153.739 494.8 153.164 493.845 152.844C492.675 152.448 491.406 152.448 490.236 152.844C488.885 153.32 487.762 154.289 487.094 155.556C486.729 156.261 486.517 157.035 486.473 157.828C486.429 158.62 486.553 159.413 486.837 160.154C486.993 160.562 487.192 160.952 487.431 161.318C487.668 161.674 487.95 161.999 488.269 162.284C488.916 162.879 489.693 163.314 490.539 163.553H490.504V163.611C490.504 164.123 490.504 164.647 490.504 165.182V165.124C491.016 165.497 491.528 165.892 492.041 166.288L492.134 166.358H492.041L490.423 167.266V167.208C490.423 167.685 490.423 168.162 490.364 168.651C490.364 168.826 490.364 169 490.364 169.163L491.901 170.327H491.994L491.901 170.385L490.283 171.282C490.283 171.864 490.283 172.446 490.213 172.97L491.156 173.68L491.237 173.738H491.144L490.155 174.285C490.155 174.622 490.155 174.96 490.155 175.263L491.319 176.601H491.237L493.565 175.216V175.274C493.74 170.618 493.903 166.614 494.019 163.634C494.891 163.3 495.67 162.761 496.289 162.063C496.737 161.537 497.091 160.939 497.337 160.294C497.483 159.891 497.585 159.473 497.639 159.048V158.711C497.606 158.657 497.587 158.595 497.585 158.532C497.583 158.468 497.598 158.406 497.628 158.35Z" fill="#263238"/>
<path d="M496.953 158.396C496.936 158.005 496.889 157.616 496.813 157.232C496.717 156.766 496.548 156.319 496.312 155.905C496.02 155.354 495.625 154.864 495.148 154.462C494.51 153.933 493.748 153.576 492.933 153.425C492.118 153.274 491.277 153.335 490.492 153.601C490.04 153.739 489.612 153.948 489.224 154.218C489.023 154.355 488.832 154.507 488.653 154.671C488.474 154.843 488.307 155.025 488.153 155.219C487.496 156.037 487.121 157.044 487.081 158.092C487.041 159.14 487.339 160.173 487.932 161.039C488.077 161.244 488.232 161.442 488.397 161.632C488.564 161.807 488.743 161.97 488.933 162.121C489.281 162.417 489.674 162.656 490.097 162.831C490.911 163.162 491.799 163.27 492.669 163.145C493.424 163.042 494.142 162.758 494.764 162.319C495.282 161.954 495.728 161.496 496.08 160.969C496.338 160.569 496.538 160.134 496.673 159.677C496.781 159.295 496.859 158.906 496.906 158.513V158.839C496.906 158.943 496.906 159.071 496.906 159.223C496.906 159.374 496.848 159.537 496.79 159.735C496.663 160.202 496.463 160.646 496.196 161.05C495.85 161.592 495.403 162.062 494.881 162.435C494.245 162.888 493.511 163.183 492.739 163.297C491.851 163.43 490.943 163.326 490.108 162.994C489.657 162.816 489.237 162.569 488.863 162.261C488.668 162.103 488.482 161.936 488.304 161.76C488.133 161.572 487.977 161.369 487.838 161.155C487.232 160.271 486.926 159.216 486.966 158.144C487.006 157.073 487.389 156.043 488.06 155.207C488.218 155.006 488.389 154.816 488.572 154.637C488.759 154.472 488.957 154.32 489.165 154.183C489.734 153.787 490.379 153.517 491.059 153.388C491.739 153.26 492.438 153.277 493.111 153.438C493.875 153.606 494.586 153.958 495.183 154.462C495.662 154.876 496.057 155.378 496.347 155.94C496.574 156.365 496.738 156.819 496.836 157.29C496.874 157.463 496.897 157.638 496.906 157.814C496.916 157.942 496.916 158.071 496.906 158.198V158.513L496.953 158.396Z" fill="#263238"/>
<path d="M493.996 155.719C493.981 155.567 493.958 155.415 493.926 155.265C493.839 154.853 493.608 154.486 493.274 154.229C493.05 154.048 492.787 153.921 492.506 153.857C492.185 153.789 491.851 153.81 491.54 153.915C491.192 154.019 490.886 154.231 490.667 154.52C490.428 154.822 490.293 155.194 490.283 155.579C490.267 155.959 490.371 156.334 490.58 156.651C490.789 156.969 491.092 157.213 491.447 157.349C491.733 157.463 492.042 157.505 492.349 157.473C492.655 157.44 492.949 157.334 493.204 157.162C493.549 156.923 493.803 156.574 493.926 156.173C493.971 156.024 494.006 155.873 494.031 155.719C494.031 155.719 494.031 155.719 494.031 155.847C494.023 155.965 494.004 156.082 493.973 156.196C493.86 156.618 493.605 156.988 493.251 157.244C493.002 157.421 492.715 157.537 492.413 157.581C492.049 157.639 491.677 157.591 491.339 157.445C491.001 157.299 490.711 157.059 490.504 156.755C490.266 156.414 490.144 156.006 490.155 155.591C490.171 155.167 490.322 154.76 490.586 154.427C490.827 154.123 491.156 153.899 491.528 153.787C491.867 153.688 492.226 153.688 492.564 153.787C492.858 153.856 493.133 153.992 493.367 154.183C493.716 154.479 493.944 154.893 494.008 155.347C494.023 155.463 494.023 155.58 494.008 155.696C493.996 155.684 493.996 155.719 493.996 155.719Z" fill="#263238"/>
<path d="M492.832 175.356C492.832 175.356 492.832 172.69 492.983 169.419C493.135 166.148 493.239 163.483 493.274 163.483C493.309 163.483 493.274 166.137 493.123 169.419C492.972 172.702 492.832 175.356 492.832 175.356Z" fill="#263238"/>
<path d="M492.634 154.578C492.516 154.636 492.387 154.666 492.256 154.666C492.125 154.666 491.995 154.636 491.878 154.578V147.42L492.634 147.478V154.578Z" fill="#E0E0E0"/>
<path d="M492.25 154.695C492.117 154.692 491.986 154.66 491.866 154.602V147.396L492.681 147.455V154.602C492.547 154.666 492.399 154.698 492.25 154.695ZM491.913 154.555C492.02 154.607 492.137 154.633 492.256 154.633C492.375 154.633 492.492 154.607 492.599 154.555V147.501H491.901L491.913 154.555Z" fill="#263238"/>
<path d="M489.34 143.905C489.974 144.446 490.647 144.94 491.354 145.383C491.706 145.611 492.001 145.919 492.215 146.28C492.429 146.641 492.557 147.047 492.588 147.466C492.526 147.894 492.357 148.298 492.097 148.642C491.836 148.986 491.492 149.259 491.098 149.434C490.559 149.724 489.968 149.904 489.36 149.966C488.751 150.028 488.136 149.969 487.55 149.792C486.964 149.616 486.419 149.326 485.945 148.939C485.471 148.552 485.078 148.075 484.789 147.536" fill="#FFBE9D"/>
<path d="M484.835 147.536C485.322 148.053 485.852 148.528 486.418 148.956C487.049 149.358 487.768 149.597 488.514 149.655C489.42 149.723 490.326 149.525 491.121 149.084C491.504 148.912 491.822 148.624 492.031 148.26C492.24 147.897 492.329 147.476 492.285 147.059C492.053 146.369 491.598 145.775 490.993 145.371C489.887 144.626 489.27 143.974 489.363 143.904C489.456 143.835 490.05 144.335 491.237 145.01C491.981 145.424 492.548 146.094 492.832 146.896C492.955 147.428 492.867 147.987 492.588 148.456C492.303 148.935 491.903 149.335 491.424 149.62C490.518 150.128 489.476 150.339 488.444 150.225C487.601 150.136 486.797 149.823 486.116 149.317C485.033 148.444 484.777 147.548 484.835 147.536Z" fill="#EB996E"/>
<path d="M496.51 140.936C495.158 142.507 493.986 144.225 493.018 146.058C492.708 146.62 492.528 147.244 492.494 147.885C492.481 148.208 492.552 148.528 492.701 148.814C492.85 149.1 493.072 149.342 493.344 149.515C493.593 149.633 493.866 149.694 494.142 149.694C494.417 149.694 494.69 149.633 494.939 149.515C495.43 149.275 495.878 148.957 496.266 148.572C497.865 147.113 499.316 145.499 500.596 143.753C500.929 143.347 501.189 142.886 501.364 142.391C501.457 142.145 501.496 141.882 501.48 141.619C501.464 141.356 501.393 141.1 501.271 140.866" fill="#FFBE9D"/>
<path d="M501.283 140.855C501.283 140.855 501.574 141.088 501.609 141.716C501.571 142.58 501.234 143.403 500.654 144.044C499.949 145.054 499.171 146.011 498.326 146.908C497.861 147.42 497.348 147.943 496.801 148.456C496.249 149.063 495.575 149.547 494.822 149.876C494.387 150.016 493.919 150.016 493.484 149.876C493.041 149.73 492.674 149.417 492.46 149.003C492.296 148.637 492.211 148.24 492.211 147.839C492.211 147.438 492.296 147.041 492.46 146.675C492.943 145.526 493.569 144.443 494.322 143.45C494.949 142.511 495.692 141.654 496.534 140.901C495.975 141.874 495.357 142.811 494.683 143.707C494.007 144.692 493.445 145.75 493.007 146.861C492.874 147.152 492.806 147.467 492.806 147.786C492.806 148.106 492.874 148.421 493.007 148.712C493.166 148.988 493.422 149.195 493.725 149.294C494.028 149.393 494.356 149.376 494.648 149.247C495.309 148.945 495.902 148.514 496.394 147.978C496.941 147.478 497.453 146.977 497.919 146.488C498.862 145.499 499.653 144.568 500.247 143.753C500.804 143.186 501.177 142.464 501.318 141.681C501.332 141.405 501.32 141.129 501.283 140.855Z" fill="#EB996E"/>
<path d="M80.3803 354.624C91.4499 337.677 91.0309 312.907 77.7962 297.588C73.6873 292.828 67.9487 288.696 61.6864 289.231C55.4241 289.766 50.1162 295.272 48.184 301.406C46.2518 307.541 46.9152 314.21 48.056 320.508C49.6623 329.377 52.3511 338.445 58.532 345.033C64.7128 351.621 72.5 358.943 80.4384 354.624" fill="#807FDE"/>
<path d="M75.4332 435.568C77.4266 430.642 77.8179 425.214 76.5518 420.053C75.2856 414.892 72.4262 410.261 68.3794 406.817C65.8302 404.734 62.5594 403.127 59.3235 403.977C56.0876 404.827 53.9109 408.133 53.5035 411.473C53.2469 414.861 53.8182 418.261 55.168 421.379C56.7976 425.79 59.0092 430.225 62.7689 433.019C66.5286 435.813 71.8016 438.513 75.4798 435.568" fill="#807FDE"/>
<path d="M102.159 429.806C99.109 414.779 107.024 398.204 120.62 391.127C124.845 388.938 130.037 387.634 134.297 389.765C138.557 391.895 140.745 397.261 140.396 402.126C140.047 406.992 137.719 411.438 135.135 415.594C131.526 421.414 127.092 427.013 120.922 429.923C114.753 432.833 106.5 435.056 102.159 429.806Z" fill="#807FDE"/>
<path d="M100.238 389.182C94.9302 372.06 103.928 351.306 118.862 341.458C123.518 338.409 129.408 336.29 134.611 338.269C139.814 340.248 142.992 346.231 143.155 351.923C143.318 357.615 141.129 363.097 138.615 368.219C135.123 375.377 130.595 382.443 123.763 386.552C116.93 390.661 105.86 394.7 100.192 389.159" fill="#807FDE"/>
<path d="M89.5875 472.816C89.675 472.548 89.7297 472.271 89.7504 471.99C89.8436 471.373 89.9716 470.581 90.1113 469.603C90.1811 469.08 90.2626 468.498 90.3557 467.881C90.4489 467.264 90.6002 466.565 90.7398 465.844C91.0192 464.377 91.3102 462.713 91.7874 460.908C92.0086 459.989 92.2414 459.034 92.4742 458.045C92.707 457.056 93.0679 456.054 93.3705 454.995C93.9409 452.877 94.7906 450.677 95.5821 448.337C99.2933 438.261 104.386 428.75 110.714 420.075C112.227 418.12 113.589 416.199 115.044 414.558C115.754 413.708 116.441 412.905 117.093 412.113L119.188 409.96C120.433 408.563 121.656 407.399 122.68 406.363L124.158 404.908L125.462 403.744L127.255 402.126C127.471 401.948 127.67 401.749 127.848 401.533C127.6 401.667 127.37 401.831 127.161 402.022L125.276 403.535L123.925 404.641L122.401 406.061C121.306 407.073 120.073 408.214 118.769 409.553L116.72 411.683C116.057 412.463 115.358 413.277 114.637 414.104C113.147 415.745 111.762 417.666 110.214 419.621C107.036 423.981 104.143 428.542 101.553 433.275C99.0322 438.047 96.8313 442.982 94.9652 448.046C94.1853 450.374 93.3588 452.621 92.8118 454.774C92.5091 455.833 92.2298 456.858 91.9504 457.847C91.671 458.836 91.5081 459.814 91.2986 460.734C90.8563 462.561 90.6002 464.226 90.3557 465.716C90.2393 466.449 90.1229 467.136 90.0182 467.764C89.9134 468.393 89.9018 468.928 89.8436 469.51C89.7505 470.488 89.6806 471.291 89.6224 471.92C89.5609 472.215 89.5491 472.517 89.5875 472.816Z" fill="#263238"/>
<path d="M89.9716 475.924C89.9866 475.808 89.9866 475.69 89.9716 475.575C89.9716 475.307 89.9716 474.981 89.9018 474.585C89.8203 473.654 89.6923 472.385 89.5526 470.779C89.4711 469.952 89.378 469.033 89.2732 468.043C89.1685 467.054 89.1801 465.937 89.1103 464.761C89.0288 462.433 88.796 459.732 88.8891 456.776C88.8891 455.286 88.8891 453.738 88.8891 452.12C88.8891 450.502 89.0521 448.826 89.1335 447.091C89.2499 443.599 89.7272 439.921 90.1462 436.022C92.3125 419.147 97.1781 402.731 104.557 387.402C106.337 383.91 107.944 380.557 109.748 377.577C110.633 376.076 111.413 374.586 112.286 373.224L114.8 369.313C116.348 366.775 117.989 364.657 119.339 362.736C120.038 361.782 120.655 360.886 121.272 360.083L122.994 357.929L125.322 354.926L125.928 354.134C126.056 353.96 126.125 353.867 126.114 353.855C126.102 353.843 126.021 353.925 125.869 354.088L125.218 354.833L122.738 357.755L121.016 359.908C120.387 360.699 119.747 361.584 119.037 362.527C117.652 364.436 115.975 366.543 114.381 369.057L111.82 372.956C110.935 374.318 110.132 375.808 109.236 377.31C107.408 380.29 105.744 383.653 103.975 387.145C96.4886 402.499 91.5995 418.988 89.506 435.94C89.0986 439.851 88.6447 443.565 88.5515 447.057C88.4933 448.803 88.3537 450.49 88.342 452.108C88.3304 453.726 88.342 455.286 88.342 456.764C88.342 459.732 88.5515 462.421 88.6796 464.773C88.7611 465.937 88.8076 467.101 88.9008 468.055C88.9939 469.01 89.1335 469.964 89.2383 470.802C89.4362 472.397 89.5991 473.666 89.7155 474.597C89.7737 474.993 89.8319 475.307 89.8669 475.575C89.8862 475.695 89.9215 475.812 89.9716 475.924Z" fill="#263238"/>
<path d="M61.1277 309.693C61.1667 309.803 61.2174 309.908 61.279 310.007C61.407 310.24 61.5584 310.543 61.7562 310.892L63.6419 314.279C64.0493 315.013 64.5382 315.816 65.0154 316.724L66.4937 319.704L68.2048 323.126C68.7752 324.348 69.3688 325.663 69.9392 327.037C70.5095 328.41 71.1963 329.854 71.8132 331.367C72.4301 332.88 72.9772 334.498 73.6523 336.139L74.6184 338.653C74.9094 339.526 75.2121 340.399 75.5147 341.296C76.1084 343.077 76.6787 344.916 77.3655 346.79C79.6935 354.391 81.94 362.841 83.814 371.827C85.6881 380.814 86.9103 389.474 87.8531 397.366C88.796 405.258 89.2616 412.416 89.4245 418.434C89.5758 421.437 89.6108 424.149 89.6108 426.582C89.6108 429.015 89.6108 431.029 89.6108 432.705C89.6108 434.381 89.6108 435.638 89.6108 436.581V437.593C89.6108 437.815 89.6108 437.931 89.6108 437.931C89.6242 437.819 89.6242 437.706 89.6108 437.593C89.6108 437.326 89.6108 437 89.6806 436.592C89.6806 435.638 89.7854 434.346 89.8668 432.716C89.9483 431.087 89.9949 428.968 89.9949 426.582C89.9949 424.196 89.9949 421.46 89.9134 418.434C89.8086 412.405 89.2732 405.246 88.4933 397.319C87.7134 389.392 86.3283 380.72 84.5008 371.711C82.6733 362.702 80.3686 354.251 77.9824 346.627L76.12 341.086C75.8174 340.19 75.5147 339.305 75.2121 338.444L74.2227 335.93L72.337 331.157C71.7084 329.632 71.0333 328.212 70.4164 326.827C69.7995 325.442 69.2524 324.138 68.6238 322.928C67.9953 321.717 67.4598 320.6 66.8662 319.517C66.2726 318.435 65.7953 317.469 65.3297 316.549C64.8641 315.63 64.3287 314.861 63.898 314.14L61.8843 310.822C61.6748 310.473 61.4885 310.194 61.3488 309.973C61.2092 309.751 61.1393 309.681 61.1277 309.693Z" fill="#263238"/>
<path d="M64.899 413.662C65.2286 414.383 65.618 415.077 66.063 415.734C66.8778 417.026 67.9836 418.946 69.2873 421.344C70.591 423.742 72.0344 426.652 73.4894 429.946C74.9444 433.24 76.3179 436.93 77.5634 440.946C78.8088 444.962 79.6935 448.78 80.4035 452.318C81.1136 455.857 81.5675 459.081 81.7887 461.805C82.0099 464.528 82.231 466.717 82.2892 468.242C82.29 469.022 82.3562 469.8 82.4871 470.57C82.5687 469.796 82.5959 469.019 82.5686 468.242C82.5686 466.705 82.5686 464.482 82.3008 461.758C82.0455 458.554 81.6298 455.364 81.0554 452.202C80.3283 448.328 79.3919 444.497 78.2501 440.725C77.0725 436.968 75.6852 433.28 74.0947 429.678C72.6047 426.373 71.1148 423.463 69.7413 421.088C68.3678 418.713 67.1921 416.828 66.2493 415.582C65.8417 414.913 65.3907 414.272 64.899 413.662Z" fill="#263238"/>
<path d="M111.343 465.215H62.6758L68.5656 514.918H105.278L111.343 465.215Z" fill="#455A64"/>
<path d="M109.562 509.552L105.43 514.918H68.5657L64.3171 509.726L109.562 509.552Z" fill="#263238"/>
<path d="M64.5731 479.8C64.5731 479.998 74.6766 480.161 87.1314 480.161C99.5862 480.161 109.678 479.998 109.678 479.8C109.678 479.602 99.5862 479.439 87.1314 479.439C74.6766 479.439 64.5731 479.637 64.5731 479.8Z" fill="#FAFAFA"/>
<path d="M64.5731 483.141C64.5731 483.338 74.6766 483.501 87.1314 483.501C99.5862 483.501 109.678 483.338 109.678 483.141C109.678 482.943 99.5862 482.78 87.1314 482.78C74.6766 482.78 64.5731 482.943 64.5731 483.141Z" fill="#FAFAFA"/>
<path d="M65.1784 486.342C65.1784 486.551 74.9211 486.714 86.9452 486.714C98.9693 486.714 108.712 486.551 108.712 486.342C108.712 486.132 98.9693 485.981 86.9452 485.981C74.9211 485.981 65.1784 486.144 65.1784 486.342Z" fill="#FAFAFA"/>
<path d="M103.905 358.092C103.887 358.251 103.887 358.411 103.905 358.57C103.905 358.93 103.963 359.384 104.009 359.92C104.138 361.165 104.3 362.841 104.51 364.867C104.952 369.046 105.604 374.819 106.349 381.163C106.349 381.407 106.349 381.652 106.431 381.873V382.094H106.652C112.902 382.187 118.525 382.245 122.587 382.269H127.394H128.698C129.001 382.269 129.152 382.269 129.152 382.269C129.007 382.231 128.859 382.211 128.71 382.21L127.406 382.152L122.599 382.001C118.536 381.884 112.914 381.768 106.652 381.675L106.896 381.884C106.896 381.663 106.896 381.419 106.815 381.174C106.07 374.807 105.371 369.046 104.836 364.878C104.568 362.853 104.347 361.189 104.172 359.943C104.103 359.408 104.033 358.965 103.975 358.604C103.984 358.431 103.96 358.257 103.905 358.092Z" fill="#263238"/>
<path d="M114.974 343.228C114.948 343.39 114.948 343.555 114.974 343.717C114.974 344.089 114.974 344.555 114.974 345.114C114.974 346.394 114.974 348.128 114.974 350.247C115.044 354.577 115.161 360.56 115.324 367.16C115.324 367.428 115.324 367.695 115.324 367.94V368.196H115.58C121.024 367.774 126.487 367.65 131.945 367.823C134.029 367.823 135.717 367.975 136.881 368.033H138.219H138.685C138.685 368.033 138.534 368.033 138.231 367.94L136.892 367.788C135.728 367.672 134.052 367.532 131.957 367.416C126.487 367.146 121.005 367.22 115.545 367.637L115.812 367.882C115.812 367.637 115.812 367.369 115.812 367.102C115.649 360.49 115.475 354.519 115.324 350.189C115.242 348.082 115.172 346.348 115.126 345.067C115.126 344.508 115.126 344.043 115.044 343.67C115.034 343.521 115.011 343.373 114.974 343.228Z" fill="#263238"/>
<path d="M127.918 338.165C127.783 338.634 127.682 339.112 127.615 339.596C127.429 340.597 127.196 341.924 126.894 343.507C126.265 346.813 125.276 351.364 123.891 356.311L123.739 356.835L124.24 356.602L124.822 356.311C128.922 354.369 133.308 353.1 137.812 352.552C139.546 352.342 140.955 352.261 141.921 352.226C142.427 352.248 142.934 352.221 143.434 352.144C143.307 352.123 143.177 352.123 143.05 352.144C142.794 352.144 142.41 352.086 141.886 352.086C140.502 352.06 139.119 352.118 137.742 352.261C133.18 352.717 128.733 353.966 124.601 355.95L124.007 356.241L124.356 356.521C125.54 352.271 126.499 347.962 127.231 343.612C127.511 341.948 127.697 340.597 127.802 339.666C127.894 339.171 127.933 338.668 127.918 338.165Z" fill="#263238"/>
<path d="M59.1954 428.782C59.1954 428.852 60.6155 428.712 62.8853 428.619C65.8373 428.506 68.7935 428.604 71.7317 428.91C72.4301 428.98 73.1169 429.073 73.7687 429.166H74.0015V428.945C74.537 426 74.9676 423.404 75.2703 421.542C75.4688 420.551 75.5972 419.547 75.6544 418.539C75.3468 419.501 75.1133 420.485 74.956 421.483C74.5719 423.334 74.0714 425.918 73.5243 428.852L73.8036 428.654C73.1402 428.561 72.4534 428.467 71.7434 428.398C68.7817 428.081 65.7978 428.031 62.8271 428.246C61.6631 428.339 60.7668 428.456 60.1383 428.549C59.8159 428.589 59.4994 428.667 59.1954 428.782Z" fill="#263238"/>
<path d="M54.6093 419.645C54.6093 419.726 55.9712 419.412 58.1712 419.132C61.038 418.782 63.9351 418.755 66.808 419.051L68.3329 419.237H68.5889V418.993C68.8916 415.966 69.136 413.278 69.299 411.357C69.4305 410.327 69.4811 409.287 69.4503 408.249C69.2217 409.261 69.0622 410.288 68.9731 411.322C68.7286 413.243 68.426 415.92 68.1001 418.935L68.3794 418.725L66.808 418.562C63.9003 418.259 60.9654 418.337 58.078 418.795C57.2037 418.931 56.3373 419.114 55.4823 419.342C55.1805 419.408 54.8875 419.51 54.6093 419.645Z" fill="#263238"/>
<path d="M51.3035 333.136C51.4578 333.237 51.6215 333.323 51.7924 333.392L53.2125 334.021L58.4738 336.256L75.9338 343.484L76.8766 343.868L77.0978 343.961L77.1909 343.74C80.066 337.245 82.65 331.402 84.559 327.107L86.724 322.078L87.2944 320.705C87.3637 320.543 87.4183 320.376 87.4574 320.204C87.357 320.346 87.2712 320.499 87.2013 320.658C87.0267 321.019 86.8172 321.461 86.5494 321.997L84.2214 326.967L76.7136 343.542L77.0396 343.414L76.0967 343.03L58.66 335.93L53.3405 333.835L51.8855 333.287C51.6997 333.21 51.5037 333.159 51.3035 333.136Z" fill="#263238"/>
<path d="M47.02 312.102C47.1523 312.222 47.2966 312.327 47.4507 312.417L48.7311 313.243L53.4802 316.2L69.3223 325.873L69.5783 326.024L69.6831 325.745L69.9741 324.976L76.6205 307.051C77.4237 304.804 78.0872 302.953 78.5761 301.603L79.0882 300.113C79.1604 299.943 79.2074 299.762 79.2279 299.578C79.1379 299.739 79.0601 299.906 78.9951 300.078L78.448 301.533C77.9359 302.872 77.2142 304.699 76.3412 306.934C74.5952 311.59 72.209 317.853 69.5667 324.813C69.4736 325.069 69.3688 325.337 69.2873 325.57L69.6365 325.442L53.6781 315.909L48.8475 313.08L47.5205 312.335C47.3629 312.239 47.195 312.161 47.02 312.102Z" fill="#263238"/>
<path d="M48.4401 300.882C48.7676 301.122 49.1186 301.329 49.4877 301.499C50.1745 301.883 51.1639 302.441 52.3628 303.186C55.5448 305.156 58.4998 307.471 61.1743 310.089L61.7912 310.682L61.5817 309.844C61.3722 308.983 61.1743 308.063 61.023 307.121C60.3556 302.797 60.5894 298.382 61.7097 294.154C62.06 292.872 62.4757 291.61 62.9552 290.371C63.1685 289.933 63.3438 289.477 63.479 289.009C63.2113 289.42 62.9778 289.852 62.7806 290.301C62.2314 291.519 61.7609 292.771 61.3722 294.049C60.1387 298.316 59.8527 302.801 60.5341 307.19C60.6854 308.157 60.8949 309.088 61.1161 309.972L61.5235 309.74C58.8128 307.095 55.7915 304.789 52.5258 302.872C51.2919 302.162 50.2792 301.638 49.5692 301.312C49.2064 301.136 48.8285 300.991 48.4401 300.882Z" fill="#263238"/>
<path d="M103.975 409.96C104.006 410.385 104.08 410.807 104.196 411.217C104.359 412.02 104.603 413.184 104.871 414.628C105.573 418.438 106.012 422.292 106.186 426.163V426.384H106.384H107.478C112.309 426.675 116.674 426.919 119.84 427.059L123.588 427.21C124.045 427.253 124.505 427.253 124.961 427.21C124.514 427.11 124.058 427.051 123.6 427.036L119.863 426.722C116.697 426.489 112.332 426.198 107.513 425.907L106.419 425.849L106.652 426.081C106.48 422.228 106.002 418.394 105.22 414.616C104.906 413.161 104.615 412.009 104.382 411.217C104.288 410.786 104.151 410.365 103.975 409.96Z" fill="#263238"/>
<path d="M113.531 396.295C113.516 396.719 113.544 397.144 113.612 397.564C113.717 398.46 113.845 399.624 114.008 401.056C114.357 403.977 114.881 408.04 115.498 412.603V412.8H115.696L117.256 412.905C122.203 413.243 126.661 413.755 129.885 414.174L133.703 414.686C134.164 414.772 134.631 414.819 135.1 414.826C134.654 414.67 134.194 414.561 133.726 414.5C132.842 414.314 131.538 414.081 129.932 413.825C126.719 413.324 122.249 412.754 117.291 412.416L115.719 412.312L115.952 412.521C115.324 407.97 114.788 403.907 114.299 400.997C114.078 399.612 113.903 398.46 113.764 397.564C113.733 397.133 113.655 396.708 113.531 396.295Z" fill="#263238"/>
<path d="M124.787 390.381C124.717 390.381 125.02 391.72 125.357 393.873C125.824 396.722 126.088 399.601 126.149 402.487V402.755H126.428L127.243 402.65C130.29 402.282 133.357 402.099 136.427 402.103H139.232C139.572 402.143 139.916 402.143 140.256 402.103C139.927 402.005 139.587 401.95 139.244 401.94C138.58 401.87 137.626 401.789 136.438 401.754C133.348 401.642 130.254 401.774 127.185 402.149L126.358 402.254L126.638 402.499C126.573 399.59 126.258 396.693 125.695 393.838C125.474 392.756 125.264 391.883 125.101 391.289C125.041 390.973 124.935 390.667 124.787 390.381Z" fill="#263238"/>
<path d="M60.6737 404.14C61.297 405.828 62.024 407.477 62.8504 409.075C63.5263 410.743 64.3038 412.368 65.1784 413.941C64.7699 412.157 64.1444 410.429 63.316 408.796C62.6217 407.145 61.7348 405.583 60.6737 404.14Z" fill="#263238"/>
<path d="M54.5627 410.577C56.4259 410.862 58.2718 411.251 60.0917 411.741C61.8638 412.377 63.5972 413.115 65.2832 413.953C63.8304 412.68 62.1006 411.763 60.2314 411.276C58.4205 410.611 56.4809 410.372 54.5627 410.577Z" fill="#263238"/>
</svg>
