<svg width="562" height="532" viewBox="0 0 562 532" fill="none" xmlns="http://www.w3.org/2000/svg">
<path d="M165.99 467.851C165.99 467.851 255.457 507.307 348.441 461.605C441.425 415.903 493.072 315.497 537.053 235.262C581.035 155.027 563.777 68.8984 497.601 25.3909C431.425 -18.1166 381.325 35.2374 284.994 31.0175C188.663 26.7975 163.655 11.0431 80.5165 60.0365C-2.62189 109.03 -24.9572 237.386 32.1469 337.75C89.2509 438.114 165.99 467.851 165.99 467.851Z" fill="#807FDE"/>
<path opacity="0.7" d="M165.99 467.851C165.99 467.851 255.457 507.307 348.441 461.605C441.425 415.903 493.072 315.497 537.053 235.262C581.035 155.027 563.777 68.8984 497.601 25.3909C431.425 -18.1166 381.325 35.2374 284.994 31.0175C188.663 26.7975 163.655 11.0431 80.5165 60.0365C-2.62189 109.03 -24.9572 237.386 32.1469 337.75C89.2509 438.114 165.99 467.851 165.99 467.851Z" fill="white"/>
<path d="M83.4 99.732C61.9308 127.309 48.7148 160.406 45.2837 195.187L18.8696 191.333C22.9989 151.679 38.2611 114.002 62.8932 82.6554L83.4 99.732Z" stroke="#808080" stroke-linecap="round" stroke-linejoin="round"/>
<path d="M314.502 408.561C277.411 424.605 236.515 429.741 196.609 423.365C156.703 416.99 119.442 399.368 89.1948 372.565L106.903 352.59C133.357 376.011 165.936 391.409 200.825 396.979C235.713 402.55 271.467 398.062 303.897 384.043L314.502 408.561Z" stroke="#808080" stroke-linecap="round" stroke-linejoin="round"/>
<path d="M303.883 384.043C271.453 398.062 235.699 402.55 200.811 396.979C165.922 391.409 133.342 376.011 106.889 352.59L89.1947 372.565C61.2007 347.78 40.2415 316.047 28.4338 280.57L54.1025 273.073L64.9185 269.922L83.85 264.394L211.659 227.061L220.379 224.515L127.409 329.409C139.356 340.034 152.885 348.733 167.509 355.193L225.935 222.898L229.536 221.843L227.412 219.55L226.005 218.143L225.133 217.201L222.587 214.472L221.842 213.67L216.216 207.579L120.405 104.458L107.001 90.0262L99.3356 81.7692L81.1777 62.1465C120.853 23.0439 174.339 1.1551 230.042 1.22474V213.628L213.417 59.7833C186.402 62.6558 160.632 72.6398 138.732 88.718L230.042 213.628L246.723 367.473C262.207 365.829 277.351 361.835 291.633 355.629L299.453 373.704L303.883 384.043Z" stroke="#808080" stroke-linecap="round" stroke-linejoin="round"/>
<path d="M92.0077 106.962C71.8688 132.922 59.5185 164.069 56.3951 196.776L45.2837 195.187C48.72 160.416 61.9356 127.329 83.3999 99.7602L92.0077 106.962Z" stroke="#808080" stroke-linecap="round" stroke-linejoin="round"/>
<path d="M220.393 224.515L223.53 220.971L225.654 218.579L226.076 218.101L230.042 213.628H221.912H219.718H172.811H75.3267" stroke="#808080" stroke-linecap="round" stroke-linejoin="round"/>
<path d="M55.6356 213.628H44.3836H2.18848" stroke="#808080" stroke-linecap="round" stroke-linejoin="round"/>
<path d="M89.1808 372.565L65.4812 399.305" stroke="#808080" stroke-linecap="round" stroke-linejoin="round"/>
<path d="M106.888 352.59L114.357 344.165L127.423 329.409" stroke="#808080" stroke-linecap="round" stroke-linejoin="round"/>
<path d="M415.7 213.628C415.711 249.844 405.131 285.273 385.264 315.552C365.396 345.831 337.108 369.639 303.883 384.043L299.396 373.704C327.034 361.729 351.099 342.801 369.249 318.761C387.398 294.722 399.014 266.392 402.964 236.53C406.914 206.668 403.064 176.291 391.788 148.359C380.513 120.427 362.197 95.8912 338.624 77.1413L345.656 68.3217C367.523 85.6994 385.181 107.795 397.31 132.956C409.439 158.118 415.726 185.695 415.7 213.628Z" stroke="#808080" stroke-linecap="round" stroke-linejoin="round"/>
<path d="M338.624 77.1413L326.359 92.6144C316.035 84.3642 304.689 77.4805 292.603 72.1337L300.564 54.1005C314.183 60.1227 326.974 67.8661 338.624 77.1413V77.1413Z" stroke="#808080" stroke-linecap="round" stroke-linejoin="round"/>
<path d="M345.642 68.3217L383.351 20.9178H425.546" stroke="#808080" stroke-linecap="round" stroke-linejoin="round"/>
<path d="M326.359 92.5441L230.042 213.628" stroke="#808080" stroke-linecap="round" stroke-linejoin="round"/>
<path d="M216.539 88.6899L213.417 59.7833C186.402 62.6558 160.631 72.6399 138.732 88.718L155.891 112.195C173.679 99.144 194.603 91.0344 216.539 88.6899V88.6899Z" stroke="#808080" stroke-linecap="round" stroke-linejoin="round"/>
<path d="M244.037 343.152L246.723 367.473C262.208 365.829 277.351 361.835 291.633 355.629L281.787 332.841C269.819 338.226 257.081 341.705 244.037 343.152V343.152Z" stroke="#808080" stroke-linecap="round" stroke-linejoin="round"/>
<path d="M246.723 367.473C219.722 370.37 192.433 366.136 167.579 355.193L226.005 222.898L220.45 224.515L127.48 329.409C111.1 314.898 97.9892 297.072 89.0175 277.112C80.0458 257.152 75.4175 235.512 75.4393 213.628C75.4393 208.902 75.6503 204.218 76.0863 199.562C78.6895 170.473 89.5089 142.724 107.283 119.552C111.374 114.209 115.809 109.139 120.56 104.374C126.233 98.669 132.347 93.42 138.844 88.6758L230.155 213.586L246.723 367.473Z" stroke="#808080" stroke-linecap="round" stroke-linejoin="round"/>
<path d="M304.587 44.8307L300.522 54.0302" stroke="#808080" stroke-linecap="round" stroke-linejoin="round"/>
<path d="M292.561 72.0633L230.042 213.628" stroke="#808080" stroke-linecap="round" stroke-linejoin="round"/>
<path d="M210.21 30.1735L211.293 40.2029L213.417 59.7833" stroke="#808080" stroke-linecap="round" stroke-linejoin="round"/>
<path d="M230.042 213.628L61.2617 139.076" stroke="#808080" stroke-linecap="round" stroke-linejoin="round"/>
<path d="M76.2129 230.255L56.6344 232.379C55.9676 226.151 55.6343 219.892 55.6357 213.628H75.3268C75.3233 219.182 75.6191 224.732 76.2129 230.255V230.255Z" stroke="#808080" stroke-linecap="round" stroke-linejoin="round"/>
<path d="M56.6343 232.379L46.606 233.462" stroke="#808080" stroke-linecap="round" stroke-linejoin="round"/>
<path d="M230.042 213.628L81.0933 322.53" stroke="#808080" stroke-linecap="round" stroke-linejoin="round"/>
<path d="M155.497 382.425L159.562 373.226L167.523 355.193" stroke="#808080" stroke-linecap="round" stroke-linejoin="round"/>
<path d="M225.949 222.898L226.596 221.421L227.257 219.93L227.426 219.55L230.042 213.628" stroke="#808080" stroke-linecap="round" stroke-linejoin="round"/>
<path d="M251.308 421.98L248.791 387.053L246.667 367.473" stroke="#808080" stroke-linecap="round" stroke-linejoin="round"/>
<path d="M338.933 362.592L332.97 354.447L321.352 338.538" stroke="#808080" stroke-linecap="round" stroke-linejoin="round"/>
<path d="M230.042 213.628L398.822 288.18" stroke="#808080" stroke-linecap="round" stroke-linejoin="round"/>
<path d="M230.042 213.628L413.478 193.794" stroke="#808080" stroke-linecap="round" stroke-linejoin="round"/>
<path d="M378.991 104.726L370.847 110.69" stroke="#808080" stroke-linecap="round" stroke-linejoin="round"/>
<path d="M354.939 122.309L230.042 213.628" stroke="#808080" stroke-linecap="round" stroke-linejoin="round"/>
<path d="M230.042 96.8484C212.77 112.94 168.564 129.201 117.015 163.678C117.015 163.678 120.236 280.219 230.042 343.925V96.8484Z" fill="#807FDE" stroke="#263238" stroke-linecap="round" stroke-linejoin="round"/>
<path d="M230.042 96.8484C247.314 112.94 291.52 129.201 343.069 163.678C343.069 163.678 339.848 280.219 230.042 343.925V96.8484Z" fill="#263238" stroke="#263238" stroke-linecap="round" stroke-linejoin="round"/>
<path d="M230.042 106.765C209.197 121.24 173.064 135.025 125.3 166.984C125.3 166.984 128.295 274.972 230.042 333.995C331.788 274.972 334.77 167.054 334.77 167.054C287.019 135.025 251.055 121.24 230.042 106.765Z" fill="#263238" stroke="#263238" stroke-linecap="round" stroke-linejoin="round"/>
<path d="M334.77 167.054C286.949 135.095 251.055 121.31 230.042 106.836V333.995C331.788 274.972 334.77 167.054 334.77 167.054Z" fill="#807FDE" stroke="#263238" stroke-linecap="round" stroke-linejoin="round"/>
<path d="M269.719 215.639H191.659C190.816 215.649 189.98 215.492 189.199 215.178C188.417 214.864 187.705 214.4 187.103 213.811C186.501 213.222 186.02 212.52 185.69 211.745C185.359 210.97 185.184 210.138 185.175 209.296V173.3C185.175 148.725 205.583 128.723 230.689 128.723C255.795 128.723 276.26 148.768 276.26 173.3V209.253C276.254 210.104 276.08 210.944 275.748 211.727C275.415 212.509 274.931 213.218 274.322 213.812C273.714 214.406 272.994 214.873 272.204 215.187C271.414 215.501 270.569 215.654 269.719 215.639ZM198.143 202.98H263.236V173.3C262.987 164.832 259.448 156.796 253.372 150.895C247.295 144.993 239.159 141.693 230.689 141.693C222.219 141.693 214.083 144.993 208.006 150.895C201.93 156.796 198.391 164.832 198.143 173.3V202.98Z" fill="white" stroke="#263238" stroke-linecap="round" stroke-linejoin="round"/>
<path d="M279.734 198.296H180.35V280.514H279.734V198.296Z" fill="white" stroke="#263238" stroke-linecap="round" stroke-linejoin="round"/>
<path d="M240.38 232.435C240.279 229.632 239.094 226.977 237.075 225.03C235.057 223.082 232.361 221.994 229.557 221.994C226.752 221.994 224.057 223.082 222.038 225.03C220.019 226.977 218.835 229.632 218.734 232.435C218.736 234.354 219.261 236.236 220.252 237.879C221.243 239.522 222.663 240.864 224.36 241.761L222.545 260.441H236.456L234.641 241.761C236.358 240.879 237.801 239.544 238.813 237.9C239.825 236.255 240.367 234.365 240.38 232.435Z" fill="#263238" stroke="#263238" stroke-linecap="round" stroke-linejoin="round"/>
<path d="M475.589 38.2757H503.818V20.9178H487.432L485.772 16.6838H475.589V38.2757Z" fill="#807FDE" stroke="#263238" stroke-miterlimit="10"/>
<path d="M475.589 66.3242H503.818V48.9803H487.432L485.772 44.7322H475.589V66.3242Z" fill="#807FDE" stroke="#263238" stroke-miterlimit="10"/>
<path d="M475.589 94.3868H503.818V77.0288H487.432L485.772 72.7807H475.589V94.3868Z" fill="#263238" stroke="#263238" stroke-miterlimit="10"/>
<path d="M475.589 270.372H503.818V253.014H487.432L485.772 248.78H475.589V270.372Z" fill="#807FDE" stroke="#263238" stroke-miterlimit="10"/>
<path d="M475.589 298.421H503.818V281.077H487.432L485.772 276.829H475.589V298.421Z" fill="#807FDE" stroke="#263238" stroke-miterlimit="10"/>
<path d="M475.589 326.483H503.818V309.125H487.432L485.772 304.891H475.589V326.483Z" fill="#263238" stroke="#263238" stroke-miterlimit="10"/>
<path d="M475.589 356.177H503.818V338.819H487.432L485.772 334.585H475.589V356.177Z" fill="#807FDE" stroke="#263238" stroke-miterlimit="10"/>
<path d="M475.589 384.226H503.818V366.882H487.432L485.772 362.634H475.589V384.226Z" fill="#807FDE" stroke="#263238" stroke-miterlimit="10"/>
<path d="M475.589 412.288H503.818V394.93H487.432L485.772 390.696H475.589V412.288Z" fill="#263238" stroke="#263238" stroke-miterlimit="10"/>
<path d="M433.633 177.632C433.429 174.822 433.429 172.002 433.633 169.192" stroke="#263238" stroke-linecap="round" stroke-linejoin="round"/>
<path d="M442.79 176.9C442.621 174.526 442.621 172.143 442.79 169.769" stroke="#263238" stroke-linecap="round" stroke-linejoin="round"/>
<path d="M433.45 173.426L442.635 173.356" stroke="#263238" stroke-linecap="round" stroke-linejoin="round"/>
<path d="M433.647 168.095C433.89 165.288 434.322 162.502 434.942 159.754" stroke="#263238" stroke-linecap="round" stroke-linejoin="round"/>
<path d="M442.804 168.854C443.014 166.488 443.381 164.139 443.901 161.821" stroke="#263238" stroke-linecap="round" stroke-linejoin="round"/>
<path d="M434.154 163.903L443.226 165.31" stroke="#263238" stroke-linecap="round" stroke-linejoin="round"/>
<path d="M435.195 158.684C435.867 155.945 436.746 153.26 437.825 150.653" stroke="#263238" stroke-linecap="round" stroke-linejoin="round"/>
<path d="M444.112 160.907C444.684 158.597 445.422 156.331 446.32 154.127" stroke="#263238" stroke-linecap="round" stroke-linejoin="round"/>
<path d="M436.362 154.619L445.096 157.475" stroke="#263238" stroke-linecap="round" stroke-linejoin="round"/>
<path d="M438.247 149.64C439.36 147.051 440.658 144.546 442.129 142.142" stroke="#263238" stroke-linecap="round" stroke-linejoin="round"/>
<path d="M446.686 153.269C447.629 151.085 448.724 148.97 449.963 146.939" stroke="#263238" stroke-linecap="round" stroke-linejoin="round"/>
<path d="M440.047 145.828L448.205 150.048" stroke="#263238" stroke-linecap="round" stroke-linejoin="round"/>
<path d="M442.705 141.214C443.451 140.018 444.252 138.865 445.11 137.74L447.754 134.462" stroke="#263238" stroke-linecap="round" stroke-linejoin="round"/>
<path d="M450.455 146.151C451.085 145.137 451.765 144.156 452.495 143.211L454.731 140.398" stroke="#263238" stroke-linecap="round" stroke-linejoin="round"/>
<path d="M445.11 137.74L452.494 143.211" stroke="#263238" stroke-linecap="round" stroke-linejoin="round"/>
<path d="M448.444 133.604C449.4 132.577 450.413 131.593 451.397 130.58C451.904 130.087 452.368 129.567 452.902 129.173L454.52 127.766" stroke="#263238" stroke-linecap="round" stroke-linejoin="round"/>
<path d="M455.307 139.709L457.811 137.163C458.233 136.741 458.627 136.291 459.077 135.897L460.483 134.772" stroke="#263238" stroke-linecap="round" stroke-linejoin="round"/>
<path d="M451.397 130.58L457.811 137.163" stroke="#263238" stroke-linecap="round" stroke-linejoin="round"/>
<path d="M455.378 127.049C456.434 126.114 457.557 125.258 458.739 124.489C459.907 123.715 461.06 122.899 462.256 122.154" stroke="#263238" stroke-linecap="round" stroke-linejoin="round"/>
<path d="M461.173 134.167C462.055 133.379 462.995 132.66 463.986 132.015C464.984 131.367 465.955 130.608 466.953 130.045" stroke="#263238" stroke-linecap="round" stroke-linejoin="round"/>
<path d="M458.739 124.489L464 132.015" stroke="#263238" stroke-linecap="round" stroke-linejoin="round"/>
<path d="M463.226 121.633L466.939 119.622C468.219 119.045 469.527 118.525 470.821 117.976" stroke="#263238" stroke-linecap="round" stroke-linejoin="round"/>
<path d="M467.797 129.595L470.934 127.907L474.211 126.515" stroke="#263238" stroke-linecap="round" stroke-linejoin="round"/>
<path d="M466.939 119.622L470.934 127.907" stroke="#263238" stroke-linecap="round" stroke-linejoin="round"/>
<path d="M471.848 117.54C473.142 117.02 474.52 116.682 475.856 116.232L477.868 115.613L479.935 115.177" stroke="#263238" stroke-linecap="round" stroke-linejoin="round"/>
<path d="M475.069 126.149C476.18 125.699 477.333 125.417 478.458 125.052L480.174 124.517L481.918 124.151" stroke="#263238" stroke-linecap="round" stroke-linejoin="round"/>
<path d="M475.856 116.232L478.459 125.052" stroke="#263238" stroke-linecap="round" stroke-linejoin="round"/>
<path d="M481.018 115.008C482.385 114.689 483.771 114.458 485.167 114.319C486.574 114.178 487.98 113.981 489.387 113.897" stroke="#263238" stroke-linecap="round" stroke-linejoin="round"/>
<path d="M482.833 123.969C483.988 123.68 485.163 123.482 486.349 123.378C487.531 123.265 488.712 123.082 489.893 123.012" stroke="#263238" stroke-linecap="round" stroke-linejoin="round"/>
<path d="M485.167 114.263L486.349 123.378" stroke="#263238" stroke-linecap="round" stroke-linejoin="round"/>
<path d="M490.47 113.813L494.69 113.756L498.909 114.094" stroke="#263238" stroke-linecap="round" stroke-linejoin="round"/>
<path d="M490.822 122.998L494.394 122.942L497.953 123.237" stroke="#263238" stroke-linecap="round" stroke-linejoin="round"/>
<path d="M494.69 113.756L494.394 122.942" stroke="#263238" stroke-linecap="round" stroke-linejoin="round"/>
<path d="M500.006 114.178C501.413 114.347 502.819 114.657 504.226 114.896C504.915 115.022 505.632 115.135 506.293 115.275L508.333 115.852" stroke="#263238" stroke-linecap="round" stroke-linejoin="round"/>
<path d="M498.881 123.307C500.062 123.448 501.23 123.715 502.397 123.912C502.974 124.011 503.565 124.109 504.155 124.236L505.857 124.714" stroke="#263238" stroke-linecap="round" stroke-linejoin="round"/>
<path d="M504.169 114.896L502.397 123.912" stroke="#263238" stroke-linecap="round" stroke-linejoin="round"/>
<path d="M509.331 116.162C512.039 116.938 514.69 117.901 517.264 119.045" stroke="#263238" stroke-linecap="round" stroke-linejoin="round"/>
<path d="M506.757 124.981C509.039 125.641 511.276 126.449 513.452 127.401" stroke="#263238" stroke-linecap="round" stroke-linejoin="round"/>
<path d="M513.34 117.47L510.147 126.093" stroke="#263238" stroke-linecap="round" stroke-linejoin="round"/>
<path d="M518.249 119.552L522.004 121.479C523.228 122.168 524.381 122.984 525.562 123.743" stroke="#263238" stroke-linecap="round" stroke-linejoin="round"/>
<path d="M514.282 127.837L517.461 129.468C518.488 130.045 519.458 130.749 520.471 131.382" stroke="#263238" stroke-linecap="round" stroke-linejoin="round"/>
<path d="M522.004 121.479L517.461 129.468" stroke="#263238" stroke-linecap="round" stroke-linejoin="round"/>
<path d="M526.491 124.334C527.659 125.118 528.781 125.968 529.852 126.88C530.975 127.729 532.046 128.645 533.059 129.623" stroke="#263238" stroke-linecap="round" stroke-linejoin="round"/>
<path d="M521.244 131.888C522.226 132.546 523.165 133.265 524.057 134.04C525.017 134.752 525.929 135.528 526.786 136.361" stroke="#263238" stroke-linecap="round" stroke-linejoin="round"/>
<path d="M529.852 126.88L524.085 134.04" stroke="#263238" stroke-linecap="round" stroke-linejoin="round"/>
<path d="M533.847 130.397C534.831 131.396 535.886 132.338 536.814 133.393L539.501 136.656" stroke="#263238" stroke-linecap="round" stroke-linejoin="round"/>
<path d="M527.475 137.008C528.305 137.866 529.205 138.654 529.979 139.54L532.257 142.353" stroke="#263238" stroke-linecap="round" stroke-linejoin="round"/>
<path d="M536.814 133.393L529.979 139.54" stroke="#263238" stroke-linecap="round" stroke-linejoin="round"/>
<path d="M540.204 137.515C541.862 139.796 543.371 142.183 544.719 144.66" stroke="#263238" stroke-linecap="round" stroke-linejoin="round"/>
<path d="M532.848 143C534.24 144.93 535.509 146.945 536.646 149.035" stroke="#263238" stroke-linecap="round" stroke-linejoin="round"/>
<path d="M542.567 141.003L534.845 145.968" stroke="#263238" stroke-linecap="round" stroke-linejoin="round"/>
<path d="M545.239 145.617L546.224 147.474L547.054 149.429C547.574 150.723 548.193 152.003 548.615 153.339" stroke="#263238" stroke-linecap="round" stroke-linejoin="round"/>
<path d="M537.082 149.851L537.925 151.426L538.615 153.072C539.051 154.183 539.599 155.252 540.021 156.378" stroke="#263238" stroke-linecap="round" stroke-linejoin="round"/>
<path d="M547.054 149.429L538.615 153.072" stroke="#263238" stroke-linecap="round" stroke-linejoin="round"/>
<path d="M548.952 154.394C549.36 155.801 549.81 157.067 550.162 158.431L551.034 162.567" stroke="#263238" stroke-linecap="round" stroke-linejoin="round"/>
<path d="M540.218 157.278C540.556 158.417 540.949 159.543 541.259 160.696L541.99 164.184" stroke="#263238" stroke-linecap="round" stroke-linejoin="round"/>
<path d="M550.162 158.431L541.259 160.696" stroke="#263238" stroke-linecap="round" stroke-linejoin="round"/>
<path d="M551.259 163.65C551.661 166.446 551.887 169.265 551.934 172.09" stroke="#263238" stroke-linecap="round" stroke-linejoin="round"/>
<path d="M542.187 165.099C542.512 167.43 542.7 169.779 542.75 172.132" stroke="#263238" stroke-linecap="round" stroke-linejoin="round"/>
<path d="M551.723 167.842L542.567 168.644" stroke="#263238" stroke-linecap="round" stroke-linejoin="round"/>
<path d="M551.934 173.159C551.934 173.862 551.934 174.565 551.934 175.269L551.765 177.365C551.625 178.771 551.611 180.178 551.344 181.585" stroke="#263238" stroke-linecap="round" stroke-linejoin="round"/>
<path d="M542.764 173.145C542.764 173.736 542.764 174.326 542.764 174.917L542.623 176.704C542.565 177.891 542.443 179.074 542.258 180.248" stroke="#263238" stroke-linecap="round" stroke-linejoin="round"/>
<path d="M551.78 177.365L542.623 176.704" stroke="#263238" stroke-linecap="round" stroke-linejoin="round"/>
<path d="M551.161 182.654C550.894 184.06 550.697 185.467 550.373 186.803L549.22 190.868" stroke="#263238" stroke-linecap="round" stroke-linejoin="round"/>
<path d="M542.089 181.12C541.85 182.288 541.695 183.47 541.414 184.623L540.443 188.055" stroke="#263238" stroke-linecap="round" stroke-linejoin="round"/>
<path d="M550.373 186.803L541.428 184.665" stroke="#263238" stroke-linecap="round" stroke-linejoin="round"/>
<path d="M548.91 191.923C547.978 194.583 546.869 197.177 545.591 199.688" stroke="#263238" stroke-linecap="round" stroke-linejoin="round"/>
<path d="M540.204 188.998C539.407 191.236 538.467 193.42 537.391 195.539" stroke="#263238" stroke-linecap="round" stroke-linejoin="round"/>
<path d="M547.377 195.862L538.896 192.317" stroke="#263238" stroke-linecap="round" stroke-linejoin="round"/>
<path d="M545.084 200.673L544.114 202.544C543.762 203.148 543.354 203.725 542.989 204.33L540.682 207.847" stroke="#263238" stroke-linecap="round" stroke-linejoin="round"/>
<path d="M536.969 196.368L536.153 197.958C535.858 198.478 535.506 198.957 535.197 199.463L533.242 202.459" stroke="#263238" stroke-linecap="round" stroke-linejoin="round"/>
<path d="M542.989 204.33L535.197 199.463" stroke="#263238" stroke-linecap="round" stroke-linejoin="round"/>
<path d="M539.993 208.719L537.335 212.067C536.449 213.164 535.394 214.106 534.423 215.119" stroke="#263238" stroke-linecap="round" stroke-linejoin="round"/>
<path d="M532.651 203.177L530.415 205.99C529.669 206.918 528.769 207.706 527.953 208.564" stroke="#263238" stroke-linecap="round" stroke-linejoin="round"/>
<path d="M537.335 211.996L530.415 205.962" stroke="#263238" stroke-linecap="round" stroke-linejoin="round"/>
<path d="M533.65 215.836C532.656 216.84 531.598 217.78 530.485 218.65C529.427 219.578 528.314 220.443 527.152 221.238" stroke="#263238" stroke-linecap="round" stroke-linejoin="round"/>
<path d="M527.292 209.253C526.459 210.104 525.566 210.893 524.62 211.616C523.729 212.406 522.79 213.139 521.807 213.811" stroke="#263238" stroke-linecap="round" stroke-linejoin="round"/>
<path d="M530.485 218.636L524.62 211.56" stroke="#263238" stroke-linecap="round" stroke-linejoin="round"/>
<path d="M526.252 221.913C525.056 222.673 523.945 223.545 522.693 224.206L518.98 226.133" stroke="#263238" stroke-linecap="round" stroke-linejoin="round"/>
<path d="M520.991 214.261C519.979 214.908 519.05 215.668 517.995 216.202L514.859 217.904" stroke="#263238" stroke-linecap="round" stroke-linejoin="round"/>
<path d="M522.693 224.136L518.052 216.202" stroke="#263238" stroke-linecap="round" stroke-linejoin="round"/>
<path d="M517.995 226.625C515.437 227.804 512.801 228.805 510.105 229.622" stroke="#263238" stroke-linecap="round" stroke-linejoin="round"/>
<path d="M514.085 218.312C511.921 219.301 509.694 220.146 507.418 220.844" stroke="#263238" stroke-linecap="round" stroke-linejoin="round"/>
<path d="M514.099 228.271L510.794 219.691" stroke="#263238" stroke-linecap="round" stroke-linejoin="round"/>
<path d="M509.05 229.945C507.71 230.375 506.343 230.713 504.957 230.958C503.566 231.282 502.157 231.526 500.738 231.689" stroke="#263238" stroke-linecap="round" stroke-linejoin="round"/>
<path d="M506.518 221.111C505.387 221.478 504.231 221.76 503.058 221.955C501.906 222.242 500.736 222.454 499.556 222.588" stroke="#263238" stroke-linecap="round" stroke-linejoin="round"/>
<path d="M504.957 230.958L503.058 221.955" stroke="#263238" stroke-linecap="round" stroke-linejoin="round"/>
<path d="M499.711 231.76C498.304 231.886 496.898 232.153 495.491 232.139H491.272" stroke="#263238" stroke-linecap="round" stroke-linejoin="round"/>
<path d="M498.628 222.687C497.448 222.858 496.26 222.966 495.069 223.01H491.497" stroke="#263238" stroke-linecap="round" stroke-linejoin="round"/>
<path d="M495.505 232.196L495.069 223.01" stroke="#263238" stroke-linecap="round" stroke-linejoin="round"/>
<path d="M490.189 232.224C487.356 232.091 484.536 231.758 481.75 231.225" stroke="#263238" stroke-linecap="round" stroke-linejoin="round"/>
<path d="M490.569 223.038C488.208 222.917 485.858 222.635 483.536 222.194" stroke="#263238" stroke-linecap="round" stroke-linejoin="round"/>
<path d="M485.983 231.886L487.01 222.757" stroke="#263238" stroke-linecap="round" stroke-linejoin="round"/>
<path d="M480.723 231.028C479.339 230.775 477.972 230.437 476.63 230.015C475.263 229.676 473.919 229.248 472.607 228.735" stroke="#263238" stroke-linecap="round" stroke-linejoin="round"/>
<path d="M482.58 222.026C481.409 221.816 480.253 221.53 479.12 221.168C477.969 220.882 476.837 220.525 475.73 220.099" stroke="#263238" stroke-linecap="round" stroke-linejoin="round"/>
<path d="M476.63 230.015L479.119 221.168" stroke="#263238" stroke-linecap="round" stroke-linejoin="round"/>
<path d="M471.581 228.341C470.273 227.793 468.922 227.357 467.671 226.724L463.915 224.726" stroke="#263238" stroke-linecap="round" stroke-linejoin="round"/>
<path d="M474.858 219.761C473.761 219.297 472.622 218.945 471.567 218.354L468.402 216.723" stroke="#263238" stroke-linecap="round" stroke-linejoin="round"/>
<path d="M467.671 226.724L471.567 218.396" stroke="#263238" stroke-linecap="round" stroke-linejoin="round"/>
<path d="M462.945 224.276C460.61 222.701 458.163 221.308 455.912 219.508" stroke="#263238" stroke-linecap="round" stroke-linejoin="round"/>
<path d="M467.544 216.287C465.575 214.88 463.479 213.783 461.651 212.264" stroke="#263238" stroke-linecap="round" stroke-linejoin="round"/>
<path d="M459.4 221.969L464.576 214.374" stroke="#263238" stroke-linecap="round" stroke-linejoin="round"/>
<path d="M455.125 218.833C452.943 217.047 450.893 215.105 448.992 213.023" stroke="#263238" stroke-linecap="round" stroke-linejoin="round"/>
<path d="M460.948 211.729C459.112 210.214 457.382 208.573 455.772 206.82" stroke="#263238" stroke-linecap="round" stroke-linejoin="round"/>
<path d="M451.96 216.033L458.275 209.352" stroke="#263238" stroke-linecap="round" stroke-linejoin="round"/>
<path d="M448.247 212.221C446.395 210.098 444.689 207.852 443.141 205.498" stroke="#263238" stroke-linecap="round" stroke-linejoin="round"/>
<path d="M455.139 206.131C453.571 204.357 452.128 202.477 450.821 200.504" stroke="#263238" stroke-linecap="round" stroke-linejoin="round"/>
<path d="M445.574 208.944L452.888 203.374" stroke="#263238" stroke-linecap="round" stroke-linejoin="round"/>
<path d="M442.536 204.569C441.041 202.18 439.716 199.689 438.57 197.114" stroke="#263238" stroke-linecap="round" stroke-linejoin="round"/>
<path d="M450.314 199.688C449.053 197.668 447.934 195.563 446.967 193.386" stroke="#263238" stroke-linecap="round" stroke-linejoin="round"/>
<path d="M440.427 200.912L448.542 196.594" stroke="#263238" stroke-linecap="round" stroke-linejoin="round"/>
<path d="M438.12 196.115C437.04 193.512 436.137 190.837 435.419 188.111" stroke="#263238" stroke-linecap="round" stroke-linejoin="round"/>
<path d="M446.587 192.542C445.675 190.342 444.913 188.081 444.309 185.776" stroke="#263238" stroke-linecap="round" stroke-linejoin="round"/>
<path d="M436.643 192.163L445.335 189.195" stroke="#263238" stroke-linecap="round" stroke-linejoin="round"/>
<path d="M435.195 187.057C434.536 184.316 434.066 181.534 433.788 178.729" stroke="#263238" stroke-linecap="round" stroke-linejoin="round"/>
<path d="M444.07 184.876C443.518 182.56 443.118 180.211 442.874 177.843" stroke="#263238" stroke-linecap="round" stroke-linejoin="round"/>
<path d="M434.294 182.921L443.352 181.374" stroke="#263238" stroke-linecap="round" stroke-linejoin="round"/>
<path d="M493.143 137.163C498.224 137.226 503.233 138.368 507.839 140.514C512.446 142.659 516.544 145.759 519.862 149.608C523.18 153.457 525.642 157.967 527.085 162.84C528.529 167.712 528.921 172.836 528.235 177.871" stroke="#263238" stroke-width="2" stroke-miterlimit="10"/>
<path d="M459.26 160.133C461.892 153.306 466.548 147.447 472.604 143.342C478.66 139.236 485.827 137.08 493.142 137.163" stroke="#807FDE" stroke-width="5" stroke-miterlimit="10"/>
<path d="M499.176 208.269C492.913 209.415 486.457 208.872 480.473 206.696C474.489 204.52 469.192 200.789 465.128 195.888C461.063 190.986 458.377 185.09 457.345 178.806C456.314 172.522 456.975 166.077 459.259 160.133" stroke="#263238" stroke-width="2" stroke-miterlimit="10"/>
<path d="M528.235 177.871C527.207 185.352 523.845 192.318 518.627 197.776C513.409 203.234 506.603 206.906 499.176 208.269" stroke="#807FDE" stroke-width="5" stroke-miterlimit="10"/>
<path d="M194.092 387.053H222.32V369.695H205.935L204.275 365.447H194.092V387.053Z" fill="#807FDE" stroke="#263238" stroke-miterlimit="10"/>
<path d="M194.092 415.102H222.32V397.744H205.935L204.275 393.51H194.092V415.102Z" fill="#807FDE" stroke="#263238" stroke-miterlimit="10"/>
<path d="M194.092 443.15H222.32V425.792H205.935L204.275 421.558H194.092V443.15Z" fill="#263238" stroke="#263238" stroke-miterlimit="10"/>
<path d="M239.1 387.053H267.328V369.695H250.943L249.283 365.447H239.1V387.053Z" fill="#807FDE" stroke="#263238" stroke-miterlimit="10"/>
<path d="M239.1 415.102H267.328V397.744H250.943L249.283 393.51H239.1V415.102Z" fill="#263238" stroke="#263238" stroke-miterlimit="10"/>
<path d="M239.1 443.15H267.328V425.792H250.943L249.283 421.558H239.1V443.15Z" fill="#807FDE" stroke="#263238" stroke-miterlimit="10"/>
<path d="M194.092 33.9855H222.32V16.6275H205.935L204.275 12.3794H194.092V33.9855Z" fill="#807FDE" stroke="#263238" stroke-miterlimit="10"/>
<path d="M194.092 62.034H222.32V44.676H205.935L204.275 40.442H194.092V62.034Z" fill="#807FDE" stroke="#263238" stroke-miterlimit="10"/>
<path d="M194.092 90.0825H222.32V72.7245H205.935L204.275 68.4905H194.092V90.0825Z" fill="#807FDE" stroke="#263238" stroke-miterlimit="10"/>
<path d="M239.1 33.9855H267.328V16.6275H250.943L249.283 12.3794H239.1V33.9855Z" fill="#263238" stroke="#263238" stroke-miterlimit="10"/>
<path d="M239.1 62.034H267.328V44.676H250.943L249.283 40.442H239.1V62.034Z" fill="#807FDE" stroke="#263238" stroke-miterlimit="10"/>
<path d="M239.1 90.0825H267.328V72.7245H250.943L249.283 68.4905H239.1V90.0825Z" fill="#263238" stroke="#263238" stroke-miterlimit="10"/>
<path d="M397.317 531.53C440.041 531.53 474.675 526.176 474.675 519.573C474.675 512.97 440.041 507.617 397.317 507.617C354.594 507.617 319.959 512.97 319.959 519.573C319.959 526.176 354.594 531.53 397.317 531.53Z" fill="#263238"/>
<path d="M382.943 503.129C382.943 503.129 368.175 512.624 360.087 514.383C352 516.141 349.538 518.603 356.219 521.767C362.9 524.932 383.294 525.987 392.788 523.877C402.282 521.767 405.798 524.581 406.853 520.361C407.635 516.399 407.515 512.313 406.502 508.404C405.798 505.239 388.569 500.316 382.943 503.129Z" fill="white" stroke="#263238" stroke-linecap="round" stroke-linejoin="round"/>
<path d="M363.604 313.232C363.604 313.232 365.362 340.662 370.284 362.113C375.207 383.565 377.669 412.401 380.13 428.226C382.591 444.05 384.349 470.073 384.701 481.678C385.053 493.283 385.756 496.8 385.053 497.855C384.349 498.91 382.591 499.261 382.591 500.668C382.591 502.075 382.24 505.24 382.24 505.24C382.24 505.24 385.404 508.053 393.843 511.218C402.282 514.383 407.908 516.141 407.908 516.141C410.439 513.71 412.053 510.481 412.479 506.998C413.534 500.668 410.37 493.283 410.37 489.063C410.37 484.843 419.512 447.919 416.347 432.797C413.183 417.676 406.853 400.444 406.853 391.301C406.853 382.158 410.37 355.08 410.37 355.08C410.37 355.08 419.512 339.959 419.864 329.057C420.081 322.608 419.963 316.153 419.512 309.716C419.512 309.716 378.02 315.694 363.604 313.232Z" fill="#263238" stroke="#263238" stroke-linecap="round" stroke-linejoin="round"/>
<path d="M370.847 215.316C367.642 224.057 365.902 233.268 365.699 242.577C365.699 256.714 363.646 287.322 361.578 300.685C359.51 314.048 357.991 314.836 361.578 316.89C365.165 318.943 375.727 321.264 391.41 320.238C407.092 319.211 423.759 314.062 424.589 311.798C425.419 309.533 424.843 306.396 424.069 303.358C423.295 300.32 426.882 267.868 419.188 240.875C411.495 213.881 406.066 200.237 402.465 196.636L398.864 193.035L370.847 215.316Z" fill="#807FDE" stroke="#263238" stroke-linecap="round" stroke-linejoin="round"/>
<path d="M346.669 146.897C346.669 146.897 346.163 156.42 347.442 159.768C348.722 163.115 349.243 166.956 347.963 169.53C346.683 172.104 344.095 175.156 345.895 176.732C347.083 177.727 348.375 178.59 349.749 179.306C349.749 179.306 354.897 188.562 357.471 193.71C360.045 198.858 361.325 200.138 363.899 199.111C365.77 198.317 367.576 197.376 369.3 196.298C369.3 196.298 376.501 204.527 377.528 206.581C378.452 208.098 379.677 209.41 381.128 210.435L398.625 191.389C395.606 188.027 393.483 183.958 392.451 179.559C390.65 172.104 390.144 171.119 391.944 167.729C393.745 164.339 397.345 164.128 395.278 155.899C393.21 147.67 396.051 145.096 388.597 139.962C381.142 134.828 366.993 134.04 362.886 134.04C359.578 133.949 356.329 134.937 353.631 136.853C351.55 138.415 346.669 146.897 346.669 146.897Z" fill="white" stroke="#263238" stroke-linecap="round" stroke-linejoin="round"/>
<path d="M363.378 127.879C363.378 127.879 344.869 133.787 342.281 136.108C339.693 138.429 346.149 152.566 346.149 152.566L359.004 145.096L353.617 151.581C353.617 151.581 350.804 152.341 360.819 151.834C370.833 151.328 375.727 147.713 375.727 147.713C375.727 147.713 369.3 154.915 369.82 156.968C370.341 159.022 373.927 162.37 374.954 163.917C375.981 165.465 377.528 163.411 377.528 163.411C377.528 163.411 379.075 169.839 379.581 168.292C380.07 166 380.413 163.679 380.608 161.343C380.608 161.343 382.929 156.209 386.234 157.489C389.539 158.769 391.368 166.998 389.047 170.866C387.596 173.193 385.287 174.856 382.619 175.494C382.619 175.494 388.02 181.402 389.553 180.122C391.086 178.842 391.621 176.268 392.648 174.973C393.674 173.679 406.53 162.637 408.119 154.661C409.709 146.686 398.091 127.401 389.089 125.6C380.088 123.8 363.378 127.879 363.378 127.879Z" fill="#263238" stroke="#263238" stroke-linecap="round" stroke-linejoin="round"/>
<path d="M348.062 161.146L350.157 169.586C350.256 170.034 350.495 170.438 350.839 170.741C351.183 171.045 351.614 171.231 352.07 171.274C354.419 171.485 358.709 171.696 359.271 170.585C360.045 169.051 359.018 159.022 357.724 157.475C356.149 155.576 352.562 157.095 350.818 157.925C350.112 158.318 349.431 158.755 348.779 159.233C348.488 159.449 348.266 159.745 348.139 160.084C348.011 160.423 347.985 160.792 348.062 161.146Z" fill="white" stroke="#263238" stroke-linecap="round" stroke-linejoin="round"/>
<path d="M359.524 161.554L380.875 159.5L359.623 163.875L359.524 161.554Z" fill="#263238" stroke="#263238" stroke-linecap="round" stroke-linejoin="round"/>
<path d="M381.381 175.494C381.381 175.494 384.476 184.496 382.408 187.057C380.341 189.617 373.674 193.752 373.674 193.752" fill="white"/>
<path d="M381.381 175.494C381.381 175.494 384.476 184.496 382.408 187.057C380.341 189.617 373.674 193.752 373.674 193.752" stroke="#263238" stroke-linecap="round" stroke-linejoin="round"/>
<path d="M398.625 186.255C398.625 186.255 365.713 216.343 366.487 217.116C367.26 217.89 373.125 226.822 373.125 226.822C377.624 220.11 382.474 213.64 387.654 207.439C393.078 201.706 398.801 196.264 404.8 191.136L398.625 186.255Z" fill="#263238" stroke="#263238" stroke-linecap="round" stroke-linejoin="round"/>
<path d="M321.268 266.996C321.268 266.996 312.013 266.996 310.212 269.064C308.412 271.132 313.293 273.171 315.093 273.424C317.346 273.414 319.59 273.159 321.788 272.665L321.268 266.996Z" fill="white" stroke="#263238" stroke-linecap="round" stroke-linejoin="round"/>
<path d="M325.332 264.689C325.332 264.689 321.211 263.142 320.185 266.49C319.158 269.837 321.732 279.853 323.265 280.12C324.798 280.387 325.586 279.346 325.586 276.266C325.586 273.185 325.332 264.689 325.332 264.689Z" fill="white" stroke="#263238" stroke-linecap="round" stroke-linejoin="round"/>
<path d="M332.52 264.112C332.52 264.112 327.119 261.032 325.051 263.339C322.984 265.646 325.318 279.29 325.318 279.29C326.851 280.064 329.425 271.061 331.746 268.234C332.794 267.034 333.735 265.744 334.559 264.38L332.52 264.112Z" fill="white" stroke="#263238" stroke-linecap="round" stroke-linejoin="round"/>
<path d="M365.952 264.436C365.952 264.436 352.59 276.772 350.27 276.772C347.949 276.772 338.441 265.716 336.134 264.436C333.828 263.156 330.733 270.344 329.96 272.665C329.376 275.196 329.033 277.777 328.933 280.373C329.088 280.58 329.294 280.743 329.531 280.847C329.768 280.951 330.027 280.992 330.284 280.967C330.541 280.941 330.788 280.85 330.999 280.702C331.211 280.553 331.381 280.353 331.493 280.12C333.098 277.385 334.558 274.568 335.867 271.68L337.414 273.748" fill="white"/>
<path d="M365.952 264.436C365.952 264.436 352.59 276.772 350.27 276.772C347.949 276.772 338.441 265.716 336.134 264.436C333.828 263.156 330.733 270.344 329.96 272.665C329.376 275.196 329.033 277.777 328.933 280.373C329.088 280.58 329.294 280.743 329.531 280.847C329.768 280.951 330.027 280.992 330.284 280.967C330.541 280.941 330.788 280.85 330.999 280.702C331.211 280.553 331.381 280.353 331.493 280.12C333.098 277.385 334.558 274.568 335.867 271.68L337.414 273.748" stroke="#263238" stroke-linecap="round" stroke-linejoin="round"/>
<path d="M344.616 273.171C344.616 273.171 336.641 274.465 335.361 276.772C334.081 279.079 333.814 279.346 336.641 279.586C339.468 279.825 346.163 280.612 347.19 279.332C348.216 278.052 345.642 273.424 344.616 273.171Z" fill="white" stroke="#263238" stroke-linecap="round" stroke-linejoin="round"/>
<path d="M298.328 288.855L266.442 219.17L285.978 220.197L313.504 285.522L298.328 288.855Z" fill="#7D7D7D" stroke="#263238" stroke-linecap="round" stroke-linejoin="round"/>
<path d="M311.703 280.626L297.554 286.802H374.954L364.419 280.12L311.703 280.626Z" fill="#7D7D7D" stroke="#263238" stroke-linecap="round" stroke-linejoin="round"/>
<path d="M395.531 214.796C395.531 214.796 385.756 216.596 384.209 225.345C382.661 234.095 387.022 267.545 387.022 268.29V274.465C387.022 275.999 393.196 275.492 400.397 278.826C407.599 282.16 411.973 287.575 411.973 283.454C411.973 279.332 410.946 230.001 410.946 230.001" fill="#807FDE"/>
<path d="M395.531 214.796C395.531 214.796 385.756 216.596 384.209 225.345C382.661 234.095 387.022 267.545 387.022 268.29V274.465C387.022 275.999 393.196 275.492 400.397 278.826C407.599 282.16 411.973 287.575 411.973 283.454C411.973 279.332 410.946 230.001 410.946 230.001" stroke="#263238" stroke-linecap="round" stroke-linejoin="round"/>
<path d="M411.467 249.765L415.588 235.628" stroke="#263238" stroke-linecap="round" stroke-linejoin="round"/>
<path d="M382.155 270.344L383.435 281.4C383.435 281.4 411.467 297.858 412.24 297.351C413.014 296.845 413.787 295.284 413.787 292.724C413.787 290.163 417.894 276.772 413.014 273.692C408.133 270.611 390.186 270.091 390.186 270.091C390.186 270.091 384.982 269.064 382.155 270.344Z" fill="#263238" stroke="#263238" stroke-linecap="round" stroke-linejoin="round"/>
<path d="M385.503 280.894C385.503 280.894 359.018 290.403 341.788 291.429C324.559 292.456 322.505 291.429 322.505 291.429C322.505 291.429 320.958 285.254 318.384 283.721C315.81 282.188 307.582 283.454 306.035 282.427C304.488 281.4 304.502 278.066 303.475 277.025C302.449 275.984 297.849 276.519 297.849 276.519C297.849 276.519 295.543 277.799 295.543 279.6C295.543 281.4 293.995 292.977 296.049 294.004C298.102 295.03 324.854 300.179 334.882 300.179C344.911 300.179 374.49 302.992 389.652 300.685C404.814 298.378 410.482 296.578 409.976 292.456C409.469 288.335 390.383 279.853 385.503 280.894Z" fill="white" stroke="#263238" stroke-linecap="round" stroke-linejoin="round"/>
<path d="M296.527 278.066L297.047 291.683" stroke="#263238" stroke-linecap="round" stroke-linejoin="round"/>
<path d="M300.648 276.772L301.408 290.149" stroke="#263238" stroke-linecap="round" stroke-linejoin="round"/>
<path d="M306.035 282.399C306.035 282.399 305.008 285.493 306.809 286.773C308.609 288.054 315.557 289.094 315.557 289.094" fill="white"/>
<path d="M306.035 282.399C306.035 282.399 305.008 285.493 306.809 286.773C308.609 288.054 315.557 289.094 315.557 289.094" stroke="#263238" stroke-linecap="round" stroke-linejoin="round"/>
<path d="M382.676 244.63H370.326V264.942H382.676V244.63Z" fill="white" stroke="#263238" stroke-linecap="round" stroke-linejoin="round"/>
</svg>
