<svg width="58" height="48" viewBox="0 0 58 48" fill="none" xmlns="http://www.w3.org/2000/svg">
<path d="M10.7342 26.9569L0.166077 29.5617L9.65364 33.1995L4.5211 38.9345C4.5211 38.9345 18.3651 41.9346 28.3081 47.3309C28.5104 47.4425 28.755 47.5025 29.006 47.5021C29.257 47.5018 29.5013 47.4411 29.7031 47.329C29.905 47.2168 30.0538 47.0591 30.1278 46.8789C30.2018 46.6986 30.1972 46.5053 30.1146 46.3272C27.8618 41.4879 22.0462 31.546 10.7342 26.9569Z" fill="black"/>
<path d="M57.8341 29.5617L47.266 26.9569C39.735 30.0122 34.6414 35.4394 31.4122 40.1545C32.4409 41.7866 33.356 43.4579 34.1536 45.1615C43.3177 41.1371 53.4791 38.9345 53.4791 38.9345L48.3466 33.1995L57.8341 29.5617Z" fill="black"/>
<path d="M41.5896 2.91801C41.5018 2.41882 41.2606 1.94183 40.8852 1.52477C40.5098 1.10771 40.0103 0.762017 39.4265 0.515042C38.8426 0.268067 38.1902 0.126582 37.521 0.101779C36.8518 0.0769764 36.1841 0.169536 35.5707 0.372135L31.5273 1.70763C30.7307 1.97073 29.8701 2.10658 28.9999 2.10658C28.1298 2.10658 27.2692 1.97073 26.4726 1.70763L22.4292 0.372135C21.8158 0.169536 21.1481 0.0769764 20.4789 0.101779C19.8097 0.126582 19.1573 0.268067 18.5734 0.515042C17.9895 0.762017 17.4901 1.10771 17.1147 1.52477C16.7392 1.94183 16.4981 2.41882 16.4103 2.91801L15.6461 7.26301H42.3538L41.5896 2.91801Z" fill="black"/>
<path d="M10.5083 17.8845H47.492C48.1682 17.8838 48.8163 17.6814 49.2941 17.3218C49.7719 16.9622 50.0403 16.4749 50.0403 15.9667C50.0403 15.4586 49.7719 14.9712 49.2941 14.6116C48.8163 14.252 48.1682 14.0497 47.492 14.049H43.5475L43.0286 11.0986H14.9718L14.4529 14.049H10.5083C9.83215 14.0497 9.18401 14.252 8.70623 14.6116C8.22844 14.9712 7.96008 15.4586 7.96008 15.9667C7.96008 16.4749 8.22844 16.9622 8.70623 17.3218C9.18401 17.6814 9.83215 17.8838 10.5083 17.8845H10.5083Z" fill="black"/>
<path d="M13.1109 22.0239C13.0016 22.0239 12.8955 22.0512 12.8093 22.1017C12.7231 22.1521 12.6618 22.2227 12.635 22.3023C12.6083 22.3819 12.6176 22.4659 12.6615 22.541C12.7054 22.6162 12.7815 22.6782 12.8776 22.7172H12.8776C19.9289 25.5767 25.0239 30.1819 28.5814 34.6182C28.6249 34.6729 28.6866 34.7181 28.7604 34.7494C28.8342 34.7807 28.9176 34.797 29.0024 34.7968C29.0871 34.7966 29.1703 34.7798 29.2439 34.7481C29.3174 34.7164 29.3787 34.6709 29.4217 34.6161C33.7598 29.1883 39.0263 25.1889 45.1213 22.7172H45.1213C45.2174 22.6782 45.2934 22.6162 45.3374 22.541C45.3813 22.4659 45.3906 22.3819 45.3638 22.3023C45.3371 22.2227 45.2757 22.1521 45.1895 22.1017C45.1033 22.0512 44.9972 22.0239 44.888 22.0239H13.1109Z" fill="black"/>
</svg>
