<svg width="537" height="534" viewBox="0 0 537 534" fill="none" xmlns="http://www.w3.org/2000/svg">
<path d="M168.297 42.5915C168.297 42.5915 77.0697 89.0659 31.5705 160.68C-13.9286 232.294 -10.3287 324.424 44.959 392.811C100.247 461.198 205.922 452.216 294.404 495.536C382.886 538.856 480.506 529.935 522.345 438.154C564.184 346.373 501.094 312.071 490.258 205.854C479.422 99.637 383.668 -55.8957 168.297 42.5915Z" fill="#807FDE"/>
<path opacity="0.7" d="M168.297 42.5915C168.297 42.5915 77.0697 89.0659 31.5705 160.68C-13.9286 232.294 -10.3287 324.424 44.959 392.811C100.247 461.198 205.922 452.216 294.404 495.536C382.886 538.856 480.506 529.935 522.345 438.154C564.184 346.373 501.094 312.071 490.258 205.854C479.422 99.637 383.668 -55.8957 168.297 42.5915Z" fill="white"/>
<path d="M115.694 411.69C119.306 410.486 125.711 404.598 125.711 404.586C125.711 404.574 120.558 401.588 120.209 401.444C116.152 399.734 107.302 398.819 104.087 402.563C103.579 403.2 103.209 403.937 103.002 404.725C102.795 405.513 102.754 406.336 102.883 407.141C103.013 407.946 103.309 408.715 103.752 409.399C104.196 410.082 104.778 410.666 105.46 411.112C108.301 413.135 112.564 412.701 115.694 411.69Z" fill="#9C9C9C"/>
<path d="M182.408 354.933C182.492 354.933 179.759 349.6 179.542 349.275C177.134 345.663 170.223 339.968 165.479 341.316C164.697 341.562 163.976 341.97 163.361 342.513C162.747 343.056 162.253 343.722 161.913 344.467C161.572 345.213 161.392 346.022 161.384 346.842C161.377 347.662 161.541 348.474 161.867 349.227C163.156 352.453 166.948 354.452 170.127 355.331C173.859 356.366 182.396 354.946 182.408 354.933Z" fill="#9C9C9C"/>
<path d="M134.585 428.437C137.691 426.403 141.977 419.6 142.314 419.058C146.201 421.518 150.247 423.714 154.427 425.632C156.835 426.764 159.339 427.835 161.843 428.871C160.639 428.558 159.544 428.305 159.435 428.281C155.065 427.703 146.288 429.16 144.181 433.615C143.85 434.367 143.683 435.181 143.689 436.003C143.694 436.825 143.874 437.636 144.215 438.384C144.556 439.132 145.05 439.799 145.667 440.342C146.284 440.886 147.008 441.293 147.793 441.537C151.068 442.741 155.017 441.164 157.822 439.358C160.627 437.552 164.384 431.785 165.359 430.255L168.249 431.459C172.884 433.302 177.507 435.071 181.998 437.046C183.576 437.72 185.105 438.455 186.646 439.165C185.562 438.9 184.659 438.683 184.515 438.671C180.144 438.094 171.379 439.55 169.26 444.005C168.93 444.757 168.762 445.57 168.768 446.391C168.774 447.212 168.953 448.022 169.294 448.769C169.635 449.516 170.13 450.182 170.747 450.725C171.364 451.267 172.088 451.673 172.872 451.915C176.159 453.119 180.156 451.542 182.901 449.736C185.646 447.93 189.09 442.729 190.27 440.923C191.811 441.706 193.364 442.488 194.833 443.331C195.82 443.921 196.82 444.415 197.783 445.065L200.648 446.907C202.418 448.111 204.26 449.411 205.97 450.663C207.174 451.53 208.282 452.373 209.413 453.216C207.848 452.529 204.754 451.229 204.477 451.157C200.251 449.953 191.353 450.037 188.596 454.119C188.154 454.81 187.863 455.586 187.742 456.397C187.621 457.208 187.672 458.035 187.893 458.825C188.113 459.615 188.498 460.349 189.022 460.98C189.545 461.611 190.196 462.124 190.932 462.487C193.99 464.136 198.156 463.221 201.178 461.848C204.465 460.343 209.606 454.528 210.184 453.794C212.05 455.202 213.856 456.587 215.53 457.923C220.418 461.788 224.487 465.268 227.57 467.989L229.978 465.798C226.751 463.077 222.441 459.537 217.251 455.612C215.361 454.179 213.314 452.674 211.231 451.157C212.343 448.932 213.324 446.645 214.169 444.306C217.865 444.679 224.825 442.765 225.728 442.512C226.51 444.716 227.245 446.871 227.907 448.905C229.809 454.721 231.266 459.741 232.338 463.727L235.035 461.319C233.915 457.598 232.47 453.059 230.676 447.942C229.893 445.703 229.015 443.331 228.075 440.899C228.906 440.429 235.6 436.528 237.707 433.591C239.622 430.918 241.319 426.981 240.284 423.646C240.065 422.857 239.684 422.123 239.164 421.49C238.644 420.858 237.997 420.342 237.265 419.976C236.533 419.609 235.733 419.4 234.915 419.363C234.097 419.325 233.281 419.459 232.518 419.757C227.979 421.695 226.173 430.4 226.57 434.783C226.57 435.047 227.172 437.829 227.558 439.599C227.172 438.599 226.811 437.636 226.354 436.625C225.559 434.602 224.704 432.615 223.801 430.472C223.32 429.449 222.85 428.425 222.356 427.39C221.863 426.355 221.285 425.307 220.743 424.248C219.455 421.84 218.022 419.432 216.517 417.024C218.287 416.325 224.512 413.749 226.823 411.389C229.135 409.029 231.398 405.369 230.869 401.961C230.776 401.148 230.512 400.363 230.095 399.658C229.679 398.953 229.118 398.344 228.45 397.87C227.782 397.397 227.022 397.069 226.219 396.909C225.416 396.749 224.588 396.76 223.789 396.941C218.973 398.145 215.903 406.501 215.638 410.895C215.638 411.16 215.783 414.339 215.903 416.084C214.988 414.664 214.085 413.243 213.122 411.834C210.328 407.777 207.367 403.755 204.441 399.734C203.538 398.53 202.659 397.266 201.78 396.026C202.406 395.785 209.871 392.883 212.46 390.247C214.759 387.839 217.035 384.227 216.517 380.807C216.422 379.993 216.157 379.208 215.739 378.503C215.321 377.798 214.76 377.189 214.091 376.716C213.422 376.242 212.661 375.914 211.857 375.754C211.053 375.594 210.225 375.605 209.425 375.787C204.609 376.991 201.539 385.346 201.274 389.741C201.274 390.078 201.491 394.641 201.611 395.761C199.661 393.028 197.747 390.295 195.965 387.526C193.535 383.801 191.355 379.92 189.439 375.907C189.728 375.799 197.53 372.801 200.179 370.092C202.478 367.684 204.754 364.072 204.236 360.664C204.143 359.851 203.88 359.066 203.463 358.361C203.046 357.656 202.486 357.047 201.818 356.573C201.15 356.099 200.389 355.772 199.586 355.612C198.783 355.451 197.955 355.462 197.157 355.644C192.341 356.848 189.27 365.203 189.006 369.598C189.006 369.887 189.162 373.366 189.283 375.016L189.018 375.088C187.186 371.002 185.727 366.759 184.659 362.41C184.045 360.002 183.588 357.702 183.19 355.451C184.695 355.042 191.618 353.103 194.243 350.924C196.868 348.745 199.444 345.47 199.312 341.99C199.305 341.171 199.126 340.362 198.787 339.617C198.448 338.871 197.956 338.204 197.344 337.661C196.731 337.117 196.01 336.708 195.23 336.461C194.449 336.213 193.624 336.132 192.81 336.223C187.934 336.909 183.925 344.856 183.178 349.202C183.178 349.431 182.986 351.875 182.901 353.657C182.745 352.634 182.552 351.586 182.42 350.599C181.902 346.903 181.649 343.495 181.444 340.473C181.348 338.751 181.3 337.186 181.264 335.729C182.528 334.525 187.609 329.709 188.933 326.663C190.258 323.617 191.04 319.439 189.319 316.405C188.937 315.679 188.407 315.042 187.763 314.534C187.119 314.026 186.375 313.66 185.58 313.459C184.785 313.258 183.957 313.227 183.149 313.367C182.341 313.508 181.571 313.817 180.891 314.274C176.869 317.14 176.978 326.037 178.314 330.239C178.434 330.6 180.879 336.067 180.951 336.006L181.023 335.934C181.023 337.331 181.023 338.836 181.119 340.485C181.252 343.519 181.42 346.951 181.866 350.671C182.3 354.68 182.968 358.66 183.865 362.591C184.847 367.004 186.225 371.32 187.982 375.486L188.054 375.63C187.115 374.534 184.382 371.561 184.141 371.356C180.818 368.466 172.691 364.842 168.489 367.395C167.8 367.837 167.211 368.42 166.761 369.105C166.312 369.79 166.012 370.563 165.881 371.371C165.751 372.18 165.792 373.008 166.003 373.8C166.214 374.592 166.589 375.33 167.105 375.967C169.2 378.748 173.378 379.675 176.677 379.687C180.385 379.687 187.705 376.376 188.295 376.075C190.181 380.273 192.345 384.339 194.773 388.248C196.169 390.524 197.65 392.787 199.167 395.026C198.325 394.111 197.566 393.293 197.446 393.184C194.123 390.307 185.996 386.671 181.794 389.223C181.104 389.665 180.515 390.248 180.065 390.933C179.616 391.619 179.316 392.391 179.186 393.2C179.055 394.009 179.096 394.836 179.307 395.628C179.518 396.42 179.893 397.159 180.409 397.796C182.492 400.589 186.682 401.504 189.981 401.516C193.28 401.528 199.613 398.819 201.274 398.085C201.864 398.939 202.478 399.806 203.044 400.661C205.886 404.743 208.739 408.824 211.472 412.894C212.423 414.339 213.302 415.783 214.181 417.228C213.435 416.409 212.797 415.735 212.688 415.639C209.365 412.749 201.238 409.125 197.036 411.678C196.347 412.121 195.76 412.704 195.311 413.39C194.863 414.076 194.564 414.848 194.435 415.657C194.305 416.466 194.348 417.293 194.56 418.085C194.771 418.876 195.148 419.614 195.664 420.25C197.747 423.031 201.937 423.959 205.223 423.971C208.51 423.983 214.253 421.563 216.228 420.672C217.095 422.177 217.962 423.682 218.72 425.187C219.226 426.222 219.78 427.185 220.213 428.257C220.647 429.328 221.14 430.352 221.586 431.375C222.393 433.398 223.223 435.469 223.994 437.455C224.512 438.828 224.981 440.152 225.451 441.477C224.536 440.032 222.657 437.251 222.477 437.034C219.853 434.17 216.536 432.031 212.845 430.821C212.571 430.487 212.264 430.18 211.93 429.906C211.313 429.367 210.591 428.964 209.808 428.722C209.026 428.481 208.202 428.406 207.389 428.504C206.576 428.601 205.793 428.869 205.09 429.289C204.387 429.709 203.78 430.272 203.309 430.942C200.588 435.059 203.887 443.319 206.644 446.762C206.801 446.967 208.811 448.966 210.1 450.206L207.379 448.436C205.609 447.232 203.767 446.028 201.864 444.716L198.963 442.934C197.999 442.32 196.916 441.79 195.88 441.212C193.472 439.912 190.956 438.708 188.404 437.6C189.487 436.047 193.22 430.472 193.882 427.221C194.544 423.971 194.387 419.708 192.064 417.12C191.536 416.494 190.882 415.985 190.145 415.628C189.408 415.271 188.604 415.073 187.785 415.047C186.966 415.021 186.151 415.167 185.393 415.477C184.635 415.786 183.95 416.252 183.383 416.843C180.072 420.455 182.083 429.16 184.274 432.977C184.418 433.217 186.297 435.77 187.368 437.154C185.827 436.48 184.286 435.794 182.709 435.156C178.133 433.314 173.45 431.544 168.79 429.846C167.358 429.316 165.937 428.763 164.516 428.221C164.914 427.679 169.537 421.141 170.235 417.505C170.861 414.278 170.753 409.992 168.417 407.404C167.889 406.777 167.236 406.269 166.498 405.912C165.761 405.555 164.957 405.357 164.138 405.331C163.32 405.304 162.505 405.451 161.746 405.76C160.988 406.07 160.303 406.535 159.736 407.127C156.425 410.739 158.436 419.444 160.639 423.26C160.796 423.549 163.517 427.221 164.251 428.076C161.121 426.872 158.015 425.668 154.993 424.332C150.913 422.565 146.955 420.53 143.145 418.24C143.326 417.987 148.19 411.184 148.9 407.464C149.514 404.237 149.406 399.951 147.082 397.362C146.554 396.736 145.901 396.228 145.163 395.871C144.426 395.513 143.622 395.315 142.804 395.289C141.985 395.263 141.17 395.409 140.411 395.719C139.653 396.028 138.968 396.494 138.401 397.085C135.09 400.697 137.101 409.402 139.292 413.219C139.437 413.472 141.508 416.277 142.531 417.589L142.339 417.794C138.562 415.391 135.008 412.655 131.719 409.619C129.877 407.969 128.216 406.296 126.638 404.622C127.674 403.418 132.345 398.036 133.369 394.75C134.392 391.463 134.693 387.333 132.67 384.516C132.211 383.837 131.615 383.262 130.919 382.828C130.224 382.395 129.445 382.112 128.634 381.999C127.822 381.885 126.996 381.943 126.208 382.17C125.421 382.396 124.689 382.785 124.062 383.312C120.378 386.586 121.425 395.424 123.183 399.457C123.279 399.674 124.507 401.793 125.422 403.322C124.724 402.563 123.99 401.793 123.327 401.046C120.919 398.253 118.764 395.544 116.934 393.124C115.899 391.74 114.996 390.475 114.153 389.283C114.574 387.598 116.164 380.795 115.562 377.484C114.96 374.173 113.322 370.26 110.216 368.719C109.499 368.325 108.707 368.086 107.891 368.018C107.076 367.95 106.255 368.055 105.483 368.325C104.711 368.595 104.004 369.025 103.409 369.587C102.813 370.149 102.343 370.829 102.029 371.585C100.259 376.184 105.255 383.54 108.675 386.309C108.976 386.55 114.032 389.753 114.057 389.669C114.059 389.633 114.059 389.596 114.057 389.56C114.839 390.764 115.694 391.968 116.645 393.317C118.427 395.725 120.474 398.542 122.894 401.396C125.471 404.501 128.225 407.456 131.141 410.245C134.398 413.359 137.924 416.179 141.676 418.673L141.821 418.757C140.436 418.36 136.511 417.385 136.198 417.349C131.828 416.771 123.062 418.228 120.943 422.682C120.613 423.435 120.445 424.249 120.451 425.071C120.457 425.892 120.636 426.704 120.977 427.451C121.318 428.199 121.813 428.867 122.43 429.41C123.046 429.953 123.771 430.36 124.555 430.605C127.842 431.785 131.84 430.256 134.585 428.437Z" fill="#9C9C9C"/>
<path d="M359.841 123.007C362.418 127.317 371.701 133.638 371.713 133.638C371.725 133.638 374.024 126.257 374.121 125.764C375.108 120.141 373.711 108.679 368.101 105.693C367.147 105.223 366.105 104.958 365.043 104.917C363.981 104.876 362.922 105.059 361.935 105.454C360.948 105.85 360.055 106.448 359.315 107.211C358.574 107.974 358.003 108.885 357.638 109.883C355.892 114.073 357.65 119.346 359.841 123.007Z" fill="#9C9C9C"/>
<path d="M450.876 191.081C450.876 191.19 456.896 186.193 457.221 185.832C461.158 181.678 466.311 171.384 463.241 165.737C462.705 164.818 461.981 164.023 461.118 163.403C460.254 162.782 459.269 162.351 458.228 162.136C457.186 161.921 456.111 161.928 455.073 162.157C454.034 162.385 453.055 162.83 452.2 163.461C448.48 166.026 447.047 171.396 446.842 175.658C446.613 180.667 450.876 191.069 450.876 191.081Z" fill="#9C9C9C"/>
<path d="M344.081 151.746C347.56 155.081 357.409 158.549 358.192 158.814C356.205 164.443 354.596 170.199 353.376 176.043C352.641 179.438 352.003 182.894 351.413 186.361C351.413 184.736 351.413 183.279 351.413 183.074C350.883 177.391 346.513 166.7 340.264 165.315C339.22 165.112 338.144 165.131 337.108 165.371C336.071 165.611 335.097 166.067 334.249 166.709C333.4 167.351 332.696 168.164 332.183 169.096C331.67 170.028 331.359 171.058 331.27 172.118C330.74 176.609 333.847 181.232 336.929 184.158C340.011 187.084 348.391 190.286 350.606 191.081C350.39 192.405 350.161 193.742 349.956 195.066C348.957 201.459 347.994 207.841 346.85 214.077C346.453 216.269 345.971 218.424 345.501 220.579C345.501 219.134 345.501 217.918 345.501 217.737C344.972 212.043 340.601 201.363 334.352 199.966C333.308 199.765 332.233 199.786 331.197 200.028C330.161 200.269 329.188 200.726 328.341 201.369C327.493 202.012 326.791 202.826 326.279 203.759C325.767 204.691 325.458 205.721 325.371 206.781C324.841 211.26 327.935 215.883 331.017 218.821C334.1 221.759 341.673 224.624 344.261 225.588C343.72 227.779 343.178 229.97 342.552 232.065C342.082 233.486 341.745 234.882 341.203 236.291L339.686 240.445C338.639 243.046 337.567 245.743 336.471 248.271C335.725 250.017 334.978 251.678 334.232 253.352C334.653 251.173 335.436 246.886 335.436 246.525C335.773 240.818 333.028 229.597 327.104 227.261C326.102 226.902 325.036 226.758 323.974 226.839C322.913 226.92 321.881 227.223 320.944 227.73C320.008 228.237 319.19 228.935 318.541 229.78C317.893 230.624 317.431 231.596 317.183 232.631C315.979 236.977 318.387 242.022 320.94 245.405C323.805 249.138 332.631 253.906 333.738 254.496C332.534 257.253 331.258 259.938 330.054 262.442C326.563 269.75 323.336 275.891 320.783 280.598L324.263 283.079C326.791 278.263 330.018 271.749 333.486 264.043C334.762 261.238 336.074 258.216 337.386 255.098C340.519 255.871 343.695 256.454 346.898 256.843C347.5 261.659 351.919 269.895 352.497 270.954C349.932 272.58 347.428 274.133 345.032 275.554C338.229 279.647 332.245 282.946 327.562 285.438L331.354 288.147C335.749 285.667 341.071 282.537 347.006 278.792C349.619 277.155 352.376 275.349 355.182 273.471C356.012 274.386 362.875 281.73 367.222 283.56C371.159 285.21 376.625 286.233 380.538 283.957C381.477 283.458 382.299 282.765 382.952 281.926C383.605 281.086 384.073 280.118 384.327 279.085C384.58 278.053 384.613 276.978 384.423 275.932C384.232 274.885 383.823 273.891 383.223 273.013C379.466 267.824 367.932 268.053 362.49 269.823C362.177 269.931 358.818 271.448 356.723 272.447C357.867 271.677 358.986 270.93 360.154 270.124C362.478 268.534 364.753 266.885 367.198 265.127L370.689 262.418C371.893 261.527 373.013 260.455 374.193 259.468C376.878 257.132 379.49 254.652 382.055 252.051C383.452 254.074 388.508 261.214 392.156 263.453C395.805 265.693 401.054 267.523 405.256 265.861C406.26 265.509 407.178 264.949 407.951 264.218C408.724 263.487 409.334 262.601 409.742 261.619C410.15 260.636 410.346 259.579 410.318 258.515C410.289 257.452 410.038 256.406 409.578 255.447C406.653 249.752 395.203 248.223 389.568 249.15C389.219 249.21 385.245 250.354 383.078 250.98C384.607 249.427 386.148 247.874 387.641 246.236C391.976 241.541 396.214 236.604 400.452 231.788C401.752 230.295 403.077 228.826 404.377 227.357C404.871 228.08 410.686 236.688 414.78 239.205C418.392 241.432 423.677 243.274 427.891 241.613C428.894 241.259 429.811 240.698 430.582 239.967C431.354 239.235 431.963 238.349 432.37 237.367C432.776 236.385 432.971 235.328 432.942 234.265C432.913 233.202 432.661 232.157 432.201 231.198C429.276 225.503 417.826 223.974 412.191 224.901C411.77 224.961 406.051 226.587 404.618 227.068C407.507 223.818 410.409 220.603 413.407 217.545C417.426 213.403 421.709 209.526 426.23 205.938C426.458 206.275 432.49 215.293 436.68 217.87C440.292 220.097 445.578 221.927 449.792 220.278C450.795 219.924 451.712 219.363 452.483 218.632C453.255 217.9 453.864 217.015 454.27 216.032C454.677 215.05 454.872 213.993 454.843 212.93C454.814 211.867 454.562 210.822 454.102 209.863C451.177 204.168 439.727 202.639 434.092 203.578C433.719 203.578 429.372 204.867 427.313 205.493L427.145 205.168C431.796 201.681 436.747 198.615 441.942 196.005C444.783 194.536 447.577 193.296 450.37 192.14C451.321 193.934 455.764 202.085 459.279 204.819C462.795 207.552 467.707 209.839 472.042 208.659C473.077 208.418 474.049 207.962 474.896 207.32C475.744 206.678 476.446 205.865 476.958 204.934C477.47 204.002 477.781 202.974 477.869 201.915C477.958 200.856 477.822 199.79 477.472 198.787C475.184 192.767 463.987 190.021 458.28 190.359C457.967 190.359 454.825 190.9 452.549 191.298C453.753 190.804 455.077 190.262 456.281 189.805C460.809 188.083 465.047 186.783 468.827 185.663C470.97 185.037 472.933 184.459 474.763 184.05C476.617 185.326 484.142 190.371 488.452 191.153C492.763 191.936 498.217 191.743 501.54 188.685C502.348 187.993 503.001 187.14 503.457 186.179C503.913 185.218 504.162 184.172 504.187 183.109C504.212 182.046 504.012 180.99 503.602 180.009C503.192 179.028 502.579 178.144 501.805 177.416C496.989 173.165 485.804 175.862 480.879 178.752C480.446 179.005 474.245 183.688 474.341 183.761L474.45 183.833C472.68 184.242 470.778 184.712 468.707 185.254C464.914 186.301 460.616 187.517 456.041 189.142C451.089 190.868 446.241 192.878 441.52 195.162C436.223 197.681 431.159 200.663 426.386 204.072L426.23 204.205C427.337 202.7 430.323 198.389 430.516 198.028C433.213 192.983 435.464 181.666 431.022 177.054C430.26 176.312 429.351 175.738 428.354 175.369C427.357 175 426.293 174.845 425.232 174.913C424.171 174.981 423.136 175.271 422.194 175.765C421.252 176.258 420.424 176.943 419.764 177.777C416.85 181.232 416.887 186.795 417.826 190.961C418.885 195.656 425.182 203.976 425.688 204.638C420.922 208.234 416.401 212.143 412.155 216.341C409.663 218.749 407.243 221.301 404.835 223.866C405.762 222.529 406.568 221.325 406.665 221.145C409.362 216.112 411.613 204.782 407.17 200.183C406.412 199.438 405.505 198.861 404.508 198.49C403.511 198.119 402.447 197.963 401.386 198.031C400.325 198.099 399.29 198.39 398.349 198.886C397.408 199.381 396.582 200.069 395.925 200.906C392.999 204.349 393.035 209.911 393.974 214.077C394.914 218.243 400.163 225.515 401.572 227.394L398.827 230.367C394.468 235.183 390.146 239.939 385.751 244.502C384.21 246.116 382.621 247.645 381.044 249.186C381.862 247.982 382.549 246.995 382.633 246.778C385.33 241.745 387.581 230.416 383.138 225.816C382.379 225.072 381.471 224.495 380.474 224.124C379.477 223.754 378.413 223.596 377.352 223.663C376.29 223.73 375.254 224.02 374.312 224.513C373.369 225.007 372.541 225.693 371.881 226.527C368.967 229.982 369.004 235.545 369.943 239.71C370.882 243.876 375.613 250.438 377.287 252.69C375.626 254.207 373.964 255.736 372.278 257.144C371.074 258.071 370.051 259.047 368.823 259.926L365.271 262.55C362.959 264.152 360.576 265.801 358.276 267.306C356.675 268.354 355.145 269.329 353.592 270.316C355.158 268.727 358.143 265.56 358.408 265.271C361.272 261.136 363.029 256.336 363.513 251.329C363.853 250.884 364.152 250.408 364.404 249.908C364.909 248.972 365.211 247.94 365.291 246.879C365.371 245.818 365.227 244.752 364.868 243.751C364.509 242.75 363.944 241.835 363.208 241.066C362.473 240.297 361.584 239.692 360.6 239.289C354.58 237.038 345.104 243.587 341.552 248.066C341.336 248.331 339.385 251.449 338.181 253.436C338.711 252.16 339.241 250.932 339.77 249.607C340.83 247.007 341.817 244.382 342.877 241.553C343.346 240.168 343.828 238.771 344.297 237.363C344.767 235.954 345.152 234.449 345.598 232.98C346.549 229.537 347.344 226.021 348.066 222.445C350.342 223.372 358.493 226.539 362.779 226.394C367.065 226.25 372.411 224.877 375.048 221.181C375.689 220.332 376.144 219.358 376.384 218.322C376.623 217.286 376.642 216.211 376.439 215.168C376.235 214.124 375.815 213.135 375.204 212.264C374.593 211.394 373.805 210.662 372.892 210.116C367.318 206.974 356.927 212.018 352.737 215.895C352.473 216.148 349.776 219.267 348.331 221.012C348.74 218.869 349.174 216.726 349.535 214.535C350.546 208.214 351.377 201.797 352.244 195.391C352.497 193.429 352.786 191.478 353.063 189.528C353.869 189.865 363.477 193.838 368.281 193.67C372.543 193.525 377.913 192.152 380.538 188.456C381.179 187.609 381.635 186.635 381.876 185.6C382.117 184.564 382.136 183.49 381.934 182.446C381.732 181.402 381.312 180.413 380.703 179.542C380.093 178.671 379.306 177.938 378.395 177.391C372.808 174.261 362.418 179.294 358.228 183.183C357.915 183.472 354.038 187.999 353.111 189.203C353.725 184.904 354.315 180.618 355.182 176.416C356.262 170.739 357.705 165.137 359.504 159.644C359.877 159.801 369.882 164.003 374.807 163.834C379.069 163.678 384.439 162.317 387.064 158.621C387.705 157.772 388.161 156.798 388.402 155.762C388.643 154.725 388.663 153.65 388.461 152.605C388.258 151.56 387.839 150.57 387.229 149.698C386.619 148.826 385.832 148.092 384.92 147.544C379.334 144.414 368.955 149.447 364.753 153.336C364.476 153.588 361.527 157.02 360.154 158.681L359.841 158.501C361.772 153.03 364.19 147.743 367.065 142.704C368.63 139.911 370.268 137.322 371.881 134.842C373.663 135.817 381.862 140.164 386.329 140.513C390.591 140.826 396.094 140.055 399.091 136.672C399.822 135.899 400.381 134.981 400.733 133.978C401.085 132.975 401.221 131.908 401.134 130.849C401.046 129.789 400.737 128.76 400.225 127.828C399.714 126.896 399.011 126.082 398.164 125.439C392.963 121.706 382.091 125.571 377.492 128.979C377.251 129.159 374.915 131.314 373.242 132.916C374 131.808 374.771 130.652 375.529 129.605C378.347 125.68 381.176 122.248 383.692 119.226C385.149 117.529 386.498 116.012 387.762 114.615C390.013 114.615 399.079 114.711 403.101 112.989C407.122 111.268 411.529 108.089 412.661 103.707C412.953 102.682 413.026 101.608 412.876 100.553C412.725 99.499 412.353 98.4882 411.785 97.5871C411.217 96.686 410.465 95.9149 409.578 95.3242C408.692 94.7335 407.691 94.3364 406.641 94.1589C400.308 93.2439 392.433 101.696 389.917 106.825C389.7 107.27 387.112 114.603 387.22 114.603H387.365C386.161 115.927 384.776 117.36 383.355 118.961C380.767 121.923 377.853 125.306 374.927 129.183C371.736 133.339 368.79 137.677 366.102 142.174C363.075 147.198 360.5 152.48 358.408 157.959L358.336 158.164C358.444 156.285 358.541 151.048 358.505 150.639C357.975 144.944 353.604 134.264 347.356 132.88C346.312 132.678 345.238 132.699 344.203 132.94C343.168 133.181 342.195 133.637 341.348 134.278C340.501 134.92 339.798 135.733 339.286 136.664C338.773 137.595 338.463 138.623 338.374 139.682C337.904 144.173 340.998 148.796 344.081 151.746Z" fill="#9C9C9C"/>
<path d="M416.899 363.687V359.653C416.899 338.884 443.194 337.981 443.194 323.196C443.194 316.779 437.969 312.589 430.191 312.589C421.679 312.589 416.297 317.224 416.297 323.798V325.448C416.297 327.085 415.406 327.856 413.756 327.856L397.779 327.254C396.286 327.254 395.239 326.507 395.239 325.472V323.822C395.239 305.762 409.578 293.349 430.648 293.349C451.261 293.349 464.553 305.004 464.553 322.474C464.553 347.276 437.812 347.433 437.812 361.002V363.687C437.853 364.03 437.815 364.378 437.702 364.705C437.588 365.032 437.403 365.329 437.158 365.573C436.913 365.818 436.617 366.003 436.29 366.117C435.963 366.23 435.615 366.268 435.272 366.227H419.439C419.096 366.268 418.748 366.23 418.421 366.117C418.094 366.003 417.797 365.818 417.553 365.573C417.308 365.329 417.123 365.032 417.009 364.705C416.896 364.378 416.858 364.03 416.899 363.687V363.687ZM415.55 387.767C415.55 381.193 421.378 375.811 428.397 375.811C435.127 375.811 441.099 381.193 441.099 387.767C441.099 394.341 435.079 399.723 428.252 399.723C421.426 399.723 415.55 394.317 415.55 387.743V387.767Z" fill="#263238"/>
<path d="M101.21 192.598V189.094C101.21 171.034 124.086 170.276 124.086 157.429C124.086 151.843 119.547 148.219 112.804 148.219C105.4 148.219 100.764 152.24 100.764 157.947V159.38C100.764 160.8 99.9939 161.451 98.5611 161.451L84.679 160.933C83.3787 160.933 82.4757 160.283 82.4757 159.38V157.947C82.4757 142.295 94.9251 131.459 113.226 131.459C131.129 131.459 142.688 141.585 142.688 156.743C142.688 178.283 119.451 178.415 119.451 190.226V192.562C119.485 192.86 119.452 193.161 119.354 193.445C119.255 193.728 119.094 193.985 118.882 194.197C118.67 194.409 118.413 194.57 118.13 194.668C117.847 194.767 117.545 194.8 117.247 194.765H103.413C103.119 194.799 102.821 194.767 102.54 194.67C102.26 194.574 102.005 194.416 101.794 194.208C101.583 194 101.421 193.748 101.32 193.469C101.219 193.191 101.181 192.893 101.21 192.598V192.598ZM100.006 213.488C100.006 207.781 105.063 203.109 111.155 203.109C116.994 203.109 122.196 207.781 122.196 213.488C122.196 219.194 116.994 223.866 111.035 223.866C108.203 223.937 105.459 222.886 103.4 220.942C101.34 218.998 100.133 216.318 100.042 213.488H100.006Z" fill="#807FDE"/>
<path d="M391.807 54.4392V52.6694C391.807 43.5551 403.342 43.1578 403.342 36.6682C403.342 33.8508 401.042 32.0087 397.635 32.0087C393.902 32.0087 391.542 34.0435 391.542 36.9331V37.6555C391.542 38.3779 391.145 38.703 390.423 38.703L383.415 38.4381C382.753 38.4381 382.296 38.113 382.296 37.6555V36.9331C382.296 28.9987 388.593 23.5566 397.839 23.5566C406.881 23.5566 412.721 28.6736 412.721 36.3431C412.721 47.1791 400.982 47.2875 400.982 53.1991V54.4031C401 54.5539 400.983 54.7067 400.932 54.85C400.882 54.9933 400.8 55.1233 400.692 55.23C400.584 55.3368 400.453 55.4176 400.31 55.4662C400.166 55.5149 400.013 55.5301 399.862 55.5108H392.915C392.768 55.5295 392.619 55.5149 392.479 55.4682C392.338 55.4216 392.21 55.3439 392.104 55.241C391.998 55.1381 391.916 55.0127 391.864 54.8739C391.813 54.7351 391.794 54.5866 391.807 54.4392V54.4392ZM391.217 64.9983C391.14 63.8725 391.403 62.7495 391.973 61.7754C392.542 60.8012 393.392 60.0209 394.411 59.536C395.43 59.0511 396.571 58.884 397.686 59.0564C398.801 59.2288 399.839 59.7328 400.664 60.5028C401.489 61.2729 402.063 62.2733 402.311 63.374C402.56 64.4746 402.472 65.6247 402.058 66.6746C401.644 67.7244 400.924 68.6255 399.992 69.2606C399.059 69.8957 397.957 70.2355 396.828 70.2357C396.115 70.2614 395.405 70.1463 394.737 69.8968C394.069 69.6473 393.457 69.2684 392.935 68.7818C392.414 68.2953 391.994 67.7106 391.699 67.0613C391.404 66.4121 391.241 65.711 391.217 64.9983Z" fill="#807FDE"/>
<path d="M53.688 297.936V295.709C53.688 284.223 68.2324 283.729 68.2324 275.542C68.2324 271.99 65.3428 269.678 61.0084 269.678C56.3007 269.678 53.3268 272.243 53.3268 275.879V276.782C53.3268 277.697 52.8332 278.106 51.9182 278.106L43.0808 277.781C42.25 277.781 41.6721 277.36 41.6721 276.782V275.879C41.6721 265.886 49.6065 259.023 61.2612 259.023C72.6631 259.023 80.0075 265.464 80.0075 275.132C80.0075 288.846 65.2224 288.93 65.2224 296.455V297.936C65.2457 298.127 65.2254 298.32 65.1628 298.502C65.1003 298.683 64.9972 298.848 64.8615 298.984C64.7257 299.12 64.5608 299.223 64.3792 299.285C64.1977 299.348 64.0043 299.368 63.8137 299.345H55.0726C54.8839 299.364 54.6933 299.341 54.5148 299.277C54.3363 299.212 54.1746 299.109 54.0416 298.974C53.9086 298.838 53.8078 298.675 53.7466 298.495C53.6854 298.316 53.6654 298.125 53.688 297.936V297.936ZM52.9416 311.24C52.8473 309.822 53.1822 308.408 53.9028 307.183C54.6234 305.957 55.6962 304.977 56.9816 304.37C58.267 303.763 59.7054 303.556 61.1096 303.778C62.5138 304 63.8187 304.639 64.8545 305.613C65.8903 306.586 66.6089 307.849 66.9169 309.237C67.2249 310.625 67.1079 312.074 66.5811 313.394C66.0544 314.714 65.1424 315.846 63.9638 316.641C62.7851 317.435 61.3945 317.857 59.9729 317.85C58.1609 317.909 56.3999 317.245 55.0769 316.006C53.7539 314.766 52.9772 313.052 52.9175 311.24H52.9416Z" stroke="#263238" stroke-miterlimit="10"/>
<path d="M164.456 90.1018V88.5728C164.456 80.6745 174.461 80.3253 174.461 74.7027C174.461 72.2947 172.475 70.6693 169.513 70.6693C166.274 70.6693 164.227 72.4271 164.227 74.9314V75.5575C164.227 76.1836 163.89 76.4605 163.264 76.4605L157.244 76.2318C156.678 76.2318 156.281 75.9548 156.281 75.5575V74.9314C156.281 68.0566 161.735 63.3369 169.742 63.3369C177.748 63.3369 182.516 67.7676 182.516 74.4137C182.516 83.8531 172.342 83.9133 172.342 89.0784V90.1018C172.358 90.232 172.343 90.3641 172.301 90.488C172.258 90.6119 172.187 90.7245 172.094 90.8172C172.002 90.9099 171.889 90.9804 171.765 91.0233C171.641 91.0663 171.509 91.0805 171.379 91.065H165.359C165.234 91.0711 165.108 91.0498 164.992 91.0026C164.876 90.9555 164.771 90.8836 164.685 90.792C164.599 90.7004 164.534 90.5913 164.495 90.4721C164.455 90.3529 164.442 90.2266 164.456 90.1018V90.1018ZM163.95 99.2522C163.897 98.2902 164.134 97.3344 164.63 96.5083C165.126 95.6823 165.858 95.024 166.732 94.6185C167.606 94.2131 168.582 94.0791 169.533 94.2339C170.484 94.3888 171.367 94.8253 172.067 95.487C172.767 96.1488 173.253 97.0054 173.461 97.9461C173.669 98.8868 173.591 99.8683 173.235 100.764C172.88 101.659 172.264 102.428 171.467 102.97C170.671 103.511 169.73 103.802 168.766 103.803C167.523 103.846 166.313 103.393 165.404 102.544C164.494 101.695 163.958 100.52 163.914 99.2763L163.95 99.2522Z" fill="#263238"/>
<path d="M342.648 420.178V418.649C342.648 410.751 352.653 410.414 352.653 404.779C352.653 402.371 350.667 400.746 347.705 400.746C344.466 400.746 342.419 402.504 342.419 405.008V405.634C342.419 406.26 342.082 406.549 341.456 406.549L335.436 406.32C334.87 406.32 334.473 406.032 334.473 405.634V405.008C334.473 398.133 339.927 393.414 347.934 393.414C355.94 393.414 360.84 397.844 360.84 404.502C360.84 413.93 350.667 413.99 350.667 419.155V420.178C350.682 420.309 350.667 420.442 350.625 420.566C350.582 420.69 350.511 420.803 350.419 420.897C350.327 420.991 350.214 421.062 350.09 421.107C349.967 421.151 349.834 421.167 349.703 421.154H343.683C343.547 421.18 343.407 421.173 343.274 421.134C343.14 421.095 343.018 421.025 342.917 420.93C342.816 420.835 342.739 420.717 342.692 420.587C342.646 420.456 342.63 420.316 342.648 420.178V420.178ZM342.142 429.329C342.089 428.367 342.326 427.411 342.822 426.585C343.318 425.759 344.05 425.101 344.924 424.695C345.798 424.29 346.774 424.156 347.725 424.311C348.676 424.465 349.559 424.902 350.259 425.564C350.959 426.225 351.445 427.082 351.653 428.023C351.862 428.963 351.783 429.945 351.427 430.841C351.072 431.736 350.456 432.504 349.659 433.046C348.863 433.588 347.922 433.879 346.958 433.88C345.719 433.909 344.518 433.447 343.618 432.594C342.718 431.742 342.192 430.568 342.154 429.329H342.142Z" stroke="#263238" stroke-miterlimit="10"/>
<path d="M295.511 447.581C295.427 447.329 295.343 447.076 295.246 446.823C295.15 446.57 295.078 446.305 294.982 446.052C294.885 445.799 294.813 445.547 294.717 445.294C294.62 445.041 294.548 444.776 294.452 444.523C294.356 444.27 294.283 444.018 294.187 443.765C294.091 443.512 294.018 443.247 293.922 442.994L293.657 442.236C293.573 441.971 293.477 441.718 293.392 441.465L293.127 440.707C293.043 440.442 292.947 440.189 292.863 439.936L292.598 439.177C292.513 438.913 292.417 438.66 292.333 438.407L292.08 437.6C291.996 437.335 291.899 437.082 291.815 436.83L291.538 436.071C291.454 435.806 291.37 435.553 291.273 435.301C291.177 435.048 291.105 434.795 291.008 434.542C290.912 434.289 290.84 434.024 290.744 433.772C290.647 433.519 290.575 433.266 290.479 433.013C286.554 421.069 274.417 412.304 261.065 412.304C248.122 412.304 236.865 419.841 232.169 430.461C232.049 430.701 231.94 430.954 231.832 431.195L231.507 431.941C231.386 432.182 231.278 432.423 231.17 432.676C231.061 432.929 230.941 433.17 230.832 433.41L230.507 434.145C230.387 434.398 230.279 434.638 230.17 434.891C230.062 435.144 229.942 435.373 229.833 435.626C229.725 435.878 229.604 436.107 229.496 436.36L229.171 437.095C229.051 437.335 228.942 437.588 228.834 437.829C228.725 438.07 228.605 438.323 228.497 438.563L228.172 439.31C228.051 439.551 227.943 439.792 227.835 440.044C227.726 440.297 227.606 440.538 227.497 440.779L227.172 441.513C227.052 441.766 226.944 442.007 226.835 442.26C226.727 442.513 226.606 442.741 226.498 442.994L226.173 443.729C226.053 443.969 225.944 444.222 225.836 444.463C225.728 444.704 225.607 444.957 225.499 445.21C223.433 449.609 222.372 454.412 222.392 459.272C222.392 478.657 239.128 494.501 259.825 494.501C280.076 494.501 297.691 478.657 297.691 459.272C297.687 455.576 297.039 451.91 295.776 448.436C295.692 448.087 295.608 447.834 295.511 447.581Z" fill="#263238"/>
<path d="M266.868 180.907C204.778 180.907 162.505 217.448 162.505 270.737V275.553C162.517 276.349 162.733 277.128 163.134 277.816C163.535 278.504 164.106 279.076 164.793 279.478C165.053 279.728 165.335 279.954 165.636 280.152C165.897 280.406 166.183 280.632 166.491 280.827C166.752 281.08 167.038 281.306 167.346 281.501C167.604 281.757 167.891 281.983 168.2 282.175C168.457 282.429 168.74 282.655 169.043 282.849C169.304 283.107 169.59 283.337 169.898 283.536C170.162 283.786 170.448 284.012 170.753 284.21C171.014 284.463 171.301 284.689 171.608 284.884C171.865 285.137 172.147 285.363 172.451 285.558C172.733 285.831 173.044 286.073 173.378 286.281C173.623 286.504 173.885 286.71 174.16 286.895C174.424 287.145 174.71 287.371 175.015 287.569C175.275 287.819 175.557 288.045 175.858 288.243C176.122 288.493 176.408 288.719 176.713 288.918C176.974 289.17 177.261 289.396 177.568 289.592C177.825 289.845 178.107 290.071 178.41 290.266C178.672 290.519 178.958 290.745 179.265 290.94C179.522 291.193 179.805 291.419 180.108 291.615C180.372 291.865 180.658 292.09 180.963 292.289C181.22 292.542 181.503 292.768 181.806 292.963C183.197 294.187 185.012 294.818 186.862 294.721L225.583 296.166C229.568 296.166 231.735 294.36 231.735 290.374V286.401C231.735 270.472 244.763 259.263 265.447 259.263C284.266 259.263 296.932 269.389 296.932 284.956C296.932 286.73 296.763 288.5 296.426 290.242C276.994 315.719 226.414 326.952 226.414 376.4V388.296C226.414 393.112 229.051 395.773 233.903 395.773H280.522C285.338 395.773 288.01 393.136 288.01 388.296V380.361C288.01 340.292 366.836 339.847 366.836 266.752C366.836 215.245 327.634 180.907 266.868 180.907Z" fill="#263238"/>
<path d="M226.355 388.32V376.425C226.355 315.213 303.856 312.613 303.856 268.98C303.856 250.041 288.445 237.676 265.545 237.676C240.442 237.676 224.609 251.329 224.609 270.702V275.518C224.609 280.334 221.96 282.573 217.12 282.573L169.996 280.803C165.601 280.803 162.519 278.6 162.519 275.518V270.702C162.519 217.412 204.791 180.871 266.882 180.871C327.647 180.871 366.814 215.209 366.814 266.74C366.814 339.835 287.988 340.281 287.988 380.35V388.284C287.988 393.1 285.339 395.761 280.499 395.761H233.844C228.992 395.797 226.355 393.16 226.355 388.32ZM222.394 459.272C222.394 439.9 239.563 424.043 260.26 424.043C280.077 424.043 297.692 439.9 297.692 459.272C297.692 478.644 280.041 494.441 259.826 494.441C239.105 494.441 222.394 478.596 222.394 459.272Z" fill="#807FDE" stroke="#807FDE" stroke-miterlimit="10"/>
<path d="M257.898 533.92C294.211 533.92 323.649 527.338 323.649 519.219C323.649 511.1 294.211 504.519 257.898 504.519C221.585 504.519 192.148 511.1 192.148 519.219C192.148 527.338 221.585 533.92 257.898 533.92Z" fill="#263238"/>
<path d="M207.643 185.783L205.127 191.273C205.127 191.273 190.511 192.851 190.511 193.946C190.511 195.042 190.667 202.591 191.462 202.904C192.066 203.139 192.736 203.139 193.34 202.904L214.867 197.402L216.914 187.661L207.643 185.783Z" fill="white" stroke="#263238" stroke-linecap="round" stroke-linejoin="round"/>
<path d="M203.55 195.596C200.877 197.786 197.993 199.705 194.941 201.327C191.462 202.892 191.329 205.264 192.437 205.264C193.545 205.264 203.369 201.146 203.369 201.146C203.369 201.146 212.291 198.81 213.579 198.1C214.867 197.39 215.012 193.44 215.012 193.44" fill="white"/>
<path d="M203.55 195.596C200.877 197.786 197.993 199.705 194.941 201.327C191.462 202.892 191.329 205.264 192.437 205.264C193.545 205.264 203.369 201.146 203.369 201.146C203.369 201.146 212.291 198.81 213.579 198.1C214.867 197.39 215.012 193.44 215.012 193.44" stroke="#263238" stroke-linecap="round" stroke-linejoin="round"/>
<path d="M220.502 80.2886L211.52 149.133L205.272 186.409L219.142 189.684L229.484 145.594L234.384 117.841L220.502 80.2886Z" fill="#7D7D7D" stroke="#263238" stroke-linecap="round" stroke-linejoin="round"/>
<path d="M292.983 30.4432L287.505 29.5763L276.284 25.3262L275.874 38.6545L293.272 40.2558L292.983 30.4432Z" fill="white" stroke="#263238" stroke-linecap="round" stroke-linejoin="round"/>
<path d="M228.942 274.578C224.859 279.339 221.045 284.323 217.516 289.508C212.881 296.587 214.518 304.197 220.237 306.111C225.956 308.025 233.289 302.836 235.203 298.755C237.117 294.673 236.564 292.506 239.549 288.424C242.535 284.343 244.992 280.261 243.908 274.819C242.824 269.377 231.88 270.774 228.942 274.578Z" fill="#7D7D7D" stroke="#263238" stroke-linecap="round" stroke-linejoin="round"/>
<path d="M234.649 299.778C234.264 298.959 233.818 298.092 233.289 297.165C228.918 289.472 221.249 290.086 216.433 291.518C213.266 297.984 215.072 304.413 220.261 306.147C225.451 307.881 232.145 303.643 234.649 299.778Z" fill="white" stroke="#263238" stroke-linecap="round" stroke-linejoin="round"/>
<path d="M233.289 297.165C231.663 299.573 229.484 306.147 221.044 303.426C218.69 302.822 216.585 301.495 215.024 299.633C215.206 301.102 215.796 302.49 216.726 303.641C217.655 304.792 218.888 305.66 220.285 306.147C225.992 308.049 233.337 302.872 235.251 298.791C237.166 294.709 236.612 292.542 239.598 288.46C242.584 284.379 245.04 280.297 243.956 274.855C243.956 281.381 241.548 282.464 238.514 286.004C235.48 289.544 234.926 294.709 233.289 297.165Z" fill="white" stroke="#263238" stroke-linecap="round" stroke-linejoin="round"/>
<path d="M309.237 274.578C313.32 279.339 317.134 284.323 320.663 289.508C325.298 296.587 323.661 304.197 317.942 306.111C312.223 308.025 304.891 302.836 302.976 298.755C301.062 294.673 301.616 292.506 298.63 288.424C295.644 284.343 293.188 280.261 294.271 274.819C295.355 269.377 306.251 270.774 309.237 274.578Z" fill="#7D7D7D" stroke="#263238" stroke-linecap="round" stroke-linejoin="round"/>
<path d="M303.542 299.778C303.915 298.959 304.361 298.092 304.891 297.165C309.261 289.472 316.931 290.086 321.747 291.518C324.913 297.984 323.107 304.413 317.918 306.147C312.729 307.881 306.034 303.643 303.542 299.778Z" fill="white" stroke="#263238" stroke-linecap="round" stroke-linejoin="round"/>
<path d="M304.891 297.165C306.516 299.573 308.695 306.147 317.135 303.426C319.489 302.822 321.594 301.495 323.155 299.633C322.973 301.102 322.383 302.49 321.454 303.641C320.524 304.792 319.291 305.66 317.894 306.147C312.187 308.049 304.842 302.872 302.928 298.791C301.014 294.709 301.567 292.542 298.582 288.46C295.596 284.379 293.139 280.297 294.223 274.855C294.223 281.381 296.631 282.464 299.665 286.004C302.699 289.544 303.253 294.709 304.891 297.165Z" fill="white" stroke="#263238" stroke-linecap="round" stroke-linejoin="round"/>
<path d="M321.999 180.702C321.999 175.802 313.571 170.36 313.571 170.36C300.869 157.441 277.945 159.151 269.481 160.306C261.053 159.102 238.105 157.441 225.402 170.36C225.402 170.36 216.974 175.802 216.974 180.702C216.974 185.602 227.594 274.036 227.594 274.036C227.594 274.036 227.317 278.66 234.938 279.201C242.559 279.743 245.774 275.397 245.774 275.397L248.772 200.568C248.772 200.568 261.017 191.851 263.22 191.586C264.015 191.478 265.05 191.309 266.206 191.165V191.309C268.362 190.86 270.588 190.86 272.744 191.309V191.165C273.948 191.309 274.923 191.478 275.73 191.586C277.909 191.851 290.178 200.568 290.178 200.568L293.176 275.397C293.176 275.397 296.439 279.743 304.012 279.201C311.585 278.66 311.356 274.036 311.356 274.036C311.356 274.036 321.999 185.602 321.999 180.702Z" fill="#263238" stroke="#263238" stroke-linecap="round" stroke-linejoin="round"/>
<path d="M290.166 200.569C290.166 200.569 288.528 182.605 296.426 175.802" stroke="#707070" stroke-linecap="round" stroke-linejoin="round"/>
<path d="M248.808 200.568C248.808 200.568 249.627 185.602 247.99 180.16C246.352 174.718 243.631 172.539 243.631 172.539" stroke="#707070" stroke-linecap="round" stroke-linejoin="round"/>
<path d="M258.874 164.918C258.874 164.918 267.579 174.983 269.216 183.423" stroke="#707070" stroke-linecap="round" stroke-linejoin="round"/>
<path d="M277.921 165.496C277.921 165.496 273.021 170.938 272.479 175.019" stroke="#707070" stroke-linecap="round" stroke-linejoin="round"/>
<path d="M265.676 59.616C265.676 59.616 257.79 58.5203 255.069 61.2414C252.348 63.9624 243.089 73.9917 243.089 73.9917L247.99 160.523C247.99 160.523 259.151 164.882 268.674 164.882C278.198 164.882 289.082 161.342 291.55 159.44C294.018 157.537 291.827 64.745 291.827 64.745C291.827 64.745 271.612 58.7972 265.676 59.616Z" fill="#807FDE" stroke="#263238" stroke-linecap="round" stroke-linejoin="round"/>
<path d="M280.1 61.5183C284.243 60.8893 288.421 60.5233 292.61 60.4226C298.052 60.4226 303.446 60.6995 303.446 60.6995L317.051 47.6362L289.672 41.3754L291.851 28.8658C291.851 28.8658 311.982 27.5053 322.048 29.4076C332.113 31.3099 347.897 36.2102 348.716 36.2102C349.535 36.2102 350.619 39.2082 349.8 41.3754C348.981 43.5426 323.384 71.8606 315.739 79.205C310.737 84.1063 306.014 89.2836 301.592 94.7125L298.1 155.394C298.1 155.394 307.082 160.294 308.719 161.92C310.357 163.545 312.259 170.083 312.259 170.083C312.259 170.083 295.656 163.28 291.297 162.739C286.939 162.197 284.23 161.92 283.411 160.331C282.592 158.741 275.79 86.0438 275.79 86.0438L276.067 62.9149C276.067 62.9149 276.019 61.5183 280.1 61.5183Z" fill="#7D7D7D" stroke="#263238" stroke-linecap="round" stroke-linejoin="round"/>
<path d="M296.426 98.7944L281.726 100.697L283.086 106.139L290.443 108.041L297.51 104.778L296.426 98.7944Z" stroke="#263238" stroke-linecap="round" stroke-linejoin="round"/>
<path d="M304.854 66.1416L301.592 94.7125L310.032 70.5001" stroke="#263238" stroke-linecap="round" stroke-linejoin="round"/>
<path d="M317.099 47.6361C317.099 47.6361 323.902 48.9966 334.244 44.915" stroke="#263238" stroke-linecap="round" stroke-linejoin="round"/>
<path d="M324.179 49.5387C328.648 49.6631 333.117 49.2997 337.507 48.4551" stroke="#263238" stroke-linecap="round" stroke-linejoin="round"/>
<path d="M256.43 59.3394L257.79 79.2053C259.03 80.8366 260.636 82.1538 262.479 83.051C264.321 83.9481 266.348 84.4001 268.397 84.3705C275.2 84.1056 276.019 79.2053 276.019 79.2053V62.8791L256.43 59.3394Z" fill="white" stroke="#263238" stroke-linecap="round" stroke-linejoin="round"/>
<path d="M276.284 69.6814L275.742 86.0318L281.461 77.0499C281.461 77.0499 287.722 84.9361 289.347 84.6712C290.972 84.4064 288.263 81.1315 287.722 78.1456C287.18 75.1596 282.544 64.5283 282.003 61.5424C281.461 58.5565 276.284 58.0026 275.983 59.3631C275.832 60.5382 275.832 61.7278 275.983 62.9029L276.284 69.6814Z" fill="#7D7D7D" stroke="#263238" stroke-linecap="round" stroke-linejoin="round"/>
<path d="M257.513 84.3702C257.513 84.3702 258.597 160.559 255.876 161.426C253.155 162.293 242.27 162.522 235.408 165.785C228.545 169.048 225.342 170.408 225.342 170.408C225.342 170.408 228.605 162.522 232.422 158.982C234.959 156.702 237.794 154.778 240.85 153.263L233.782 116.806C233.782 116.806 220.719 82.2391 220.442 80.3368C220.165 78.4345 245.208 64.2875 250.373 61.8313C255.539 59.3751 256.911 61.5664 256.911 61.5664L257.513 84.3702Z" fill="#7D7D7D" stroke="#263238" stroke-linecap="round" stroke-linejoin="round"/>
<path d="M250.711 57.9787C250.711 57.9787 244.185 78.6635 243.631 81.3845C243.077 84.1056 243.631 84.1056 245.545 82.1912C247.46 80.2768 252.348 75.6655 252.348 75.6655L257.513 84.3704L257.236 68.3211V59.0624C257.236 59.0624 256.971 55.2577 250.711 57.9787Z" fill="#7D7D7D" stroke="#263238" stroke-linecap="round" stroke-linejoin="round"/>
<path d="M237.924 102.611H253.973L253.709 109.137L246.629 111.581L237.647 109.137L237.924 102.611Z" stroke="#263238" stroke-linecap="round" stroke-linejoin="round"/>
<path d="M282.003 31.0453C282.003 31.0453 285.807 47.6364 286.626 50.3093C287.445 52.9822 282.279 63.6496 280.606 66.0938C279.969 67.1538 279.093 68.05 278.047 68.7106C277.002 69.3713 275.817 69.7781 274.586 69.8984C272.684 69.8984 262.341 66.3707 259.885 64.7332C257.429 63.0958 254.997 61.1935 254.997 61.1935C253.839 61.7212 252.553 61.8998 251.295 61.7073C250.038 61.5149 248.864 60.9597 247.917 60.1099C244.654 57.1119 240.296 53.5722 241.38 51.128C241.907 49.9287 242.791 48.9205 243.911 48.24C245.031 47.5595 246.333 47.2395 247.64 47.3234C250.638 47.3234 249.555 47.0465 249.555 47.0465C249.555 47.0465 244.113 39.1603 244.113 32.8995C244.113 26.6387 255.803 22.0635 262.606 22.0635C267.31 22.2595 271.93 23.3676 276.211 25.3263L282.003 31.0453Z" fill="white" stroke="#263238" stroke-linecap="round" stroke-linejoin="round"/>
<path d="M272.479 37.2939L277.379 46.5527L272.479 49.8155L270.3 47.0945" stroke="#263238" stroke-linecap="round" stroke-linejoin="round"/>
<path d="M281.461 45.7339C281.461 45.7339 281.726 47.9131 278.463 51.4529" stroke="#263238" stroke-linecap="round" stroke-linejoin="round"/>
<path d="M267.314 40.7013C267.314 41.9776 266.76 43.013 266.11 43.013C265.46 43.013 264.906 41.9776 264.906 40.7013C264.906 39.4251 265.46 38.3896 266.11 38.3896C266.76 38.3896 267.314 39.4251 267.314 40.7013Z" fill="#263238"/>
<path d="M275.874 38.6546C276.552 38.6546 277.102 37.6196 277.102 36.3429C277.102 35.0662 276.552 34.0312 275.874 34.0312C275.196 34.0312 274.646 35.0662 274.646 36.3429C274.646 37.6196 275.196 38.6546 275.874 38.6546Z" fill="#263238"/>
<path d="M252.613 16.8861C252.613 16.8861 235.492 23.1469 234.926 31.0451C234.36 38.9434 250.169 49.8155 250.987 51.176C251.806 52.5365 254.25 49.5386 254.25 49.5386C253.706 48.8075 253.326 47.9674 253.137 47.0758C252.948 46.1843 252.954 45.2624 253.155 44.3734C253.973 41.6523 257.513 38.3534 257.513 37.029C257.513 35.7046 253.432 38.1126 253.432 34.031C253.432 29.9495 263.497 27.5053 269.481 27.7702C275.465 28.0351 280.642 38.1126 285 33.2123C289.359 28.312 283.086 26.9635 283.086 26.9635C283.086 26.9635 291.514 25.8679 291.514 21.5215C291.514 17.175 287.156 14.165 285.253 14.165C283.351 14.165 278.186 17.4399 278.186 13.9001C278.186 10.3604 283.351 8.72295 278.451 3.06415C273.55 -2.59466 267.302 3.06415 267.302 5.24339C267.302 7.42263 265.664 11.4921 264.581 11.4921C263.497 11.4921 260.222 6.60391 256.418 9.32495C255.274 10.2345 254.341 11.3817 253.684 12.6872C253.027 13.9928 252.662 15.4254 252.613 16.8861V16.8861Z" fill="#263238" stroke="#263238" stroke-linecap="round" stroke-linejoin="round"/>
<path d="M259.692 37.8476L268.397 34.5728" stroke="#263238" stroke-linecap="round" stroke-linejoin="round"/>
<path d="M269.758 30.768C269.591 29.9138 269.728 29.0283 270.143 28.2637" stroke="#263238" stroke-linecap="round" stroke-linejoin="round"/>
<path d="M270.143 28.2396C270.757 27.0356 272.142 25.4825 275.2 24.2183" stroke="white" stroke-linecap="round" stroke-linejoin="round"/>
</svg>
