<svg width="518" height="548" viewBox="0 0 518 548" fill="none" xmlns="http://www.w3.org/2000/svg">
<path d="M232.505 545.574C232.505 545.574 326.654 561.896 400.491 490.485C474.328 419.074 494.641 302.978 513.377 209.479C532.112 115.979 492.287 32.7811 418.697 6.11957C345.107 -20.5419 313.285 47.2614 222.513 68.677C131.741 90.0925 104.131 80.7439 40.3333 152.866C-23.4649 224.988 -8.76577 361.738 72.1088 448.721C152.983 535.704 232.505 545.574 232.505 545.574Z" fill="#807FDE"/>
<path opacity="0.7" d="M232.505 545.574C232.505 545.574 326.654 561.896 400.491 490.485C474.328 419.074 494.641 302.978 513.377 209.479C532.112 115.979 492.287 32.7811 418.697 6.11957C345.107 -20.5419 313.285 47.2614 222.513 68.677C131.741 90.0925 104.131 80.7439 40.3333 152.866C-23.4649 224.988 -8.76577 361.738 72.1088 448.721C152.983 535.704 232.505 545.574 232.505 545.574Z" fill="white"/>
</svg>
