<svg width="176" height="178" viewBox="0 0 176 178" fill="none" xmlns="http://www.w3.org/2000/svg">
<g clip-path="url(#clip0_27:928)">
<path d="M119.531 24.5414C135.159 24.7952 148.227 31.0213 158.508 43.4734C158.838 43.8503 159.092 44.2933 159.254 44.7758C159.417 45.2583 159.484 45.7703 159.453 46.2809C159.422 46.7916 159.292 47.2903 159.072 47.747C158.852 48.2037 158.546 48.609 158.173 48.9384C157.811 49.2623 157.39 49.5068 156.936 49.6573C156.482 49.8078 156.003 49.8614 155.529 49.8148C155.055 49.7683 154.595 49.6225 154.175 49.3861C153.756 49.1498 153.385 48.8276 153.087 48.4387C149.417 43.891 144.956 40.118 139.94 37.3215C132.231 33.0249 123.469 31.2575 114.791 32.2487C106.112 33.2398 97.918 36.9438 91.2707 42.8801C89.3805 44.5547 87.6986 46.5026 85.9944 48.3958C84.506 50.0392 82.3442 50.3007 80.7851 48.8915C79.226 47.4824 79.1293 45.1285 80.5358 43.4266C89.146 32.9522 99.9839 26.7651 113.049 24.8654C114.073 24.7171 115.103 24.6039 116.138 24.5531C117.265 24.4985 118.4 24.5414 119.531 24.5414Z" fill="#263238"/>
<path d="M120.822 39.7573C130.709 40.0267 140.007 44.4415 147.319 53.3259C148.763 55.0747 148.595 57.3309 146.992 58.7908C145.47 60.1649 143.271 59.9814 141.853 58.2717C138.035 53.6343 133.41 50.2343 127.769 48.6378C116.275 45.3823 106.337 48.3489 98.0019 57.2763C97.693 57.6081 97.4065 57.9633 97.1126 58.3107C96.4849 59.0706 95.5952 59.5378 94.6392 59.6096C93.6832 59.6813 92.7392 59.3517 92.0149 58.6933C91.2905 58.0348 90.8452 57.1015 90.7768 56.0986C90.7084 55.0957 91.0226 54.1053 91.6502 53.3454C94.866 49.3425 98.8347 46.0787 103.308 43.7584C108.439 41.0767 113.86 39.7846 120.822 39.7573Z" fill="#263238"/>
<path d="M137.09 65.7117C137.092 66.4788 136.872 67.2286 136.46 67.8621C136.047 68.4955 135.461 68.9829 134.78 69.2599C134.086 69.5465 133.325 69.5982 132.602 69.4078C131.879 69.2174 131.232 68.7944 130.75 68.1982C129.243 66.3466 127.355 64.8784 125.228 63.9043C119.274 61.2656 112.744 62.905 108.327 68.1357C107.282 69.3771 105.976 69.826 104.465 69.3458C103.889 69.1619 103.366 68.8299 102.943 68.3799C102.521 67.9299 102.212 67.3763 102.045 66.7693C101.878 66.1622 101.859 65.5211 101.988 64.9042C102.118 64.2873 102.393 63.7141 102.787 63.2368C110.348 53.6732 124.257 52.307 133.354 60.2936C134.395 61.2021 135.352 62.2096 136.216 63.3032C136.718 63.9434 136.934 64.8295 137.28 65.6063L137.09 65.7117Z" fill="#263238"/>
<path d="M119.516 85.6353C118.077 85.6399 116.67 85.1959 115.472 84.3596C114.274 83.5233 113.34 82.3325 112.789 80.9384C112.237 79.5442 112.093 78.0096 112.375 76.5294C112.656 75.0492 113.351 73.6901 114.37 72.6247C115.389 71.5593 116.687 70.8357 118.099 70.5457C119.511 70.2557 120.974 70.4124 122.301 70.9959C123.627 71.5794 124.759 72.5634 125.552 73.823C126.345 75.0826 126.763 76.5609 126.753 78.0703C126.75 80.0801 125.985 82.006 124.628 83.4246C123.271 84.8432 121.432 85.6384 119.516 85.6353Z" fill="#263238"/>
<path d="M76.0069 122.1C79.3854 118.556 79.3854 112.809 76.0069 109.265C72.6284 105.721 67.1508 105.721 63.7723 109.265C60.3938 112.809 60.3938 118.556 63.7723 122.1C67.1508 125.644 72.6284 125.644 76.0069 122.1Z" stroke="#263238" stroke-width="2" stroke-linecap="round" stroke-linejoin="round"/>
<path d="M69.8902 124.76C72.2535 124.76 74.1693 120.697 74.1693 115.685C74.1693 110.672 72.2535 106.609 69.8902 106.609C67.527 106.609 65.6111 110.672 65.6111 115.685C65.6111 120.697 67.527 124.76 69.8902 124.76Z" stroke="#263238" stroke-width="2" stroke-linecap="round" stroke-linejoin="round"/>
<path d="M63.9367 109.263C65.5582 110.877 67.712 111.769 69.9469 111.754C72.1818 111.739 74.3243 110.817 75.9256 109.181" stroke="#263238" stroke-width="2" stroke-linecap="round" stroke-linejoin="round"/>
<path d="M75.866 122.129C74.242 120.499 72.0767 119.596 69.829 119.612C67.5813 119.628 65.4279 120.562 63.8251 122.215" stroke="#263238" stroke-width="2" stroke-linecap="round" stroke-linejoin="round"/>
<path d="M61.2391 115.685H78.5414" stroke="#263238" stroke-width="2" stroke-linecap="round" stroke-linejoin="round"/>
<path d="M69.8902 106.609V124.76" stroke="#263238" stroke-width="2" stroke-linecap="round" stroke-linejoin="round"/>
<path d="M69.9312 103.74V102.764" stroke="#263238" stroke-linecap="round" stroke-linejoin="round"/>
<path d="M69.9312 100.781V2.73633" stroke="#263238" stroke-linecap="round" stroke-linejoin="round" stroke-dasharray="5.07 5.07"/>
<path d="M69.9312 1.74883V0.772949" stroke="#263238" stroke-linecap="round" stroke-linejoin="round"/>
<path d="M55.9739 50.8355C54.5492 50.8375 53.1836 51.4327 52.1768 52.4903C51.1701 53.5479 50.6046 54.9814 50.6046 56.476C50.6046 59.5988 55.9814 65.9577 55.9814 65.9577C55.9814 65.9577 61.3544 59.591 61.3544 56.476C61.3549 55.7348 61.216 55.0008 60.9458 54.316C60.6755 53.6311 60.2791 53.0089 59.7794 52.485C59.2796 51.9611 58.6862 51.5457 58.0333 51.2627C57.3803 50.9796 56.6805 50.8344 55.9739 50.8355ZM55.9739 59.0328C55.4901 59.0336 55.017 58.8837 54.6144 58.6022C54.2118 58.3207 53.8979 57.9202 53.7124 57.4515C53.5269 56.9827 53.4782 56.4667 53.5724 55.9688C53.6666 55.471 53.8995 55.0137 54.2416 54.6548C54.5837 54.2959 55.0197 54.0515 55.4942 53.9527C55.9688 53.8539 56.4606 53.905 56.9075 54.0996C57.3543 54.2942 57.7361 54.6235 58.0044 55.0458C58.2728 55.4682 58.4156 55.9646 58.4149 56.4721C58.4149 57.1516 58.1578 57.8034 57.7002 58.2842C57.2425 58.765 56.6217 59.0357 55.9739 59.0367V59.0328Z" fill="#263238" stroke="#263238" stroke-linecap="round" stroke-linejoin="round"/>
<path d="M55.9739 50.8355V49.8596" stroke="#263238" stroke-linecap="round" stroke-linejoin="round"/>
<path d="M55.9739 47.9353V2.70923" stroke="#263238" stroke-linecap="round" stroke-linejoin="round" stroke-dasharray="4.93 4.93"/>
<path d="M55.9739 1.74883V0.772949" stroke="#263238" stroke-linecap="round" stroke-linejoin="round"/>
<path d="M43.2633 97.1035H32.6102C31.7773 97.1035 30.9785 97.4506 30.3896 98.0685C29.8006 98.6863 29.4698 99.5243 29.4698 100.398V105.473C29.4698 106.346 29.8006 107.184 30.3896 107.802C30.9785 108.42 31.7773 108.767 32.6102 108.767L32.7181 113.881L36.067 108.767H43.2707C44.1036 108.767 44.9024 108.42 45.4913 107.802C46.0803 107.184 46.4112 106.346 46.4112 105.473V100.398C46.4112 99.9648 46.3297 99.5357 46.1714 99.1355C46.0131 98.7353 45.7811 98.3717 45.4887 98.0657C45.1963 97.7597 44.8492 97.5172 44.4673 97.3521C44.0855 97.1869 43.6763 97.1025 43.2633 97.1035Z" fill="white" stroke="#263238" stroke-linecap="round" stroke-linejoin="round"/>
<path d="M39.2446 99.8477H48C48.6837 99.8528 49.3381 100.14 49.8219 100.647C50.3058 101.153 50.5802 101.839 50.586 102.557V106.741C50.5802 107.459 50.3058 108.145 49.8219 108.651C49.3381 109.158 48.6837 109.445 48 109.45L47.9144 113.65L45.1684 109.45H39.2446C38.5598 109.45 37.9029 109.165 37.4187 108.657C36.9344 108.149 36.6623 107.46 36.6623 106.741V102.557C36.6623 101.838 36.9344 101.149 37.4187 100.641C37.9029 100.133 38.5598 99.8477 39.2446 99.8477Z" fill="#263238" stroke="#263238" stroke-linecap="round" stroke-linejoin="round"/>
<path d="M41.8605 104.645C41.8605 104.445 41.8038 104.249 41.6978 104.083C41.5917 103.917 41.441 103.787 41.2647 103.711C41.0884 103.634 40.8944 103.614 40.7073 103.654C40.5203 103.693 40.3486 103.79 40.214 103.932C40.0793 104.073 39.9878 104.254 39.9511 104.45C39.9143 104.647 39.9339 104.85 40.0074 105.035C40.081 105.219 40.2051 105.377 40.364 105.488C40.523 105.598 40.7097 105.657 40.9005 105.656C41.1554 105.655 41.3996 105.548 41.5795 105.359C41.7594 105.169 41.8605 104.912 41.8605 104.645Z" fill="#807FDE"/>
<path d="M43.8809 105.656C44.4132 105.656 44.8446 105.203 44.8446 104.645C44.8446 104.087 44.4132 103.634 43.8809 103.634C43.3487 103.634 42.9172 104.087 42.9172 104.645C42.9172 105.203 43.3487 105.656 43.8809 105.656Z" fill="#807FDE"/>
<path d="M46.8614 105.656C47.3936 105.656 47.8251 105.203 47.8251 104.645C47.8251 104.087 47.3936 103.634 46.8614 103.634C46.3291 103.634 45.8977 104.087 45.8977 104.645C45.8977 105.203 46.3291 105.656 46.8614 105.656Z" fill="#807FDE"/>
<path d="M41.12 93.5318V92.5559" stroke="#263238" stroke-linecap="round" stroke-linejoin="round"/>
<path d="M41.12 90.6314V3.06006" stroke="#263238" stroke-linecap="round" stroke-linejoin="round" stroke-dasharray="4.93 4.93"/>
<path d="M41.12 2.09599V1.12012" stroke="#263238" stroke-linecap="round" stroke-linejoin="round"/>
<path d="M37.146 64.8567H18.333V76.3916H37.146V64.8567Z" fill="white" stroke="#263238" stroke-linecap="round" stroke-linejoin="round"/>
<path d="M18.333 76.3916L27.5944 67.4214L37.1497 76.3916H18.333Z" fill="white" stroke="#263238" stroke-linecap="round" stroke-linejoin="round"/>
<path d="M18.333 64.8567L27.7432 70.6261L37.1497 64.8567H18.333Z" fill="white" stroke="#263238" stroke-linecap="round" stroke-linejoin="round"/>
<path d="M27.5758 64.3299V63.354" stroke="#263238" stroke-linecap="round" stroke-linejoin="round"/>
<path d="M27.5758 61.5231V47.7788" stroke="#263238" stroke-linecap="round" stroke-linejoin="round" stroke-dasharray="4.69 4.69"/>
<path d="M27.5758 46.8655V45.8896" stroke="#263238" stroke-linecap="round" stroke-linejoin="round"/>
<path d="M32.6065 29.2297C31.6864 27.2929 30.2278 25.6946 28.4234 24.646C26.6191 23.5974 24.5539 23.1479 22.5008 23.3569C20.4477 23.5658 18.5033 24.4234 16.9247 25.8163C15.3461 27.2092 14.2076 29.0718 13.6595 31.158C13.4958 31.158 13.3321 31.1307 13.1684 31.1307C11.5819 31.0961 10.0438 31.7041 8.8736 32.8283C7.70339 33.9526 6.99111 35.5066 6.88476 37.1675C6.77842 38.8284 7.28619 40.4684 8.30256 41.7468C9.31892 43.0251 10.7657 43.8435 12.3423 44.0318V44.1098H31.3749C33.1863 44.1545 34.946 43.4736 36.2958 42.2056C37.6457 40.9376 38.4844 39.1777 38.6413 37.284C38.7982 35.3903 38.2615 33.505 37.1405 32.0117C36.0194 30.5183 34.3981 29.5291 32.6065 29.2453V29.2297Z" fill="white" stroke="#263238" stroke-linecap="round" stroke-linejoin="round"/>
<path d="M23.4716 23.3079V22.332" stroke="#263238" stroke-linecap="round" stroke-linejoin="round"/>
<path d="M23.4716 20.4272V2.33838" stroke="#263238" stroke-linecap="round" stroke-linejoin="round" stroke-dasharray="4.88 4.88"/>
<path d="M23.4716 1.38579V0.409912" stroke="#263238" stroke-linecap="round" stroke-linejoin="round"/>
<path d="M11.3786 92.9425C10.9521 92.9442 10.5378 93.0923 10.1991 93.3641L5.51442 89.6753C5.60152 89.4428 5.64571 89.1951 5.64465 88.9454C5.64886 88.4815 5.50322 88.0298 5.23147 87.6639C4.95971 87.298 4.57786 87.0394 4.1481 86.9302C3.71834 86.8211 3.26602 86.8678 2.86481 87.0628C2.4636 87.2578 2.13715 87.5895 1.93864 88.004C1.74013 88.4185 1.68126 88.8913 1.77162 89.3454C1.86198 89.7995 2.09625 90.2081 2.43625 90.5046C2.77626 90.8012 3.20197 90.9682 3.64403 90.9785C4.0861 90.9889 4.51846 90.8418 4.87069 90.5614L9.55535 94.2463C9.47035 94.4808 9.42624 94.7294 9.42511 94.9802C9.42595 95.2298 9.47008 95.4771 9.55535 95.7101L4.87069 99.3951C4.51965 99.1161 4.08907 98.9698 3.64879 98.9798C3.20852 98.9898 2.78438 99.1556 2.4452 99.4503C2.10603 99.7449 1.87171 100.151 1.78026 100.603C1.68881 101.055 1.7456 101.526 1.94141 101.94C2.13722 102.354 2.46057 102.686 2.859 102.883C3.25742 103.08 3.70754 103.129 4.13633 103.024C4.56513 102.919 4.94743 102.665 5.22122 102.303C5.49501 101.941 5.64422 101.493 5.64465 101.031C5.64529 100.78 5.60112 100.531 5.51442 100.297L10.1991 96.6118C10.4462 96.8076 10.7342 96.9389 11.0393 96.9949C11.3443 97.0509 11.6577 97.0301 11.9535 96.934C12.2494 96.838 12.5192 96.6696 12.7408 96.4426C12.9624 96.2156 13.1294 95.9366 13.228 95.6287C13.3266 95.3207 13.3539 94.9925 13.3078 94.6712C13.2617 94.35 13.1435 94.0448 12.9629 93.7809C12.7822 93.517 12.5444 93.302 12.2689 93.1535C11.9934 93.005 11.6883 92.9273 11.3786 92.9269V92.9425Z" fill="#263238"/>
<path d="M8.4986 25.6773V24.7014" stroke="#263238" stroke-linecap="round" stroke-linejoin="round"/>
<path d="M8.4986 22.6052V2.69727" stroke="#263238" stroke-linecap="round" stroke-linejoin="round" stroke-dasharray="5.37 5.37"/>
<path d="M8.4986 1.65117V0.675293" stroke="#263238" stroke-linecap="round" stroke-linejoin="round"/>
<path d="M8.4986 88.6019V87.626" stroke="#263238" stroke-linecap="round" stroke-linejoin="round"/>
<path d="M8.4986 85.6705V47.4824" stroke="#263238" stroke-linecap="round" stroke-linejoin="round" stroke-dasharray="5.02 5.02"/>
<path d="M8.4986 46.5025V45.5266" stroke="#263238" stroke-linecap="round" stroke-linejoin="round"/>
<path d="M28.4242 149.188C31.0299 149.188 33.1423 143.376 33.1423 136.205C33.1423 129.035 31.0299 123.222 28.4242 123.222C25.8184 123.222 23.7061 129.035 23.7061 136.205C23.7061 143.376 25.8184 149.188 28.4242 149.188Z" fill="#807FDE" stroke="#263238" stroke-miterlimit="10"/>
<path d="M43.0838 128.206C44.5588 123.336 44.1162 118.843 42.095 118.169C40.0738 117.495 37.2396 120.896 35.7645 125.765C34.2894 130.635 34.7321 135.129 36.7532 135.802C38.7744 136.476 41.6087 133.075 43.0838 128.206Z" fill="#807FDE" stroke="#263238" stroke-miterlimit="10"/>
<path d="M8.46511 157.565C3.66139 156.71 0.0558102 154.239 0.409299 152.05C0.762787 149.86 4.94511 148.771 9.74511 149.622C14.5451 150.472 18.1544 152.947 17.8009 155.137C17.4474 157.327 13.2651 158.416 8.46511 157.565Z" fill="#807FDE" stroke="#263238" stroke-miterlimit="10"/>
<path d="M47.5274 145.562C43.5163 149.735 38.7758 151.546 36.9414 149.602C35.107 147.658 36.8707 142.705 40.8819 138.532C44.893 134.359 49.6335 132.548 51.4679 134.492C53.3023 136.435 51.5386 141.389 47.5274 145.562Z" fill="#807FDE" stroke="#263238" stroke-miterlimit="10"/>
<path d="M19.8847 134.113C23.7656 140.019 24.9302 146.241 22.467 148.013C20.0037 149.785 14.8837 146.44 11.0028 140.526C7.12186 134.612 5.95349 128.425 8.42046 126.634C10.8874 124.842 16 128.211 19.8847 134.113Z" fill="#807FDE" stroke="#263238" stroke-miterlimit="10"/>
<path d="M28.7553 148.54L29.12 166.391" stroke="#263238" stroke-miterlimit="10" stroke-linecap="round"/>
<path d="M28.3163 131.376L28.7554 148.54" stroke="#263238" stroke-miterlimit="10" stroke-linecap="round"/>
<path d="M28.3461 128.578L28.3163 129.893" stroke="#263238" stroke-miterlimit="10" stroke-linecap="round"/>
<path d="M22.4484 147.162C25.1555 153.028 26.7395 159.394 27.1107 165.899" stroke="#263238" stroke-miterlimit="10" stroke-linecap="round"/>
<path d="M14.3442 134.164C17.5817 138.101 20.3069 142.472 22.4484 147.162" stroke="#263238" stroke-miterlimit="10" stroke-linecap="round"/>
<path d="M11.7953 131.333C11.7953 131.333 12.2828 131.806 13.0865 132.7" stroke="#263238" stroke-miterlimit="10" stroke-linecap="round"/>
<path d="M37.2353 149.005C33.9258 153.872 31.3459 159.241 29.5851 164.927" stroke="#263238" stroke-miterlimit="10" stroke-linecap="round"/>
<path d="M42.6605 142.478C40.6629 144.478 38.8467 146.668 37.2354 149.02" stroke="#263238" stroke-miterlimit="10" stroke-linecap="round"/>
<path d="M48.4577 137.825C46.9825 138.704 45.5973 139.74 44.3237 140.917" stroke="#263238" stroke-miterlimit="10" stroke-linecap="round"/>
<path d="M37.0344 134.589C34.4298 143.22 30.9135 155.969 29.2763 167.039" stroke="#263238" stroke-miterlimit="10" stroke-linecap="round"/>
<path d="M38.627 129.472C38.1619 130.928 37.6223 132.653 37.0344 134.589" stroke="#263238" stroke-miterlimit="10" stroke-linecap="round"/>
<path d="M40.2605 124.522C40.2605 124.522 39.8028 125.845 39.066 128.109" stroke="#263238" stroke-miterlimit="10" stroke-linecap="round"/>
<path d="M17.5591 153.943C20.8261 155.243 24.0112 157.749 25.5628 162.495" stroke="#263238" stroke-miterlimit="10" stroke-linecap="round"/>
<path d="M11.5349 152.655C13.5955 152.765 15.6286 153.2 17.5665 153.943" stroke="#263238" stroke-miterlimit="10" stroke-linecap="round"/>
<path d="M7.61674 152.756C7.61674 152.756 8.19721 152.67 9.15721 152.631" stroke="#263238" stroke-miterlimit="10" stroke-linecap="round"/>
<path d="M49.5628 157.565C54.3665 156.71 57.9721 154.239 57.6186 152.05C57.2651 149.86 53.0828 148.771 48.2791 149.622C43.4753 150.472 39.8735 152.947 40.227 155.137C40.5805 157.327 44.7591 158.416 49.5628 157.565Z" fill="#807FDE" stroke="#263238" stroke-miterlimit="10"/>
<path d="M40.5581 153.904C37.2539 155.188 34.0167 157.698 32.4502 162.491" stroke="#263238" stroke-miterlimit="10" stroke-linecap="round"/>
<path d="M47.0065 152.627C44.8063 152.693 42.6298 153.124 40.5581 153.904" stroke="#263238" stroke-miterlimit="10" stroke-linecap="round"/>
<path d="M50.4074 152.756C50.4074 152.756 50.0353 152.701 49.3693 152.658" stroke="#263238" stroke-miterlimit="10" stroke-linecap="round"/>
<path d="M40.5023 177.664C41.9553 174.472 42.7176 170.982 42.7349 167.445C42.7371 165.328 42.4361 163.222 41.8419 161.199H16.7107C16.1147 163.222 15.8136 165.328 15.8177 167.445C15.8366 170.982 16.5989 174.471 18.0502 177.664H40.5023Z" fill="#263238"/>
<path d="M16.0633 164.119C15.9926 164.599 15.9367 165.083 15.8958 165.579H42.653C42.6121 165.083 42.5563 164.599 42.4856 164.119H16.0633Z" fill="#7A7A7A"/>
<path d="M42.3702 171.583C42.4521 171.099 42.5265 170.611 42.5823 170.123H15.9702C16.026 170.611 16.0967 171.099 16.1823 171.583H42.3702Z" fill="#7A7A7A"/>
<path d="M19.066 167.527C19.066 167.751 19.0025 167.971 18.8836 168.158C18.7646 168.345 18.5955 168.49 18.3976 168.576C18.1998 168.662 17.982 168.685 17.772 168.641C17.562 168.597 17.369 168.489 17.2176 168.33C17.0662 168.171 16.963 167.969 16.9213 167.748C16.8795 167.528 16.9009 167.3 16.9829 167.092C17.0648 166.885 17.2036 166.707 17.3817 166.582C17.5597 166.457 17.7691 166.391 17.9832 166.391C18.2701 166.392 18.545 166.512 18.7478 166.725C18.9507 166.938 19.0651 167.226 19.066 167.527Z" fill="#8C8C8C"/>
<path d="M24.48 167.527C24.48 167.751 24.4165 167.971 24.2975 168.158C24.1785 168.345 24.0094 168.49 23.8116 168.576C23.6137 168.662 23.396 168.685 23.186 168.641C22.9759 168.597 22.783 168.489 22.6316 168.33C22.4801 168.171 22.377 167.969 22.3352 167.748C22.2934 167.528 22.3149 167.3 22.3968 167.092C22.4788 166.885 22.6176 166.707 22.7956 166.582C22.9737 166.457 23.1831 166.391 23.3972 166.391C23.6844 166.391 23.9598 166.511 24.1629 166.724C24.3659 166.937 24.48 167.226 24.48 167.527Z" fill="#8C8C8C"/>
<path d="M29.8939 167.527C29.8939 167.751 29.8304 167.971 29.7115 168.158C29.5925 168.345 29.4234 168.49 29.2255 168.576C29.0277 168.662 28.81 168.685 28.5999 168.641C28.3899 168.597 28.1969 168.489 28.0455 168.33C27.8941 168.171 27.7909 167.969 27.7492 167.748C27.7074 167.528 27.7288 167.3 27.8108 167.092C27.8927 166.885 28.0315 166.707 28.2096 166.582C28.3877 166.457 28.597 166.391 28.8112 166.391C29.0983 166.391 29.3737 166.511 29.5768 166.724C29.7799 166.937 29.8939 167.226 29.8939 167.527Z" fill="#8C8C8C"/>
<path d="M34.2251 168.663C34.8231 168.663 35.3079 168.154 35.3079 167.527C35.3079 166.899 34.8231 166.391 34.2251 166.391C33.6271 166.391 33.1423 166.899 33.1423 167.527C33.1423 168.154 33.6271 168.663 34.2251 168.663Z" fill="#8C8C8C"/>
<path d="M40.7219 167.527C40.7219 167.751 40.6584 167.971 40.5394 168.158C40.4204 168.345 40.2513 168.49 40.0534 168.576C39.8556 168.662 39.6379 168.685 39.4278 168.641C39.2178 168.597 39.0248 168.489 38.8734 168.33C38.722 168.171 38.6189 167.969 38.5771 167.748C38.5353 167.528 38.5567 167.3 38.6387 167.092C38.7206 166.885 38.8594 166.707 39.0375 166.582C39.2156 166.457 39.4249 166.391 39.6391 166.391C39.9262 166.391 40.2017 166.511 40.4047 166.724C40.6078 166.937 40.7219 167.226 40.7219 167.527Z" fill="#8C8C8C"/>
<path d="M158.753 88.641C158.378 88.5957 158 88.7076 157.703 88.9524C157.406 89.1972 157.212 89.5552 157.165 89.9486L149.953 148.4L154.649 148.954L160.026 90.2882C160.062 89.8936 159.948 89.5 159.71 89.192C159.472 88.884 159.129 88.6862 158.753 88.641Z" fill="#263238" stroke="#263238" stroke-linecap="round" stroke-linejoin="round"/>
<path d="M86.24 88.641C86.6156 88.5957 86.993 88.7076 87.2904 88.9524C87.5879 89.1972 87.7813 89.5552 87.8288 89.9486L95.0474 148.4L90.3516 148.954L84.9674 90.2882C84.9318 89.8936 85.0452 89.5 85.2831 89.192C85.521 88.884 85.8646 88.6862 86.24 88.641Z" fill="#263238" stroke="#263238" stroke-linecap="round" stroke-linejoin="round"/>
<path d="M167.047 147.221H93.6446C92.7014 147.221 91.9367 148.023 91.9367 149.013V175.869C91.9367 176.858 92.7014 177.661 93.6446 177.661H167.047C167.991 177.661 168.755 176.858 168.755 175.869V149.013C168.755 148.023 167.991 147.221 167.047 147.221Z" fill="white" stroke="#263238" stroke-linecap="round" stroke-linejoin="round"/>
<path d="M168.83 150.976H91.8623C91.0054 150.976 90.3107 151.705 90.3107 152.604V172.285C90.3107 173.184 91.0054 173.913 91.8623 173.913H168.83C169.687 173.913 170.381 173.184 170.381 172.285V152.604C170.381 151.705 169.687 150.976 168.83 150.976Z" fill="white" stroke="#263238" stroke-linecap="round" stroke-linejoin="round"/>
<path d="M126.761 147.221H53.3581C52.4149 147.221 51.6502 148.023 51.6502 149.013V175.869C51.6502 176.858 52.4149 177.661 53.3581 177.661H126.761C127.704 177.661 128.469 176.858 128.469 175.869V149.013C128.469 148.023 127.704 147.221 126.761 147.221Z" fill="white" stroke="#263238" stroke-linecap="round" stroke-linejoin="round"/>
<path d="M128.543 150.976H51.5758C50.7189 150.976 50.0242 151.705 50.0242 152.604V172.285C50.0242 173.184 50.7189 173.913 51.5758 173.913H128.543C129.4 173.913 130.095 173.184 130.095 172.285V152.604C130.095 151.705 129.4 150.976 128.543 150.976Z" fill="white" stroke="#263238" stroke-linecap="round" stroke-linejoin="round"/>
<path d="M122.184 156.004H58.6232C57.5937 156.004 56.759 156.879 56.759 157.96V166.376C56.759 167.456 57.5937 168.331 58.6232 168.331H122.184C123.214 168.331 124.048 167.456 124.048 166.376V157.96C124.048 156.879 123.214 156.004 122.184 156.004Z" fill="#263238" stroke="#263238" stroke-linecap="round" stroke-linejoin="round"/>
<path d="M60.4986 158.99C59.8274 159.272 59.2702 159.789 58.9221 160.454C58.5741 161.119 58.4568 161.89 58.5902 162.635C58.7236 163.38 59.0995 164.054 59.6537 164.541C60.208 165.028 60.9061 165.298 61.6291 165.306C62.352 165.313 63.0549 165.056 63.6177 164.58C64.1806 164.104 64.5685 163.438 64.7153 162.695C64.862 161.953 64.7586 161.18 64.4225 160.508C64.0864 159.837 63.5386 159.308 62.8726 159.013" stroke="#807FDE" stroke-width="3" stroke-miterlimit="10" stroke-linecap="round"/>
<path d="M61.6893 157.721V160.146" stroke="#807FDE" stroke-width="3" stroke-miterlimit="10" stroke-linecap="round"/>
<path d="M98.1098 165.599C98.1098 165.599 95.0698 166.602 94.4261 166.731C93.7823 166.859 91.8214 166.34 91.7433 167.121C91.6651 167.902 92.8819 168.655 94.7907 169.463C96.6995 170.271 98.7944 170.931 100.216 170.864C101.637 170.798 101.366 167.859 101.444 167.351C101.522 166.844 98.1098 165.599 98.1098 165.599Z" fill="white" stroke="#263238" stroke-linecap="round" stroke-linejoin="round"/>
<path d="M95.7879 168.753C93.4102 167.722 92.3014 167.191 91.8177 166.938C91.7735 166.994 91.7475 167.064 91.7432 167.137C91.6837 167.952 92.8818 168.671 94.7907 169.479C96.6995 170.287 98.7944 170.946 100.216 170.88C100.748 170.853 101.042 170.427 101.206 169.877C99.3457 169.891 97.5025 169.509 95.7879 168.753Z" fill="white" stroke="#263238" stroke-linecap="round" stroke-linejoin="round"/>
<path d="M116.584 135.667L115.788 136.123V137.337C115.788 137.337 99.1814 140.241 98.9656 141.76C98.7498 143.278 98.0912 165.868 98.0912 165.868C98.0912 165.868 100.77 168.893 101.347 168.21C101.924 167.527 102.073 165.337 102.073 165.337L104.826 145.328C104.826 145.328 123.531 147.131 126.355 146.218C129.18 145.304 130.553 141.362 130.623 139.539C130.694 137.716 130.698 136.881 130.698 136.881L117.953 135.062L116.584 135.667Z" fill="#807FDE" stroke="#263238" stroke-linecap="round" stroke-linejoin="round"/>
<path d="M110.94 166.414L110.82 166.621C110.22 167.628 109.534 168.575 108.77 169.451C107.539 170.818 105.514 171.957 105.585 172.41C105.656 172.863 107.033 173.171 111.736 171.653C113.853 170.97 115.427 170.97 115.643 170.209C115.859 169.447 114.125 166.188 114.125 166.188L110.94 166.414Z" fill="white" stroke="#263238" stroke-linecap="round" stroke-linejoin="round"/>
<path d="M115.643 170.193C115.67 169.826 115.606 169.457 115.457 169.124C113.866 169.917 112.21 170.555 110.508 171.028C108.969 171.476 107.401 171.8 105.816 172C105.66 172.16 105.57 172.297 105.585 172.391C105.656 172.847 107.033 173.152 111.736 171.633C113.86 170.974 115.427 170.974 115.643 170.193Z" fill="white" stroke="#263238" stroke-linecap="round" stroke-linejoin="round"/>
<path d="M121.146 138.93C121.146 138.93 119.408 137.337 119.263 138.247C119.118 139.156 118.828 139.387 118.828 139.387C118.828 139.387 106.672 140.917 105.302 141.815C103.933 142.713 103.494 143.942 104.29 145.765C105.087 147.588 110.441 167.554 110.441 167.554C110.999 167.819 111.581 168.021 112.179 168.16C112.975 168.312 114.638 167.476 114.638 167.476C114.638 167.476 114.437 163.756 113.931 162.542C113.425 161.328 111.353 147.319 111.353 147.319C111.353 147.319 120.138 147.354 123.107 147.354C126.076 147.354 129.328 144.774 129.98 142.646C130.631 140.519 130.352 140.066 130.352 140.066" fill="#807FDE"/>
<path d="M121.146 138.93C121.146 138.93 119.408 137.337 119.263 138.247C119.118 139.156 118.828 139.387 118.828 139.387C118.828 139.387 106.672 140.917 105.302 141.815C103.933 142.713 103.494 143.942 104.29 145.765C105.087 147.588 110.441 167.554 110.441 167.554C110.999 167.819 111.581 168.021 112.179 168.16C112.975 168.312 114.638 167.476 114.638 167.476C114.638 167.476 114.437 163.756 113.931 162.542C113.425 161.328 111.353 147.319 111.353 147.319C111.353 147.319 120.138 147.354 123.107 147.354C126.076 147.354 129.328 144.774 129.98 142.646C130.631 140.519 130.352 140.066 130.352 140.066" stroke="#263238" stroke-linecap="round" stroke-linejoin="round"/>
<path d="M111.345 147.322L110.925 144.933" stroke="#263238" stroke-linecap="round" stroke-linejoin="round"/>
<path d="M125.161 142.287C125.394 142.627 125.583 142.999 125.723 143.392" stroke="#263238" stroke-linecap="round" stroke-linejoin="round"/>
<path d="M121.853 139.652C122.924 140.116 123.892 140.807 124.696 141.682" stroke="#263238" stroke-linecap="round" stroke-linejoin="round"/>
<path d="M124.603 140.082C125.722 140.619 126.65 141.516 127.252 142.642" stroke="#263238" stroke-linecap="round" stroke-linejoin="round"/>
<path d="M116.763 117.035C116.763 117.035 116.763 117.144 116.744 117.332C116.681 118.405 115.546 120.002 116.223 122.016C117.76 126.56 117.447 129.897 117.31 128.925C117.526 130.444 116.223 133.707 116.223 134.78C116.223 135.854 113.544 136.002 119.624 137.903C125.704 139.804 127.81 139.718 129.321 139.109C130.832 138.5 131.926 137.97 132.071 136.681C132.216 135.393 130.914 133.114 130.843 131.138C130.772 129.163 130.512 122.984 128.703 119.038C126.895 115.091 122.117 112.355 122.117 112.355L116.763 117.035Z" fill="white" stroke="#263238" stroke-linecap="round" stroke-linejoin="round"/>
<path d="M126.288 131.939C126.605 131.685 126.899 131.427 127.17 131.158" stroke="#263238" stroke-linecap="round" stroke-linejoin="round"/>
<path d="M118.66 136.404C120.902 135.371 123.065 134.16 125.131 132.782" stroke="#263238" stroke-linecap="round" stroke-linejoin="round"/>
<path d="M120.993 135.967C120.134 136.418 119.234 136.78 118.307 137.048" stroke="#263238" stroke-linecap="round" stroke-linejoin="round"/>
<path d="M122.169 135.3C122.169 135.3 121.965 135.433 121.622 135.628" stroke="#263238" stroke-linecap="round" stroke-linejoin="round"/>
<path d="M123.17 125.264L125.124 122.761" stroke="#263238" stroke-linecap="round" stroke-linejoin="round"/>
<path d="M116.093 100.199C115.603 100.736 115.167 101.323 114.791 101.952C114.474 102.608 114.419 103.084 113.879 103.513C113.34 103.943 112.223 103.666 112.253 104.341C112.283 105.016 112.953 105.66 112.953 105.66C112.953 105.66 112.409 109.783 112.614 110.438C112.819 111.094 115.632 111.219 115.632 111.219L117.064 116.114L122.121 112.519L122.255 111.094C122.381 110.516 123.289 108.729 124.041 107.386C124.793 106.043 124.458 102.506 122.642 100.984C120.826 99.4617 118.422 99.6178 117.682 99.5631C116.941 99.5085 116.093 100.199 116.093 100.199Z" fill="white" stroke="#263238" stroke-linecap="round" stroke-linejoin="round"/>
<path d="M113.28 106.457C113.519 106.707 113.82 106.881 114.149 106.96C114.478 107.039 114.822 107.019 115.14 106.902" stroke="#263238" stroke-linecap="round" stroke-linejoin="round"/>
<path d="M115.431 103.978C115.308 104.278 115.114 104.478 114.999 104.427C114.884 104.376 114.891 104.087 115.018 103.787C115.144 103.486 115.334 103.287 115.446 103.338C115.557 103.388 115.553 103.677 115.431 103.978Z" fill="#263238"/>
<path d="M115.233 102.487C115.233 102.487 116.324 102.26 116.487 103.392" stroke="#263238" stroke-linecap="round" stroke-linejoin="round"/>
<path d="M115.613 111.199L117.366 111.129L116.164 112.667L115.613 111.199Z" fill="#263238" stroke="#263238" stroke-linecap="round" stroke-linejoin="round"/>
<path d="M119.613 109.295L118.854 109.056L118.404 109.798" stroke="#263238" stroke-linecap="round" stroke-linejoin="round"/>
<path d="M119.189 98.388C119.189 98.388 120.283 97.0687 118.969 96.4363C117.656 95.8039 113.187 96.9476 113.667 99.0048C114.147 101.062 118.318 101.323 118.716 101.347C119.114 101.37 117.92 101.823 118.247 102.448C118.575 103.072 119.364 103.385 119.405 104.06C119.446 104.735 118.66 105.641 119.033 106.035C119.405 106.429 120 105.84 120.38 105.688C120.759 105.535 121.797 106.632 120.979 108.03C120.16 109.427 119.609 109.283 119.609 109.283C119.513 109.54 119.497 109.823 119.564 110.09C119.631 110.357 119.777 110.595 119.981 110.77C120.726 111.43 122.214 111.235 122.586 110.594C122.958 109.954 123.602 109.376 124.941 107.995C126.281 106.613 126.917 103.123 125.991 100.715C125.064 98.3061 120.863 97.3263 119.189 98.388Z" fill="#263238" stroke="#263238" stroke-linecap="round" stroke-linejoin="round"/>
<path d="M122.102 111.207L115.207 116.536L115.602 118.835L123.364 112.835L122.102 111.207Z" fill="white" stroke="#263238" stroke-linecap="round" stroke-linejoin="round"/>
<path d="M104.889 142.275L117.034 139.484L114.195 137.716L102.672 140.413L104.889 142.275Z" fill="white" stroke="#263238" stroke-linecap="round" stroke-linejoin="round"/>
<path d="M99.4828 130.186L104.889 142.275L102.672 140.413L97.1758 129.07L99.4828 130.186Z" fill="#263238" stroke="#263238" stroke-linecap="round" stroke-linejoin="round"/>
<path d="M109.25 137.134L106.452 137.892L104.718 140.526C104.788 140.597 104.871 140.652 104.962 140.687C105.053 140.722 105.15 140.736 105.247 140.729C105.537 140.679 106.307 139.968 106.307 139.968L108.335 139.41C108.335 139.41 107.274 140.07 107.274 140.222C107.274 140.374 107.468 140.425 107.948 140.374C108.428 140.323 109.589 139.203 109.589 139.203L110.363 138.188L109.25 137.134Z" fill="white" stroke="#263238" stroke-linecap="round" stroke-linejoin="round"/>
<path d="M116.811 123.952L115.379 130.807L109.25 137.134L110.698 138.551L115.788 136.123L116.141 135.159L117.369 129.417L116.811 123.952Z" fill="white" stroke="#263238" stroke-linecap="round" stroke-linejoin="round"/>
<path d="M107.553 135.752C107.553 135.752 105.6 136.057 104.878 136.057C104.156 136.057 102.419 136.209 102.128 136.361C101.838 136.514 100.461 137.423 100.536 138.106C100.61 138.789 101.838 138.184 101.838 138.184C102.093 138.799 102.409 139.383 102.78 139.929C103.356 140.765 103.646 140.46 104.804 140.007C105.961 139.554 107.699 138.184 107.699 138.184L108.714 137.197L107.553 135.752Z" fill="white" stroke="#263238" stroke-linecap="round" stroke-linejoin="round"/>
<path d="M124.547 114.408C124.547 114.408 121.57 113.951 120.495 115.47C119.26 117.301 118.442 119.406 118.106 121.622C117.887 123.593 116.513 127.543 116.513 127.543L107.312 135.581L108.904 138.083C108.904 138.083 120.067 132.618 120.35 132.251C120.633 131.884 124.327 121.848 124.327 121.848" fill="white"/>
<path d="M124.547 114.408C124.547 114.408 121.57 113.951 120.495 115.47C119.26 117.301 118.442 119.406 118.106 121.622C117.887 123.593 116.513 127.543 116.513 127.543L107.312 135.581L108.904 138.083C108.904 138.083 120.067 132.618 120.35 132.251C120.633 131.884 124.327 121.848 124.327 121.848" stroke="#263238" stroke-linecap="round" stroke-linejoin="round"/>
<path d="M4.27907 177.664H175.483" stroke="#263238" stroke-linecap="round" stroke-linejoin="round"/>
</g>
<defs>
<clipPath id="clip0_27:928">
<rect width="176" height="178" fill="white"/>
</clipPath>
</defs>
</svg>
