<svg width="420" height="420" viewBox="0 0 420 420" fill="none" xmlns="http://www.w3.org/2000/svg">
<path d="M226.268 10.898C208.915 -1.38356 182.627 -2.06331 164.451 4.91853C131.915 17.4075 136.254 45.2427 108.056 64.8288C79.8592 84.4148 52.7465 77.5021 25.6338 102.918C-1.47887 128.334 -3.92986 176.435 7.19718 198.935C18.3242 221.436 31.0563 237.946 20.2113 276.669C9.3662 315.392 10.4507 360.37 53.831 384.047C97.2113 407.723 130.831 357.248 159.028 367.629C187.225 378.009 240.366 423.967 298.93 410.257C357.493 396.547 331.465 349.379 369.423 335.957C407.38 322.535 429.07 276.197 416.056 227.266C403.042 178.336 370.507 168.923 378.099 138.15C383.825 114.911 391.503 92.5488 376.906 70.1746C358.068 41.3025 325.825 28.9172 294.592 31.8436C282.955 32.9957 269.648 33.3759 257.491 30.3804C243.674 26.9471 237.286 18.7094 226.268 10.898Z" fill="#8080DF"/>
<path opacity="0.7" d="M226.268 10.898C208.915 -1.38356 182.627 -2.06331 164.451 4.91853C131.915 17.4075 136.254 45.2427 108.056 64.8288C79.8592 84.4148 52.7465 77.5021 25.6338 102.918C-1.47887 128.334 -3.92986 176.435 7.19718 198.935C18.3242 221.436 31.0563 237.946 20.2113 276.669C9.3662 315.392 10.4507 360.37 53.831 384.047C97.2113 407.723 130.831 357.248 159.028 367.629C187.225 378.009 240.366 423.967 298.93 410.257C357.493 396.547 331.465 349.379 369.423 335.957C407.38 322.535 429.07 276.197 416.056 227.266C403.042 178.336 370.507 168.923 378.099 138.15C383.825 114.911 391.503 92.5488 376.906 70.1746C358.068 41.3025 325.825 28.9172 294.592 31.8436C282.955 32.9957 269.648 33.3759 257.491 30.3804C243.674 26.9471 237.286 18.7094 226.268 10.898Z" fill="white"/>
<path d="M394.031 182.414L211.649 228.303L211.476 228.176L377.676 140.154C377.807 139.486 377.926 138.818 378.099 138.127C380.756 127.331 383.836 116.72 384.91 106.213L211.573 227.289H211.378L364.803 55.485C358.039 48.9803 350.325 43.6848 341.964 39.8047L211.183 226.367H210.977L290.46 32.1546C282.038 32.903 273.568 32.7718 265.17 31.7629L210.521 225.642L210.326 225.745L222.831 8.67438C214.945 4.23727 206.285 1.57054 197.388 0.839966L209.654 225.204L209.513 225.365L150.266 12.8796C141.894 19.5273 137.176 27.8572 132.133 36.452L208.71 225.112L208.623 225.307L100.173 69.6445C92.8921 73.446 85.2597 76.4345 77.3981 78.562L207.832 225.354V225.584L29.04 99.8992C27.9555 100.855 26.7734 101.846 25.6346 102.906C19.9913 108.259 15.2522 114.599 11.6228 121.651L206.997 225.93L207.062 226.137L1.20068 173.635C1.84054 183.462 3.94448 192.299 7.198 198.924C7.74025 200.076 8.28251 201.113 8.83561 202.184L206.444 226.748L206.563 226.932L24.3657 248.983C24.3326 257.566 23.1532 266.1 20.8628 274.33L206.227 227.692L206.4 227.819L15.4077 328.987C16.6639 338.494 19.6829 347.641 24.2898 355.9L206.259 228.741H206.454L63.9503 388.321C75.3267 391.777 86.0091 390.625 96.0842 387.388L206.65 229.662H206.856L150.96 366.189C153.706 366.187 156.432 366.67 159.029 367.617C161.932 368.714 164.781 369.968 167.564 371.373L207.311 230.388L207.506 230.285L198.407 388.286C204.383 391.524 210.706 394.784 217.31 397.826L208.179 230.826L208.32 230.665L258.663 411.202C266.659 412.567 274.771 413.019 282.858 412.55L209.112 230.895L209.198 230.699L325.718 397.987C333.06 391.927 337.17 384.692 340.218 377.249L210.001 230.676V230.446L363.632 338.469C365.484 337.477 367.401 336.63 369.369 335.934C376.377 333.466 382.967 329.821 388.89 325.139L210.836 230.1L210.771 229.893L416.307 282.303C418.712 273.496 419.899 264.364 419.831 255.193L211.389 229.282L211.27 229.098L407.945 205.295C403.953 197.246 399.297 189.589 394.031 182.414ZM206.324 227.692L206.953 227.531L206.487 227.784L206.324 227.692ZM206.563 228.683H206.368L206.921 228.291L206.563 228.683ZM206.91 229.49H206.736L207.127 228.937L206.91 229.49ZM206.747 226.863L206.628 226.725L207.279 226.805L206.747 226.863ZM207.55 230.089L207.398 230.192L207.582 229.524L207.55 230.089ZM207.235 226.125L207.17 225.953L207.756 226.264L207.235 226.125ZM209.708 225.307V225.999L209.556 225.469L209.708 225.307ZM208.808 225.192L209.068 225.837L208.754 225.388L208.808 225.192ZM207.929 225.423L208.374 225.93L207.94 225.619L207.929 225.423ZM208.211 230.63V229.939L208.363 230.469L208.211 230.63ZM209.112 230.745L208.851 230.1L209.166 230.55L209.112 230.745ZM209.014 228.937H208.699L208.417 228.787L208.201 228.545L208.081 228.234V227.9L208.168 227.577L208.363 227.312L208.623 227.128L208.927 227.047H209.242L209.524 227.197L209.741 227.439L209.86 227.75V228.084L209.773 228.407L209.578 228.672L209.318 228.856L209.014 228.937ZM209.545 230.008L209.979 230.319V230.515L209.545 230.008ZM211.313 227.301H211.508L210.955 227.692L211.313 227.301ZM210.966 226.494H211.14L210.749 227.047L210.966 226.494ZM210.37 225.849L210.521 225.745L210.337 226.402L210.37 225.849ZM210.163 229.674L210.684 229.812L210.749 229.985L210.163 229.674ZM210.641 229.132L211.085 229.167L211.205 229.305L210.641 229.132ZM210.923 228.453L211.389 228.199L211.552 228.291L210.923 228.453Z" fill="white"/>
<path d="M206.746 419.405C300.483 419.405 376.472 415.248 376.472 410.119C376.472 404.99 300.483 400.833 206.746 400.833C113.01 400.833 37.0211 404.99 37.0211 410.119C37.0211 415.248 113.01 419.405 206.746 419.405Z" fill="#263238"/>
<path d="M106.798 245.47H316.444C317.678 245.47 318.862 245.99 319.734 246.917C320.607 247.844 321.097 249.101 321.097 250.412V393.39H102.135V250.412C102.135 249.762 102.256 249.119 102.49 248.518C102.725 247.918 103.068 247.372 103.501 246.913C103.935 246.454 104.449 246.09 105.015 245.843C105.58 245.595 106.186 245.468 106.798 245.47V245.47Z" fill="#8080DF" stroke="#263238" stroke-linecap="round" stroke-linejoin="round"/>
<path d="M118.045 256.691H305.198C305.809 256.691 306.414 256.819 306.978 257.068C307.543 257.316 308.056 257.68 308.488 258.139C308.92 258.598 309.263 259.143 309.496 259.742C309.73 260.342 309.851 260.985 309.851 261.634V395.383H113.381V261.645C113.38 260.994 113.499 260.349 113.733 259.748C113.967 259.146 114.311 258.599 114.744 258.139C115.177 257.679 115.692 257.314 116.258 257.065C116.825 256.817 117.432 256.69 118.045 256.691V256.691Z" fill="#263238" stroke="#263238" stroke-linecap="round" stroke-linejoin="round"/>
<path d="M319.221 405.338H94.2723C83.9152 405.338 75.5211 398.678 75.5211 390.464H337.972C337.972 398.678 329.578 405.338 319.221 405.338Z" fill="#8080DF" stroke="#263238" stroke-linecap="round" stroke-linejoin="round"/>
<path d="M210.683 109.266C196.238 123.863 159.288 138.61 116.201 169.891C116.201 169.891 118.891 275.586 210.683 333.365V109.266Z" fill="#8080DF" stroke="#263238" stroke-linecap="round" stroke-linejoin="round"/>
<path d="M210.683 109.266C225.118 123.863 262.078 138.61 305.165 169.891C305.165 169.891 302.476 275.586 210.683 333.365V109.266Z" fill="#263238" stroke="#263238" stroke-linecap="round" stroke-linejoin="round"/>
<path d="M210.683 118.264C193.255 131.387 163.052 143.899 123.131 172.875C123.131 172.875 125.625 270.805 210.683 324.367C295.741 270.828 298.235 172.875 298.235 172.875C258.304 143.91 228.241 131.387 210.683 118.264Z" fill="#263238" stroke="#263238" stroke-linecap="round" stroke-linejoin="round"/>
<path d="M283.313 162.471C222.407 182.057 175.946 238.914 154.82 268.904C169.352 291.552 188.431 310.494 210.683 324.367C295.741 270.828 298.235 172.875 298.235 172.875C293.095 169.157 288.121 165.689 283.313 162.471Z" fill="#8080DF" stroke="#263238" stroke-linecap="round" stroke-linejoin="round"/>
<path d="M243.847 217.012H178.549C177.111 217.012 175.732 216.405 174.715 215.325C173.698 214.245 173.127 212.779 173.127 211.252V178.601C173.295 167.998 177.378 157.89 184.496 150.456C191.613 143.021 201.195 138.855 211.177 138.855C221.158 138.855 230.74 143.021 237.858 150.456C244.975 157.89 249.058 167.998 249.227 178.601V211.252C249.227 212.771 248.661 214.23 247.654 215.309C246.646 216.388 245.278 217 243.847 217.012ZM184.015 205.491H238.425V178.601C238.283 171.035 235.354 163.831 230.268 158.534C225.181 153.238 218.343 150.271 211.22 150.271C204.098 150.271 197.259 153.238 192.173 158.534C187.086 163.831 184.157 171.035 184.015 178.601V205.491Z" fill="white" stroke="#263238" stroke-linecap="round" stroke-linejoin="round"/>
<path d="M252.22 201.274H169.147V275.851H252.22V201.274Z" fill="white" stroke="#263238" stroke-linecap="round" stroke-linejoin="round"/>
<path d="M219.316 232.243C219.316 230.545 218.892 228.877 218.088 227.409C217.283 225.941 216.127 224.726 214.737 223.888C213.347 223.049 211.772 222.617 210.173 222.635C208.575 222.654 207.009 223.122 205.636 223.992C204.263 224.863 203.132 226.104 202.358 227.59C201.584 229.076 201.194 230.753 201.228 232.451C201.263 234.149 201.721 235.807 202.555 237.256C203.389 238.705 204.569 239.893 205.976 240.7L204.458 257.636H216.084L214.566 240.7C216.004 239.879 217.205 238.658 218.041 237.169C218.878 235.68 219.318 233.978 219.316 232.243V232.243Z" fill="#263238" stroke="#263238" stroke-linecap="round" stroke-linejoin="round"/>
<path d="M374.357 217.75L374.227 216.021" stroke="#263238" stroke-linecap="round" stroke-linejoin="round"/>
<path d="M373.912 212.577C369.618 169.393 350.659 129.351 320.584 99.9433C290.508 70.5356 251.376 53.7775 210.511 52.8044C169.645 51.8313 129.846 66.7101 98.5606 94.6566C67.2749 122.603 46.6463 161.702 40.5349 204.639C40.0722 207.911 39.7107 211.194 39.4504 214.489" stroke="#263238" stroke-linecap="round" stroke-linejoin="round" stroke-dasharray="3.01 3.01"/>
<path d="M39.2557 216.194L39.1251 217.911" stroke="#263238" stroke-linecap="round" stroke-linejoin="round"/>
<path d="M76.5948 187.725L86.2035 146.191H57.052L76.5948 187.725Z" fill="#263238" stroke="#263238" stroke-linecap="round" stroke-linejoin="round"/>
<path d="M76.5948 187.725L78.7313 147.77H60.1754L76.5948 187.725Z" fill="#8080DF" stroke="#263238" stroke-linecap="round" stroke-linejoin="round"/>
<path d="M76.5948 187.725L74.6101 144.659H56.0542L76.5948 187.725Z" fill="#8080DF" stroke="#263238" stroke-linecap="round" stroke-linejoin="round"/>
<path d="M41.9556 142.666L37.173 136.917H11.9907L23.801 187.725H76.5948L68.2224 142.666H41.9556Z" fill="#263238" stroke="#263238" stroke-linecap="round" stroke-linejoin="round"/>
<path d="M132.631 64.0338H69.7407C67.5425 64.0338 65.7606 65.9269 65.7606 68.2621V104.358C65.7606 106.693 67.5425 108.586 69.7407 108.586H132.631C134.829 108.586 136.611 106.693 136.611 104.358V68.2621C136.611 65.9269 134.829 64.0338 132.631 64.0338Z" fill="#263238" stroke="#263238" stroke-linecap="round" stroke-linejoin="round"/>
<path d="M136.611 72.4788H65.7606V88.6084H136.611V72.4788Z" fill="#8080DF" stroke="#263238" stroke-linecap="round" stroke-linejoin="round"/>
<path d="M121.656 101.466C121.656 100.844 121.482 100.236 121.157 99.7187C120.832 99.2014 120.369 98.7983 119.828 98.5602C119.287 98.3222 118.692 98.2599 118.118 98.3812C117.543 98.5026 117.016 98.8022 116.602 99.242C116.188 99.6819 115.906 100.242 115.792 100.852C115.677 101.463 115.736 102.095 115.96 102.67C116.184 103.244 116.564 103.736 117.05 104.081C117.537 104.427 118.11 104.611 118.695 104.611C119.481 104.611 120.234 104.28 120.789 103.69C121.344 103.1 121.656 102.3 121.656 101.466V101.466Z" fill="white" stroke="#263238" stroke-linecap="round" stroke-linejoin="round"/>
<path d="M129.887 101.466C129.887 100.844 129.714 100.236 129.388 99.7187C129.063 99.2014 128.601 98.7983 128.06 98.5602C127.519 98.3222 126.923 98.2599 126.349 98.3812C125.775 98.5026 125.247 98.8022 124.833 99.242C124.419 99.6819 124.137 100.242 124.023 100.852C123.909 101.463 123.967 102.095 124.191 102.67C124.416 103.244 124.795 103.736 125.282 104.081C125.769 104.427 126.341 104.611 126.927 104.611C127.712 104.611 128.465 104.28 129.02 103.69C129.576 103.1 129.887 102.3 129.887 101.466Z" fill="white" stroke="#263238" stroke-linecap="round" stroke-linejoin="round"/>
<path d="M250.203 34.1824H174.331V86.4425H250.203V34.1824Z" fill="#8080DF" stroke="#263238" stroke-linecap="round" stroke-linejoin="round"/>
<path d="M246.765 37.5005H178.029V82.6981H246.765V37.5005Z" fill="#263238" stroke="#263238" stroke-linecap="round" stroke-linejoin="round"/>
<path d="M198.136 69.0225C198.136 64.0914 194.361 55.6118 189.72 55.6118C185.078 55.6118 181.293 64.0914 181.293 69.0225C181.293 73.9536 185.067 75.1748 189.72 75.1748C194.372 75.1748 198.136 73.919 198.136 69.0225Z" fill="white" stroke="#263238" stroke-linecap="round" stroke-linejoin="round"/>
<path d="M189.72 57.2477C192.918 57.2477 195.511 54.4933 195.511 51.0954C195.511 47.6976 192.918 44.9431 189.72 44.9431C186.521 44.9431 183.928 47.6976 183.928 51.0954C183.928 54.4933 186.521 57.2477 189.72 57.2477Z" fill="white" stroke="#263238" stroke-linecap="round" stroke-linejoin="round"/>
<path d="M206.551 46.1068H220.574" stroke="white" stroke-width="2" stroke-linecap="round" stroke-linejoin="round"/>
<path d="M206.551 52.5587H220.574" stroke="white" stroke-width="2" stroke-linecap="round" stroke-linejoin="round"/>
<path d="M206.551 63.9877H239.271" stroke="white" stroke-width="2" stroke-linecap="round" stroke-linejoin="round"/>
<path d="M206.551 72.4327H239.271" stroke="white" stroke-width="2" stroke-linecap="round" stroke-linejoin="round"/>
<path d="M354.033 64.0338H297.606C294.115 64.0338 291.284 67.0411 291.284 70.7507V101.95C291.284 105.66 294.115 108.667 297.606 108.667H354.033C357.525 108.667 360.356 105.66 360.356 101.95V70.7507C360.356 67.0411 357.525 64.0338 354.033 64.0338Z" fill="#263238" stroke="#263238" stroke-width="2" stroke-linecap="round" stroke-linejoin="round"/>
<path d="M328.58 85.2328L360.356 68.1584V67.375C360.356 66.4888 360.025 65.639 359.435 65.0124C358.845 64.3858 358.045 64.0338 357.211 64.0338H294.44C293.605 64.0338 292.804 64.3855 292.212 65.0117C291.62 65.638 291.287 66.4878 291.284 67.375V68.3082L322.485 85.3134C323.436 85.8065 324.483 86.056 325.542 86.042C326.6 86.028 327.641 85.7509 328.58 85.2328Z" fill="#8080DF" stroke="#263238" stroke-width="2" stroke-linecap="round" stroke-linejoin="round"/>
<path d="M395.18 141.848H334.154C331.729 141.848 329.762 143.937 329.762 146.514V174.614C329.762 177.191 331.729 179.28 334.154 179.28H395.18C397.605 179.28 399.572 177.191 399.572 174.614V146.514C399.572 143.937 397.605 141.848 395.18 141.848Z" fill="#263238"/>
<path d="M329.773 169.487V189.592L340.325 176.688" fill="#263238"/>
<path d="M354.109 161.25C354.111 160.488 353.901 159.742 353.503 159.107C353.106 158.473 352.541 157.978 351.878 157.685C351.216 157.392 350.487 157.315 349.783 157.463C349.079 157.612 348.433 157.978 347.926 158.517C347.419 159.056 347.073 159.743 346.934 160.49C346.794 161.238 346.867 162.012 347.143 162.716C347.418 163.42 347.884 164.02 348.481 164.442C349.079 164.864 349.781 165.088 350.498 165.086C351.455 165.083 352.372 164.678 353.048 163.959C353.725 163.24 354.106 162.266 354.109 161.25Z" fill="#8080DF"/>
<path d="M369.607 161.25C369.609 160.488 369.398 159.742 369.001 159.107C368.604 158.473 368.038 157.978 367.376 157.685C366.714 157.392 365.984 157.315 365.281 157.463C364.577 157.612 363.931 157.978 363.423 158.517C362.916 159.056 362.571 159.743 362.431 160.49C362.292 161.238 362.365 162.012 362.64 162.716C362.916 163.42 363.382 164.02 363.979 164.442C364.576 164.864 365.278 165.088 365.995 165.086C366.952 165.083 367.869 164.678 368.546 163.959C369.223 163.24 369.604 162.266 369.607 161.25Z" fill="#8080DF"/>
<path d="M385.115 161.25C385.117 160.488 384.907 159.743 384.51 159.109C384.113 158.474 383.548 157.979 382.887 157.686C382.225 157.393 381.496 157.315 380.793 157.463C380.09 157.61 379.443 157.975 378.936 158.513C378.428 159.051 378.082 159.736 377.941 160.483C377.801 161.23 377.872 162.004 378.146 162.708C378.419 163.412 378.884 164.014 379.48 164.437C380.075 164.86 380.776 165.086 381.493 165.086C382.451 165.083 383.369 164.678 384.047 163.96C384.726 163.241 385.11 162.267 385.115 161.25V161.25Z" fill="#8080DF"/>
<path d="M76.2261 235.239C76.0565 235.003 75.8383 234.812 75.5882 234.68C75.3381 234.548 75.0629 234.479 74.7837 234.478H27.933L26.1327 228.718C26.0104 228.335 25.7783 228.002 25.469 227.767C25.1598 227.531 24.7888 227.405 24.4083 227.404H12.5438C12.0863 227.442 11.6589 227.662 11.3472 228.019C11.0355 228.377 10.8623 228.847 10.8623 229.334C10.8623 229.822 11.0355 230.291 11.3472 230.649C11.6589 231.007 12.0863 231.226 12.5438 231.264H23.0961L34.5376 267.729C34.6585 268.112 34.8902 268.446 35.1998 268.682C35.5094 268.917 35.881 269.043 36.262 269.042H36.9235C36.2719 270.109 35.9254 271.353 35.9258 272.625C35.92 273.663 36.1426 274.687 36.5757 275.617C37.0088 276.547 37.6405 277.357 38.4204 277.982C39.2003 278.606 40.1067 279.029 41.0675 279.215C42.0283 279.402 43.0169 279.347 43.9543 279.056C44.8917 278.764 45.752 278.244 46.4667 277.537C47.1814 276.83 47.7306 275.955 48.0706 274.982C48.4105 274.009 48.5318 272.966 48.4248 271.934C48.3178 270.903 47.9854 269.913 47.4541 269.042H56.1301C55.4786 270.109 55.132 271.353 55.1324 272.625C55.0972 273.522 55.2332 274.417 55.5321 275.257C55.831 276.097 56.2867 276.864 56.8717 277.512C57.4568 278.16 58.1591 278.675 58.9365 279.027C59.7139 279.38 60.5503 279.561 61.3954 279.561C62.2406 279.561 63.077 279.38 63.8544 279.027C64.6317 278.675 65.3341 278.16 65.9191 277.512C66.5042 276.864 66.9598 276.097 67.2587 275.257C67.5576 274.417 67.6936 273.522 67.6585 272.625C67.6589 271.353 67.3123 270.109 66.6607 269.042H68.0597C68.3101 269.062 68.5617 269.028 68.7989 268.94C69.036 268.853 69.2536 268.714 69.4379 268.533C69.6221 268.351 69.7692 268.132 69.8697 267.887C69.9703 267.643 70.0222 267.379 70.0222 267.112C70.0222 266.845 69.9703 266.582 69.8697 266.337C69.7692 266.093 69.6221 265.873 69.4379 265.692C69.2536 265.511 69.036 265.372 68.7989 265.284C68.5617 265.196 68.3101 265.162 68.0597 265.182H37.5634L35.557 258.811H69.5889C69.9887 258.811 70.3773 258.671 70.6948 258.413C71.0123 258.154 71.2411 257.792 71.3458 257.382L76.5297 236.921C76.6057 236.635 76.6178 236.334 76.565 236.042C76.5123 235.75 76.3963 235.475 76.2261 235.239V235.239ZM42.1834 275.413C41.6643 275.413 41.1569 275.25 40.7253 274.943C40.2937 274.637 39.9573 274.201 39.7586 273.692C39.56 273.183 39.508 272.622 39.6093 272.081C39.7106 271.54 39.9605 271.043 40.3276 270.654C40.6946 270.264 41.1623 269.998 41.6714 269.89C42.1805 269.783 42.7082 269.838 43.1877 270.049C43.6673 270.26 44.0772 270.618 44.3656 271.076C44.654 271.535 44.8079 272.074 44.8079 272.625C44.805 273.364 44.5276 274.071 44.036 274.593C43.5445 275.115 42.8786 275.41 42.1834 275.413V275.413ZM61.4551 275.413C60.936 275.413 60.4286 275.25 59.997 274.943C59.5654 274.637 59.229 274.201 59.0303 273.692C58.8317 273.183 58.7797 272.622 58.881 272.081C58.9823 271.54 59.2322 271.043 59.5993 270.654C59.9663 270.264 60.434 269.998 60.9431 269.89C61.4522 269.783 61.9799 269.838 62.4594 270.049C62.939 270.26 63.3489 270.618 63.6373 271.076C63.9257 271.535 64.0796 272.074 64.0796 272.625C64.0782 272.994 64.0082 273.358 63.8738 273.698C63.7394 274.038 63.5431 274.346 63.2962 274.605C63.0493 274.864 62.7567 275.069 62.4352 275.208C62.1137 275.346 61.7695 275.416 61.4225 275.413H61.4551ZM66.3028 254.952H59.568V238.384H66.3028V254.952ZM49.1893 238.384H55.9241V254.986H49.1893V238.384ZM45.5562 254.986H38.8214V238.384H45.5562V254.986ZM29.1476 238.384H35.1775V254.986H34.3641L29.1476 238.384ZM69.9359 248.154V238.384H72.4086L69.9359 248.154Z" fill="#263238"/>
<path d="M371.754 225.907C366.569 225.904 361.499 227.536 357.187 230.595C352.875 233.654 349.513 238.003 347.528 243.092C345.543 248.18 345.023 253.78 346.034 259.183C347.045 264.586 349.542 269.549 353.208 273.444C356.875 277.339 361.546 279.991 366.632 281.066C371.718 282.14 376.989 281.587 381.779 279.478C386.57 277.369 390.663 273.798 393.543 269.217C396.422 264.636 397.958 259.25 397.956 253.742C397.947 246.362 395.184 239.288 390.272 234.069C385.36 228.851 378.701 225.916 371.754 225.907V225.907ZM371.754 229.363C373.923 229.363 376.287 232.382 377.958 237.428H365.551C367.253 232.382 369.553 229.363 371.754 229.363ZM378.901 240.884C379.698 244.524 380.138 248.243 380.213 251.979H363.284C363.36 248.243 363.8 244.524 364.596 240.884H378.901ZM380.268 255.47C380.179 259.823 379.574 264.147 378.467 268.339H365.084C364 264.159 363.413 259.851 363.338 255.516L380.268 255.47ZM360.074 252.014H348.871C349.134 248.078 350.296 244.27 352.255 240.919H361.234C360.498 244.568 360.092 248.283 360.02 252.014H360.074ZM360.074 255.47C360.128 259.808 360.649 264.126 361.625 268.339H353.372C350.741 264.614 349.178 260.161 348.871 255.516L360.074 255.47ZM362.644 271.796C363.282 273.684 364.135 275.483 365.182 277.153C361.888 276.096 358.859 274.265 356.322 271.796H362.644ZM366.169 271.796H377.329C375.734 275.828 373.685 278.178 371.754 278.178C369.824 278.178 367.774 275.782 366.169 271.796ZM380.853 271.796H387.176C384.638 274.265 381.61 276.096 378.315 277.153C379.363 275.483 380.215 273.684 380.853 271.796V271.796ZM381.873 268.339C382.887 264.131 383.44 259.813 383.521 255.47H394.67C394.358 260.136 392.78 264.606 390.126 268.339H381.873ZM383.521 252.014C383.449 248.283 383.043 244.568 382.306 240.919H391.286C393.245 244.27 394.407 248.078 394.67 252.014H383.521ZM388.835 237.462H381.45C380.75 234.957 379.709 232.573 378.359 230.388C382.379 231.691 385.987 234.137 388.792 237.462H388.835ZM365.225 230.388C363.875 232.571 362.837 234.955 362.145 237.462H354.749C357.554 234.137 361.162 231.691 365.182 230.388H365.225Z" fill="#263238"/>
</svg>
